<?xml version="1.0" encoding="UTF-8" standalone="no"?>
<svg
   id="Layer_1"
   data-name="Layer 1"
   version="1.1"
   viewBox="0 0 5.0000002 4.9999998"
   sodipodi:docname="addie.svg"
   width="5"
   height="5"
   inkscape:version="1.4 (1:1.4+202410161351+e7c3feb100)"
   xmlns:inkscape="http://www.inkscape.org/namespaces/inkscape"
   xmlns:sodipodi="http://sodipodi.sourceforge.net/DTD/sodipodi-0.dtd"
   xmlns="http://www.w3.org/2000/svg"
   xmlns:svg="http://www.w3.org/2000/svg">
  <sodipodi:namedview
     id="namedview30"
     pagecolor="#505050"
     bordercolor="#eeeeee"
     borderopacity="1"
     inkscape:showpageshadow="0"
     inkscape:pageopacity="0"
     inkscape:pagecheckerboard="0"
     inkscape:deskcolor="#505050"
     inkscape:zoom="1.6343405"
     inkscape:cx="154.19064"
     inkscape:cy="84.131797"
     inkscape:window-width="1920"
     inkscape:window-height="1051"
     inkscape:window-x="0"
     inkscape:window-y="0"
     inkscape:window-maximized="1"
     inkscape:current-layer="Layer_1" />
  <defs
     id="defs3">
    <linearGradient
       id="ATD_2024_Gradient"
       data-name="ATD 2024 Gradient"
       x1="95.279999"
       y1="147.23"
       x2="141.50999"
       y2="20.23"
       gradientUnits="userSpaceOnUse"
       gradientTransform="matrix(0.03359538,0,0,0.03359538,-1.209434,-0.324024)">
      <stop
         offset="0"
         stop-color="#005b8e"
         id="stop1" />
      <stop
         offset=".4"
         stop-color="#0b81bc"
         id="stop2" />
      <stop
         offset=".89"
         stop-color="#85bf42"
         id="stop3" />
    </linearGradient>
  </defs>
  <path
     d="m 0.552644,3.517608 c 0,-0.149164 0.169657,-0.266076 0.585567,-0.386347 v 0.616811 c -0.05375,0.0262 -0.130014,0.04132 -0.216354,0.04132 -0.233488,0 -0.369213,-0.07828 -0.369213,-0.271786 M 3.802325,3.045255 c 0,-0.345025 0.251629,-0.620507 0.611436,-0.721629 v 1.387153 c -0.04804,0.01781 -0.10213,0.0299 -0.181079,0.0299 -0.298327,0 -0.430357,-0.253309 -0.430357,-0.695088 M 5,0.88541 c 0,0 -0.298327,0.05644 -0.585903,0.146476 V 1.915444 C 3.572532,2.108282 2.772291,2.315901 2.772291,2.315901 l -0.0013,-0.914802 c 0,0 -0.288921,0.05678 -0.589599,0.147484 V 2.465065 L 1.652265,2.595415 C 1.53972,2.235272 1.246768,2.001112 0.888306,2.001112 c -0.358463,0 -0.624202,0.09508 -0.767991,0.155547 0,0 0.02251,0.08063 0.05778,0.171001 0.03528,0.09004 0.07189,0.164617 0.07189,0.164617 0.131693,-0.06014 0.330914,-0.124975 0.529127,-0.124975 0.198213,0 0.36283,0.147484 0.36283,0.352752 C 0.443795,2.877952 0,3.100353 0,3.471582 c 0,0.423638 0.302022,0.64268 0.891957,0.64268 0.351072,0 0.628234,-0.06081 0.79789,-0.151179 L 1.689176,2.943127 2.18034,2.77683 2.181012,3.516936 c 0,0.313109 0.18511,0.589263 0.61278,0.589263 0.135725,0 0.241214,-0.03393 0.291271,-0.05678 0,0 0.0067,-0.0729 0.0067,-0.183095 0,-0.110193 -0.0067,-0.179399 -0.0067,-0.179399 -0.05039,0.01512 -0.07626,0.02284 -0.124638,0.02284 -0.132702,0 -0.189478,-0.08365 -0.189478,-0.238191 V 2.576257 c 0,0 0.41591,-0.14614 0.818383,-0.278841 -0.277834,0.152187 -0.369885,0.579856 -0.369885,0.828798 0,0.680642 0.385003,0.988376 1.001478,0.988376 0.351072,0 0.588927,-0.07324 0.778741,-0.15118 v -3.078 z"
     fill="url(#ATD_2024_Gradient)"
     stroke-width="0"
     id="path30"
     style="fill:url(#ATD_2024_Gradient)" />
</svg>
