<?xml version="1.0" encoding="utf-8"?>
<!-- Generator: Adobe Illustrator 19.2.1, SVG Export Plug-In . SVG Version: 6.00 Build 0)  -->
<svg version="1.1" id="layer" xmlns="http://www.w3.org/2000/svg" xmlns:xlink="http://www.w3.org/1999/xlink" x="0px" y="0px"
	 viewBox="0 0 652 652" style="enable-background:new 0 0 652 652;" xml:space="preserve">
<style type="text/css">
	.st0{fill:#333333;}
</style>
<path class="st0" d="M132.7,311.6l-1.6,1.8v-9.6h-15.8v73.7h15.9v-38.1c0-14.5,8.3-22.6,23.3-23v-13.6
	C144.7,303,137.5,305.9,132.7,311.6 M396.5,280.2h15.9v97.5h-15.9V280.2z M65.4,315.9c13.2,0,23.2,10.7,23.2,24.8
	s-10,24.8-23.2,24.8c-13,0-22.9-10.7-22.9-24.8C42.4,326.6,52.4,315.9,65.4,315.9 M26.5,340.7c0,22.1,16.7,38.8,38.8,38.8
	c14.5,0,23.2-10.2,23.2-10.2v8.2h15.9v-36.8c0-22.1-16.8-38.8-39.1-38.8C43.3,301.9,26.5,318.7,26.5,340.7 M208.5,303.9h15.9v73.7
	h-15.9V303.9z M227.6,283.5c0-5.9-4.8-10.7-10.7-10.7c-5.9,0-10.6,4.8-10.6,10.7c0,5.9,4.8,10.6,10.6,10.6
	C222.8,294,227.6,289.4,227.6,283.5 M271.7,365.6c-13,0-22.9-10.7-22.9-24.8s9.8-24.8,22.9-24.8c9.4,0,17.2,5.1,20.9,13.8h16.6
	c-4.7-16.9-19.3-27.7-37.6-27.7c-22.1,0-38.8,16.7-38.8,38.8c0,22.1,16.6,38.8,38.8,38.8c17.6,0,32.2-10.3,37.2-26.4H292
	C288,360.9,280.5,365.6,271.7,365.6 M565.3,333.5l0.4-1.1c3.1-10.2,11.5-16.4,21.7-16.4c10.4,0,18.8,6.3,22,16.4l0.4,1.1H565.3z
	 M587.3,301.9c-22.1,0-38.8,16.7-38.8,38.8c0,22,16.6,38.8,38.8,38.8c16.3,0,29.9-8.7,35.9-22.9h-17.7c-4.3,5.8-10.7,8.9-18.1,8.9
	c-11.1,0-20.1-7.8-22.4-19.4l-0.2-1h45.6h15.9c0.2-1.7,0.3-3,0.3-4.4C626.5,318.7,609.6,301.9,587.3,301.9 M423,280.2h74.9v12.7H423
	V280.2z M180,280.2h-15.9v73.7c0,15.3,8.5,24.8,22,24.8c4.9,0,10.7-0.6,12.9-0.9V364c-2,0.3-6.8,0.9-10.2,0.9c-5,0-8.8-4.2-8.8-9.6
	v-38.3h19v-13h-19L180,280.2 M524.5,355.1v-38.3h19v-13h-19v-23.7h-15.9v73.7c0,15.3,8.5,24.8,22,24.8c4.9,0,10.7-0.7,12.9-0.9V364
	c-2,0.3-6.8,0.9-10.2,0.9C528.4,364.9,524.5,360.6,524.5,355.1 M460.3,315.9c13.2,0,23.2,10.7,23.2,24.8s-10,24.8-23.2,24.8
	c-13,0-22.9-10.7-22.9-24.8S447.2,315.9,460.3,315.9 M421.5,340.7c0,22.1,16.7,38.8,38.8,38.8c14.5,0,23.2-10.2,23.2-10.2v8.2h15.9
	v-36.8c0-22.1-16.8-38.8-39.1-38.8C438.1,301.9,421.5,318.7,421.5,340.7 M350.3,365.4c-14.6,0-16.7-12-16.7-24.8v-36.7h-15.8v40.7
	c0,18,9.4,34.8,30.9,34.8c14.1,0,21.2-10.1,21.2-10.1v8.2h15.9v-73.6h-15.9v36.4C369.9,357.3,359.9,365.4,350.3,365.4"/>
</svg>
