<?xml version="1.0" encoding="UTF-8" standalone="no"?>
<svg
   preserveAspectRatio="xMidYMid"
   version="1.1"
   viewBox="0 0 5 5"
   id="svg5"
   sodipodi:docname="CSharp.svg"
   width="5"
   height="5"
   inkscape:version="1.4 (1:1.4+202410161351+e7c3feb100)"
   xmlns:inkscape="http://www.inkscape.org/namespaces/inkscape"
   xmlns:sodipodi="http://sodipodi.sourceforge.net/DTD/sodipodi-0.dtd"
   xmlns="http://www.w3.org/2000/svg"
   xmlns:svg="http://www.w3.org/2000/svg">
  <defs
     id="defs5" />
  <sodipodi:namedview
     id="namedview5"
     pagecolor="#505050"
     bordercolor="#eeeeee"
     borderopacity="1"
     inkscape:showpageshadow="0"
     inkscape:pageopacity="0"
     inkscape:pagecheckerboard="0"
     inkscape:deskcolor="#505050"
     inkscape:zoom="16.98"
     inkscape:cx="25.029446"
     inkscape:cy="25"
     inkscape:window-width="1920"
     inkscape:window-height="1051"
     inkscape:window-x="0"
     inkscape:window-y="0"
     inkscape:window-maximized="1"
     inkscape:current-layer="svg5" />
  <g
     transform="matrix(0.01742411,0,0,0.01742411,0.26956582,-4.4472451e-4)"
     id="g5">
    <path
       d="m 256,84.5 c -0.002,-4.83 -1.04,-9.1 -3.12,-12.8 -2.05,-3.6 -5.12,-6.62 -9.25,-9.01 -34,-19.6 -68.1,-39.2 -102,-58.8 -9.17,-5.29 -18.1,-5.1 -27.2,0.269 -13.5,7.99 -81.3,46.8 -102,58.5 -8.32,4.82 -12.4,12.2 -12.4,21.8 -0.013,39.5 0,78.9 -0.013,118 0,4.72 0.991,8.91 2.99,12.5 2.05,3.71 5.17,6.81 9.39,9.25 20.2,11.7 88,50.5 102,58.5 9.11,5.37 18,5.56 27.2,0.269 34,-19.6 68.1,-39.2 102,-58.8 4.22,-2.44 7.33,-5.54 9.39,-9.25 1.99,-3.61 2.99,-7.79 2.99,-12.5 0,0 0,-78.9 -0.013,-118"
       fill="#a179dc"
       id="path1" />
    <path
       d="M 128,143 3,215.1 c 2.05,3.71 5.17,6.81 9.39,9.25 20.2,11.7 88,50.5 102,58.5 9.11,5.37 18,5.56 27.2,0.269 34,-19.6 68.1,-39.2 102,-58.8 4.22,-2.44 7.33,-5.54 9.39,-9.25 l -124,-72.1"
       fill="#280068"
       id="path2" />
    <path
       d="m 256,84.5 c -0.002,-4.83 -1.04,-9.1 -3.12,-12.8 l -124,71.6 124,72.1 c 1.99,-3.61 2.98,-7.79 2.99,-12.5 0,0 0,-78.9 -0.013,-118"
       fill="#390091"
       id="path3" />
    <path
       d="m 202,116 v 13.5 h 13.5 V 116 h 6.74 v 13.5 h 13.5 v 6.74 h -13.5 v 13.5 h 13.5 v 6.74 h -13.5 v 13.5 h -6.74 v -13.5 H 202 v 13.5 h -6.74 v -13.5 h -13.5 v -6.74 h 13.5 v -13.5 h -13.5 v -6.74 h 13.5 V 116 Z m 13.5,20.2 H 202 v 13.5 h 13.5 z"
       fill="#ffffff"
       id="path4" />
    <path
       d="m 128,48.6 c 35.1,0 65.8,19.1 82.3,47.5 l -0.16,-0.273 -41.3,23.8 c -8.15,-13.8 -23.1,-23.1 -40.2,-23.3 l -0.54,-0.003 c -26.1,0 -47.3,21.2 -47.3,47.3 0,8.54 2.28,16.6 6.24,23.5 8.15,14.2 23.5,23.8 41.1,23.8 17.7,0 33.1,-9.72 41.2,-24.1 l -0.197,0.345 41.3,23.9 c -16.3,28.1 -46.5,47.2 -81.3,47.5 l -1.06,0.006 c -35.3,0 -66,-19.2 -82.4,-47.7 -8,-13.9 -12.6,-30.1 -12.6,-47.3 0,-52.5 42.5,-95 95,-95 z"
       fill="#ffffff"
       id="path5" />
  </g>
</svg>
