<?xml version="1.0" encoding="UTF-8" standalone="no"?>
<!-- Generator: Adobe Illustrator 16.0.0, SVG Export Plug-In . SVG Version: 6.00 Build 0)  -->

<svg
   version="1.1"
   id="Layer_1"
   x="0px"
   y="0px"
   width="5"
   height="5"
   viewBox="0 0 5 5"
   enable-background="new 0 0 50 50"
   xml:space="preserve"
   sodipodi:docname="CSS3.svg"
   inkscape:version="1.4 (1:1.4+202410161351+e7c3feb100)"
   xmlns:inkscape="http://www.inkscape.org/namespaces/inkscape"
   xmlns:sodipodi="http://sodipodi.sourceforge.net/DTD/sodipodi-0.dtd"
   xmlns="http://www.w3.org/2000/svg"
   xmlns:svg="http://www.w3.org/2000/svg"><sodipodi:namedview
   id="namedview1"
   pagecolor="#505050"
   bordercolor="#eeeeee"
   borderopacity="1"
   inkscape:showpageshadow="0"
   inkscape:pageopacity="0"
   inkscape:pagecheckerboard="0"
   inkscape:deskcolor="#505050"
   inkscape:zoom="16.98"
   inkscape:cx="25.029446"
   inkscape:cy="20.288575"
   inkscape:window-width="1920"
   inkscape:window-height="1051"
   inkscape:window-x="0"
   inkscape:window-y="0"
   inkscape:window-maximized="1"
   inkscape:current-layer="Layer_1" /><defs
   id="defs1" />

<g
   id="g1"
   transform="matrix(0.10001,0,0,0.10001,-3.00005e-4,-1.99995e-4)"><path
     fill="#264de4"
     d="M 24.975,49.997 6.971,45 2.959,0.002 h 44.083 l -4.017,44.991 z"
     id="path1" /><polygon
     fill="#ffffff"
     points="32.758,14.72 32.254,20.371 31.777,20.371 25.001,20.371 24.982,20.371 16.375,20.371 12.156,20.371 12.65,25.891 16.375,25.891 24.982,25.891 25.001,25.891 31.777,25.891 31.137,33.047 28.388,33.789 28.388,33.789 25.001,34.704 25.001,34.703 24.981,34.709 22.536,34.051 18.831,33.05 18.438,28.65 12.897,28.65 13.67,37.314 24.975,40.455 25,40.445 25,40.444 36.295,37.313 36.377,36.379 37.674,21.852 37.811,20.371 38.807,9.201 30.542,9.201 25.001,9.201 25.001,9.2 11.162,9.2 11.663,14.719 21.75,14.719 21.75,14.72 24.982,14.72 30.542,14.72 "
     id="polygon1" /></g>
</svg>
