<?xml version="1.0" encoding="UTF-8" standalone="no"?>
<!-- Created with Inkscape (http://www.inkscape.org/) -->

<svg
   width="5"
   height="5"
   viewBox="0 0 1.3229166 1.3229167"
   version="1.1"
   id="svg1"
   inkscape:version="1.4 (1:1.4+202410161351+e7c3feb100)"
   sodipodi:docname="Firebase.svg"
   xmlns:inkscape="http://www.inkscape.org/namespaces/inkscape"
   xmlns:sodipodi="http://sodipodi.sourceforge.net/DTD/sodipodi-0.dtd"
   xmlns="http://www.w3.org/2000/svg"
   xmlns:svg="http://www.w3.org/2000/svg">
  <sodipodi:namedview
     id="namedview1"
     pagecolor="#505050"
     bordercolor="#ffffff"
     borderopacity="1"
     inkscape:showpageshadow="0"
     inkscape:pageopacity="0"
     inkscape:pagecheckerboard="1"
     inkscape:deskcolor="#505050"
     inkscape:document-units="px"
     inkscape:zoom="4.2482356"
     inkscape:cx="7.7679308"
     inkscape:cy="34.720297"
     inkscape:window-width="1920"
     inkscape:window-height="1051"
     inkscape:window-x="0"
     inkscape:window-y="0"
     inkscape:window-maximized="1"
     inkscape:current-layer="layer1" />
  <defs
     id="defs1" />
  <g
     inkscape:label="Layer 1"
     inkscape:groupmode="layer"
     id="layer1">
    <g
       id="g1"
       transform="matrix(0.09981377,0,0,0.09981377,0.00123186,0.0012318)">
      <path
         class="st0"
         d="M 8.110687,4.773524 6.78404,6.008864 5.554071,3.527443 6.187854,2.098745 c 0.160594,-0.284665 0.423238,-0.288424 0.585444,0 z"
         style="fill:#ffa000;stroke-width:0.264792"
         id="path1" />
      <path
         class="st1"
         d="M 6.789411,6.008864 1.83194,10.617217 5.559443,3.527443 Z"
         style="fill:#f57f17;stroke-width:0.264792"
         id="path2" />
      <path
         class="st2"
         d="m 9.566239,2.888289 c 0.2374,-0.226121 0.481782,-0.149852 0.542475,0.171336 l 1.28905,7.497974 -4.275349,2.567358 c -0.149852,0.08379 -0.547846,0.116551 -0.547846,0.116551 0,0 -0.361471,-0.04404 -0.500044,-0.120311 L 1.831402,10.623663 Z"
         style="fill:#ffca28;stroke-width:0.264792"
         id="path3" />
      <path
         class="st0"
         d="M 5.559443,3.527443 1.83194,10.617217 3.491592,0.251107 c 0.0623,-0.321188 0.244383,-0.353951 0.408736,-0.06929 z"
         style="fill:#ffa000;stroke-width:0.264792"
         id="path4" />
    </g>
  </g>
</svg>
