<?xml version="1.0" encoding="UTF-8" standalone="no"?>
<!-- Created with Inkscape (http://www.inkscape.org/) -->

<svg
   width="5"
   height="5"
   id="svg2"
   version="1.1"
   sodipodi:docname="Flask.svg"
   inkscape:version="1.4 (1:1.4+202410161351+e7c3feb100)"
   xmlns:inkscape="http://www.inkscape.org/namespaces/inkscape"
   xmlns:sodipodi="http://sodipodi.sourceforge.net/DTD/sodipodi-0.dtd"
   xmlns="http://www.w3.org/2000/svg"
   xmlns:svg="http://www.w3.org/2000/svg"
   xmlns:rdf="http://www.w3.org/1999/02/22-rdf-syntax-ns#"
   xmlns:cc="http://creativecommons.org/ns#"
   xmlns:dc="http://purl.org/dc/elements/1.1/">
  <sodipodi:namedview
     id="namedview1"
     pagecolor="#505050"
     bordercolor="#eeeeee"
     borderopacity="1"
     inkscape:showpageshadow="0"
     inkscape:pageopacity="0"
     inkscape:pagecheckerboard="0"
     inkscape:deskcolor="#505050"
     inkscape:zoom="16.98"
     inkscape:cx="25.029446"
     inkscape:cy="25"
     inkscape:window-width="1920"
     inkscape:window-height="1051"
     inkscape:window-x="0"
     inkscape:window-y="0"
     inkscape:window-maximized="1"
     inkscape:current-layer="svg2" />
  <defs
     id="defs4" />
  <metadata
     id="metadata7">
    <rdf:RDF>
      <cc:Work
         rdf:about="">
        <dc:format>image/svg+xml</dc:format>
        <dc:type
           rdf:resource="http://purl.org/dc/dcmitype/StillImage" />
      </cc:Work>
    </rdf:RDF>
  </metadata>
  <g
     id="layer1"
     transform="matrix(0.1,0,0,0.1,-2.7820801,-2.4714976)">
    <path
       style="fill:#f9f9f9;stroke-width:0.297357"
       d="M 42.76232,67.130542 C 40.857561,65.632395 38.82571,64.196 37.437276,62.173385 34.515762,58.606546 32.266334,54.476924 30.728533,50.137198 c -0.929495,-2.821895 -1.247832,-5.847313 -2.446075,-8.560166 -1.253482,-1.970361 0.214802,-4.124289 2.373083,-4.750606 0.960912,-0.184428 2.650497,-1.090782 0.610997,-0.442966 -1.828476,1.34152 -2.005433,-1.21773 -0.130474,-1.379786 1.27957,-0.170081 1.75061,-1.217584 1.313035,-2.160571 -1.37355,-0.89571 3.330666,-1.880112 0.963693,-3.216641 -2.465745,-2.660263 3.44905,-3.172371 1.989779,-0.151127 -0.349303,2.323213 4.133006,-0.425799 3.093005,2.257007 1.057047,1.288377 3.95837,0.293238 3.886393,2.10071 1.539842,0.105849 2.068321,1.401467 3.513825,1.500936 1.498124,0.676546 4.213978,1.209671 4.723763,2.897888 -1.486306,1.176705 -4.928065,-2.430613 -5.093414,0.826641 0.448995,4.811721 0.334605,9.768422 2.095078,14.350618 0.832692,2.774545 2.851343,4.958644 4.674401,7.119585 1.744295,2.11637 4.107017,3.6062 6.51522,4.860713 2.112498,0.996292 4.390018,1.65707 6.692287,2.071688 0.933806,-0.714248 2.582414,-3.369654 4.039148,-2.249928 0.06911,1.258135 -2.891336,2.630041 -0.139277,2.490991 1.615982,-0.487495 2.73682,1.249752 4.067554,-0.317249 1.22599,1.452212 5.095748,-0.92785 4.223427,2.040487 -1.179573,0.761029 -2.899912,0.30117 -4.081429,1.348086 -1.948003,-0.972957 -3.498895,0.870593 -5.655474,0.637446 -2.394974,0.428966 -4.831476,0.602127 -7.259593,0.605888 -3.98347,-0.314732 -8.051304,-0.447399 -11.840844,-1.834313 -2.134786,-0.620325 -4.218084,-1.835872 -6.094321,-3.051987 z m 3.364227,1.457662 c 2.084547,0.901477 4.122855,1.851572 6.407375,2.13816 3.624422,0.504103 7.367303,1.279467 11.004716,0.572186 -1.646246,-0.743357 -3.3482,0.2896 -4.988246,-0.531546 -1.967034,0.423263 -4.077884,-0.107825 -6.077595,-0.369298 -2.274008,-1.012924 -4.72805,-1.709438 -6.857566,-3.024234 -2.660915,-0.971909 1.376188,1.246407 2.094781,1.426074 1.663412,0.944159 -1.829217,-0.484004 -2.321598,-0.876496 -1.393206,-0.781523 -1.570758,-0.618223 -0.137961,0.175468 0.288587,0.168908 0.573761,0.345854 0.876094,0.489686 z m -3.966516,-2.803139 c 2.019989,0.748204 -0.0089,-1.420498 -0.934547,-1.294484 -0.410105,-0.711489 -1.566837,-1.160955 -0.750873,-1.543146 -1.467763,0.50955 -1.537546,-1.93769 -2.227466,-1.588048 -1.552769,-0.490308 -0.604338,-2.227207 -2.453959,-3.293834 -0.168835,-1.123924 -1.837677,-2.098757 -2.369965,-3.794026 -0.235088,-0.867976 -1.885429,-3.36051 -0.871622,-1.040828 0.863207,2.23308 2.381949,4.145447 3.645834,6.055626 0.981404,1.818717 2.140233,3.719484 3.92756,4.854043 0.602492,0.577957 1.184211,1.463528 2.035038,1.644697 z m -5.81916,-6.388979 c 0.07051,-0.305048 0.369436,0.660242 0,0 z m 8.238275,7.285888 c 0.447305,-0.200297 -0.643214,-0.252344 0,0 z m 1.096542,0.399992 c -0.113567,-0.552316 -0.500567,0.308836 0,0 z m 1.372545,0.572536 c 0.653456,-0.62218 -1.007037,-0.392298 0,0 z m 2.352462,1.311145 c 0.39708,-0.58692 -1.270857,-0.221496 0,0 z m -4.517363,-3.149035 c 1.014942,-0.656582 -1.310914,-0.0091 0,0 z m 1.029667,0.513427 c -0.02878,-0.347115 -0.366965,0.155453 0,0 z m 5.146166,3.212001 c 0.827272,0.522081 4.830956,1.144309 2.323923,0.214083 -0.419486,0.08843 -4.64865,-1.196218 -2.323923,-0.214083 z m -8.169716,-6.362803 c -0.08043,-0.348126 -1.284098,-0.384341 0,0 z m 2.395729,1.396252 c 0.623489,-0.43486 -1.294098,-0.335414 0,0 z m 2.015143,1.235574 c 0.894715,-0.337317 -1.451426,-0.338908 0,0 z m -5.385722,-3.693549 c 0.970755,0.74446 3.914982,0.0954 1.486661,-0.444411 -1.105236,-0.589144 -3.596192,-0.992406 -1.898307,0.355257 l 0.411643,0.08916 z m 6.75059,4.120172 c 0.404361,-0.688926 -1.695703,-0.39342 0,0 z m -2.051301,-1.630279 c 2.373733,0.671483 -1.996091,-1.501106 -0.585665,-0.247087 l 0.312601,0.14146 0.273067,0.105645 z m 4.112685,2.377028 c 2.248061,0.02144 -2.030518,-0.309915 0,3e-6 z m -9.676946,-6.167569 c -0.08781,-0.418743 -0.554764,0.0351 0,0 z m 13.479718,8.300689 c 0.05995,-0.756286 -0.733646,0.562769 0,0 z m -9.643324,-5.951327 c -0.135976,-0.398231 -0.70242,-0.01627 0,0 z m -3.623195,-2.61209 c 1.29061,-0.0775 -1.766938,-0.568682 0,0 z m -4.292159,-2.774405 c -0.160637,-0.61869 -1.404384,-1.112135 0,0 z m 11.267929,7.150962 c -0.236382,-0.269594 -0.111191,0.05897 0,0 z m 7.013552,4.303942 c -0.02248,-0.411969 -0.381983,0.155935 0,0 z M 47.6179,64.289728 c 0.126243,-0.530794 -1.100502,-0.160711 0,0 z m -5.224986,-3.31137 c 0.960139,-0.102805 -1.5381,-0.649094 0,0 z m 8.838544,5.492061 c 1.496247,-0.592769 -1.458319,-0.289377 0,0 z m -4.597433,-3.120816 c 1.724422,0.222332 -2.051806,-1.172912 -0.378353,-0.124846 l 0.37835,0.124855 z m 5.993167,3.685047 c 1.609951,-0.962486 1.079172,2.253821 2.731375,0.271711 1.629758,-1.189959 -1.407432,1.471159 0.601169,0.212168 1.452609,-0.97154 3.598165,0.460546 4.953592,0.927814 0.974737,-0.04788 1.922323,0.842847 2.92158,0.300951 1.923584,-0.518108 -3.761519,-0.768442 -2.27126,-1.687678 -1.76009,0.512265 -3.060521,-0.610705 -3.926607,-1.738103 -1.974304,-0.455898 -4.257054,-1.465271 -5.242383,-3.212468 -0.401734,-0.656002 0.580366,0.09242 -0.346794,-0.979911 -1.189674,-1.05814 -1.783719,-2.259286 -2.582348,-3.54553 -0.954061,-0.508967 -1.065207,-2.007085 -1.161658,-0.05022 0.0076,-1.235003 -1.151901,-2.066247 -1.434903,-1.720711 -0.0051,-1.189379 1.240844,-0.593188 0.368659,-1.473192 -0.187725,-1.232749 -0.805832,-2.517301 -0.991621,-3.909128 -0.28866,-0.670913 -0.04065,-2.107834 -0.985205,-0.589049 -0.344127,1.605128 -0.11422,-1.972518 0.420932,-0.792752 0.702408,-1.203843 -0.252172,-1.062257 -0.291279,-0.895095 0.457553,-1.015733 0.2896,-2.456486 -0.119387,-1.90685 0.24381,-1.076554 0.385174,-3.962023 -0.364906,-3.450682 0.454682,-1.125753 0.862288,-5.151229 -1.111538,-3.616446 -0.799951,0.01123 -2.185233,0.290385 -2.840052,0.616043 2.053134,1.131743 -0.206515,0.408712 -1.042276,0.228835 -0.1089,1.047203 -0.936704,0.594293 -1.970904,0.60456 1.651837,0.204369 -0.804371,1.689421 -1.75198,1.112557 -1.230677,0.58819 1.062106,2.056413 0.02469,2.510367 0.127494,0.684399 -1.885401,-0.247152 -1.727314,1.333369 -1.194749,-0.502605 -0.164512,1.874869 0.433219,1.070789 2.032047,0.549964 1.430512,1.803816 1.48226,2.99487 -0.331094,0.694029 -1.634633,-1.631342 -0.290318,-1.523647 -1.060561,-1.722843 -1.173168,-0.62273 -2.054459,0.177631 -0.205028,0.05812 2.247971,1.138778 0.708587,1.673135 1.35434,0.208974 1.392872,1.394149 1.668581,2.144119 0.814032,0.847861 0.647426,-0.936211 1.621444,0.08271 -0.616369,-0.907751 -3.264777,-2.557659 -1.132452,-2.028494 -0.0114,-0.913614 -0.385651,-1.650331 0.267636,-1.632459 0.64694,-1.171605 -0.677547,2.888696 0.780692,1.399684 0.403665,-0.176263 0.503648,-1.173091 1.229223,0.09414 1.05386,1.036736 0.38066,1.787979 -1.105928,0.838695 0.265964,0.902248 1.988675,1.224679 1.664936,2.635623 0.343196,1.240956 0.823357,0.783887 1.241897,0.712143 0.328321,1.205734 0.514759,0.319134 0.530334,-0.254642 1.503292,0.321807 1.151173,1.210438 1.621544,1.831286 1.035896,0.467572 -1.482717,-3.169387 0.295738,-1.093609 1.871106,1.689328 0.701718,2.39451 -0.977421,2.123875 1.062762,-0.08586 1.405485,1.436775 2.734816,1.383281 1.212226,0.576684 2.032958,2.791631 -0.05653,1.869595 -0.724721,-0.653439 -3.289338,-1.459544 -1.194636,-0.216635 1.934664,0.895911 3.471236,1.431875 5.337143,2.556469 1.335367,0.953301 1.912292,2.045176 2.418423,2.261314 -1.122322,0.53606 -3.382231,-0.428059 -1.704115,-0.723529 -1.046688,-0.190663 -2.223953,-0.719972 -1.221392,0.584149 0.852498,0.71178 3.020281,0.636373 3.408889,0.717025 -0.329398,0.725804 -0.894727,0.783524 0.0135,0.839817 -1.013227,0.539967 0.324903,0.623575 0.4188,0.932111 z m -2.071969,-5.851132 c -0.616456,-0.644685 -0.775846,-1.852212 -0.109469,-0.801497 0.341727,0.137234 1.0947,1.973302 0.109484,0.801497 z m 6.747611,4.286204 c 0.384508,-0.02489 0.01118,0.292116 0,0 z m -7.720971,-5.866946 c -0.02364,-0.974677 0.22298,0.751781 0,0 z m -0.670625,-0.902297 c -0.775391,-1.498195 0.977514,0.424285 0,0 z m -8.126924,-5.609193 c 0.455537,-0.121486 0.224118,0.779099 0,0 z m 6.46799,3.505868 c 0.27976,-1.050576 0.328765,0.881503 0,0 z m -4.569438,-3.177323 c -0.322126,-0.579721 0.673786,0.543699 0,0 z m 3.921548,1.257117 c -0.7346,-1.645812 0.520082,-0.898988 0.162524,0.269734 z m -6.762741,-4.510064 c -0.328425,-0.53995 -0.8717,-2.124242 -0.696798,-2.607889 0.158228,0.787669 1.675023,3.389736 0.744033,1.077887 -1.028826,-1.937935 1.229815,0.629035 1.462147,1.1124 0.108188,0.48085 -0.634757,-0.13137 -0.131355,0.996103 -0.918034,-1.283661 -0.541948,0.709066 -1.378027,-0.578501 z m -2.090067,-1.440197 c 0.08604,-1.255449 0.478466,0.860885 0,0 z m 0.940132,0.323627 c 0.448625,-0.947593 0.760686,1.321027 0,0 z m -2.26151,-1.749452 c -0.778137,-0.773236 -1.341242,-1.48602 0.03641,-0.479899 0.530836,0.02072 -1.179385,-1.620915 0.127839,-0.521307 1.374592,0.250634 0.678781,2.253814 -0.164246,1.001206 z m 1.187942,-0.03106 c 0.451887,-0.447802 0.239898,0.440811 0,0 z m 0.730959,0.234334 c -0.68508,-1.284114 0.831454,0.538353 0,0 z m -1.4531,-1.388658 c -2.262106,-2.013117 2.842479,1.05266 0.369562,0.373224 l -0.369576,-0.373201 z m 6.481275,3.765759 c -0.978899,-0.586941 -0.259411,-4.132025 0.07442,-1.707441 0.951641,-0.307846 -0.05254,1.252173 0.65725,1.237733 -0.111863,0.984275 -0.429404,1.33814 -0.731665,0.469708 z m 2.397272,1.416841 c 0.09601,-1.068381 0.202055,0.730445 0,0 z m -0.416401,-0.411421 c 0.107779,-0.456418 0.01114,0.537478 0,0 z m -8.018396,-5.43269 c -1.453253,-2.005047 4.223531,2.028189 0.930784,0.508556 -0.344068,-0.08999 -0.758062,-0.122118 -0.930784,-0.508556 z m 4.616343,2.447567 c -0.137524,-1.688283 0.307118,0.279849 -5e-5,-5e-6 z m 3.504873,2.248353 c 0.271234,-0.961682 0.02022,0.636174 0,0 z M 37.562399,44.68874 c 0.863724,-0.184739 3.579401,1.516903 1.085543,0.486067 -0.277099,-0.306757 -0.867813,-0.167384 -1.085543,-0.486067 z m 7.417057,3.696693 c 0.09232,-1.726317 0.515639,-1.031165 0.0032,0.247108 l -0.0032,-0.247105 -1.3e-5,-3e-6 z m -6.774114,-4.297402 c 0.35192,-0.516222 -0.934204,-2.333937 0.185394,-0.652022 0.483771,0.384393 1.400693,0.643956 0.591135,0.805669 1.273219,1.123191 -0.310538,0.304357 -0.776529,-0.153647 z m 6.407263,3.75817 c 0.243127,-1.966538 0.214405,1.152144 0,0 z M 37.470348,42.27169 c 0.268809,-0.114879 0.141962,0.358167 0,0 z m 1.671284,0.994746 c 0.430118,-0.902526 0.793452,1.00657 0,0 z m 4.714283,2.622497 c -0.0045,-0.346623 0.08894,0.5042 0,0 z M 43.582834,45.28436 c -0.654328,-1.61427 0.608637,0.854679 0,0 z m -0.401761,-1.058379 c -0.109831,-0.667033 0.373283,0.83801 -1.9e-5,-2e-6 z m 0.653847,-1.062862 c -0.449006,-0.791258 0.567007,-3.486907 0.680381,-1.81509 -0.473912,1.302647 -0.136714,2.031374 0.193893,0.284158 0.610531,-1.375075 -0.131882,2.713462 -0.874285,1.530939 z m 0.671924,-4.008874 c 0.195736,-0.240356 0.04344,0.289571 0,0 z M 43.384738,61.26522 c -0.266153,-0.232272 0.03342,0.147799 0,0 z m 2.311616,1.169352 c 1.285838,0.329922 1.279264,-0.200059 0.117134,-0.357511 -0.625082,-0.581495 -2.597439,-1.198279 -0.83208,-0.07215 0.116915,0.29616 0.486359,0.289259 0.714946,0.429665 z m -4.56536,-3.032286 c 0.708375,0.528242 2.668254,1.497118 1.009156,0.201058 0.559375,-0.649897 -1.070662,-0.995826 -0.529942,-1.430554 -1.375341,-0.841592 -1.084951,-0.766727 -0.121394,-0.74025 -1.652913,-0.738813 0.238587,-0.683549 0.149525,-1.062119 -0.637351,-0.125877 -3.165709,-1.123838 -1.678287,0.08198 -1.512063,-0.770958 -0.36033,0.287192 -0.817352,0.175322 -1.546182,-0.421582 1.376967,1.177616 -0.245566,0.780628 0.887044,0.702949 2.38762,1.800575 0.375024,0.743901 -0.265176,0.381707 1.440234,0.960289 1.858836,1.250034 z m 2.417672,1.38893 c 2.939638,0.947282 -1.441213,-1.157309 0,0 z m 12.376187,7.497507 c 0.03792,-0.583191 -0.40177,0.497495 0,0 z m 1.272042,0.535364 c 0.678223,-0.657189 0.02771,1.046828 1.123814,-0.160886 0.01187,-0.864578 -0.03375,-1.375249 -1.259588,-0.324995 -0.337921,0.187404 -0.488783,0.984226 0.135774,0.485881 z M 37.004668,56.14299 c -0.208296,-0.818797 -1.460028,-0.814554 0,0 z m 1.358301,0.890079 c -0.504396,-0.836317 -1.799686,-0.757142 0,0 z m 7.727434,4.660249 c 0.754452,0.67012 3.465075,0.491696 0.916333,0.08246 -0.377487,-0.558138 -2.396996,-0.42381 -0.916333,-0.08246 z m 10.622663,6.560385 c 1.161163,-0.974351 -1.125037,0.434672 0,0 z m 2.414953,1.659541 c 0.0073,-0.312678 -0.500504,0.136898 0,0 z m 0.0037,-0.43775 c 1.285845,-1.362388 -1.245943,0.08058 -9e-6,0 z M 33.663845,53.346107 c -1.095932,-1.563688 -0.681262,-2.266551 -1.738117,-3.543324 -0.200073,-0.976359 -1.813065,-3.191915 -0.834274,-0.844709 0.896515,1.372773 1.16292,3.498224 2.572391,4.388033 z m 25.064563,15.696297 c 2.365648,-1.529028 -0.97105,-0.666044 0,0 z m 1.805854,0.707424 c 1.184645,-1.017129 -0.749352,-0.212739 0,0 z M 36.602049,54.414586 c 0.339038,-0.504391 -0.875617,-0.06452 0,0 z m 23.555154,14.852231 c 1.147017,-0.739556 -0.264274,-0.62601 -0.207898,0.06802 l 0.207901,-0.06802 z m -15.566585,-9.81167 c -0.03943,-0.499383 -0.605711,0.04239 0,0 z m 0.96201,0.553541 c -0.305735,-0.618118 -0.470069,0.0971 0,0 z m 16.445079,9.757911 c 1.469473,-1.060067 -0.890778,-0.202956 -0.308452,0.200842 z m -0.562703,-0.27197 c 1.197075,-1.003105 -1.263826,0.444536 0,0 z M 64.31,71.409224 c 0.80373,-0.538338 -0.976453,-0.174136 0,0 z M 37.339173,54.050867 c 1.077366,0.241386 4.305419,2.653262 2.401002,0.166803 -0.975363,-0.288723 -0.390409,-2.672921 -1.385289,-2.250951 0.667762,1.115539 0.549402,1.590346 -0.852599,0.887064 -1.762096,-0.860156 -0.990246,0.426269 -0.645875,0.780809 -0.469291,0.106644 0.620747,0.407306 0.482761,0.416275 z m -4.908448,-3.876421 c 0.192878,-0.797745 -1.77596,-4.388708 -0.929714,-1.799331 0.305468,0.542408 0.274411,1.570386 0.929714,1.799331 z m 9.00911,5.554309 c -0.554771,-0.463953 -0.02636,-0.06566 0,0 z m 1.366139,0.317923 c -7.13e-4,-0.845053 -1.510067,-0.343157 0,0 z m 11.838695,7.463216 c -0.225796,-0.577372 -0.892527,-0.01338 2.1e-5,9e-6 z m 0.56851,0.415278 c -0.08393,-0.323151 -0.327998,0.06238 0,0 z m 4.692468,2.955682 c 0.451315,-0.333419 -0.563191,-0.04258 0,0 z M 34.882529,50.800376 c 1.290874,-0.499773 -1.383077,-0.356372 0,0 z m 18.719947,11.793681 c -0.01436,-0.835689 -0.822933,0.207327 0,0 z M 34.372507,49.611875 c 0.829196,-0.28009 -0.767074,-0.184484 0,0 z m 2.406774,1.165854 c -0.01504,-0.274679 -0.254588,0.103962 0,0 z M 66.13479,68.778924 c 1.066261,-0.216183 3.496058,0.542711 3.888785,-0.282714 -1.294849,-0.03144 -4.479868,-0.91354 -4.63056,0.210503 l 0.28345,0.04466 0.458325,0.02756 z M 37.544214,50.970494 c 0.01854,-0.846822 -0.660358,-0.03163 0,0 z m -6.32802,-4.389617 c -0.28738,-1.613429 -1.093015,-0.244186 0,0 z m 1.509004,0.3793 c 0.01854,-0.518077 -1.381196,-0.466167 0,0 z m 0.862349,0.42353 c -0.249274,-0.201916 -0.195115,0.255078 0,0 z m 5.426038,3.480806 c 0.255446,-0.234666 -0.604763,-0.173821 0,0 z M 33.013181,46.42851 c -0.145853,-1.218612 -1.747759,-0.182584 0,0 z m -3.093697,-2.007363 c -0.044,-0.562409 -0.301484,0.212155 0,0 z m 0.460175,-0.347531 c -0.07508,-0.666875 -0.395093,0.08485 0,0 z m 2.542594,1.5177 c 1.075148,-0.422331 -1.958384,-0.873576 -0.219685,-0.07979 z M 66.950886,66.61024 c 0.68815,-0.630914 -0.874593,-0.195064 0,0 z m 4.110894,2.130925 c 0.275773,-0.815707 -0.694322,0.107394 0,0 z M 33.1821,44.258658 c 0.113261,-0.789074 -0.852369,0.156681 0,0 z M 29.564608,41.83497 c -0.194332,-1.114023 -0.167751,-3.069451 1.691035,-2.408618 -2.481171,0.49261 1.717246,3.083845 1.187064,1.037974 1.043274,0.05108 2.040884,-0.616577 1.493386,0.396634 2.055556,-0.227025 3.480644,-2.009482 5.466175,-1.759708 1.546633,-0.204671 3.237666,-0.359898 4.904361,-0.982469 1.370338,-0.09872 2.689477,-1.574099 1.938356,-2.448586 -1.868749,-0.158117 -3.824929,0.0757 -5.890415,0.486243 -2.288816,0.475813 -4.367833,1.379822 -6.677196,1.767865 -2.250977,0.302376 0.452764,0.833119 -0.192006,0.951362 -1.174593,0.407549 1.400794,0.682377 -0.152277,1.112013 -0.959148,-0.182371 -1.957498,-0.511925 -1.547793,-1.522691 -2.156238,0.279799 -4.050953,1.17471 -2.347394,3.368961 l 0.126701,9.82e-4 3e-6,-6.7e-5 z m 5.19575,-2.646174 c 0.505563,-1.862445 2.708539,1.532566 0.828643,0.24738 -0.224539,-0.168043 -0.593824,-0.305136 -0.828643,-0.24738 z m 0.09836,-0.902965 c 0.72967,-0.543593 0.387887,0.304762 0,0 z m 0.926509,0.0147 c 0.06587,-0.857004 2.120944,0.453693 0.338859,0.308512 z m 1.267383,-0.509574 c 0.462829,-0.54079 0.133035,0.481029 0,0 z m 0.324223,-0.21711 c 0.770661,-0.925987 4.364327,-0.590977 1.733888,-0.09029 -0.705053,-0.530805 -1.245507,0.312979 -1.733888,0.09029 z m 4.689817,-0.722929 c -0.117232,-2.529366 2.329937,0.898853 0,0 z m 1.330709,-0.0073 c 0.486511,-1.27483 1.887976,-0.511557 0.225135,-0.256176 0.03611,0.135661 -0.04876,0.658136 -0.225135,0.256176 z m -10.739996,6.760667 c 1.453641,-0.890152 -1.543203,-0.772273 0,0 z m 1.074816,0.298669 c 0.509658,-0.541927 -1.107417,-0.219809 0,0 z m -3.166908,-2.247588 c 0.830609,-0.63806 -0.98291,-0.242592 0,0 z m 42.923005,26.852633 c 0.024,-0.740271 -0.63486,0.333588 0,0 z m -4.36152,-2.97641 c 0.124026,-0.852286 -0.56049,0.07431 0,0 z m 5.560876,3.26344 c 1.16132,0.0039 3.518705,-0.36065 0.991888,-0.359497 -0.396512,0.06184 -2.31041,0.04858 -0.991885,0.359492 z M 34.677607,43.380581 c 0.939861,-0.06456 1.470467,-1.036736 -0.181768,-0.980853 -2.560682,-0.265104 2.259246,0.876791 -0.328496,0.550283 -0.347713,0.230265 0.490065,0.49428 0.510264,0.43057 z m 0.827745,0.418957 c -0.09813,-0.603441 -0.290637,0.320569 0,0 z m 0.981877,-2.618213 c 0.40785,-0.505876 -0.564372,-0.135242 0,0 z m -3.125701,-5.224773 c 1.677368,-0.570633 3.971142,-1.211841 4.763138,0.280966 -0.806027,-0.970116 -0.325281,-1.92514 0.436014,-0.506753 1.07648,1.435106 1.615387,-0.652726 0.915229,-1.134087 0.797888,0.991386 1.705398,1.459853 0.534223,0.06266 1.272682,-1.530906 -2.548327,0.20047 -3.416817,0.183035 -0.417862,0.187556 -4.314098,0.993646 -3.231787,1.114178 z m 0.983033,-1.882683 c 0.956618,-0.72202 3.308493,0.429483 1.799307,-0.717561 -0.147551,-0.130334 -3.305122,0.869819 -1.799307,0.717561 z m 3.487538,0.143984 c 1.119589,0.02857 -0.482928,-1.504059 0.851204,-0.809577 -0.21911,-0.715799 -1.553304,-0.849805 -2.205577,-1.135786 -0.368927,0.654443 0.75094,1.954159 1.354373,1.945363 z m -2.87601,-3.165812 c 0.387322,-0.525062 -0.678809,0.266192 0,0 z m 1.425407,0.34117 c 1.804222,-0.239304 -0.459904,-0.776982 -0.36356,-0.01923 l 0.36356,0.01923 v -2e-6 z m -2.661526,-2.08258 c -1.270373,-1.658359 2.389107,0.278765 1.098408,-1.457594 -1.086335,-0.865051 -2.130242,0.973476 -1.098408,1.457594 z m 16.303211,8.781381 c 0.582662,-1.032906 -2.405579,-1.392299 -0.392578,-0.366077 0.185337,0.06193 0.143392,0.437516 0.392578,0.366077 z"
       id="path2900" />
    <g
       style="font-style:normal;font-weight:normal;font-size:40px;font-family:'Bitstream Vera Sans';fill:#000000;fill-opacity:1;stroke:none"
       id="text3850" />
    <g
       style="font-style:normal;font-weight:normal;font-size:40px;line-height:90%;font-family:'Bitstream Vera Sans';fill:#000000;fill-opacity:1;stroke:none"
       id="text2870"
       transform="translate(0,4)" />
  </g>
</svg>
