<?xml version="1.0" encoding="UTF-8" standalone="no"?>
<!-- Created with Inkscape (http://www.inkscape.org/) -->

<svg
   width="5"
   height="5"
   viewBox="0 0 1.3229166 1.3229167"
   version="1.1"
   id="svg65093"
   sodipodi:docname="github.svg"
   inkscape:version="1.4 (1:1.4+202410161351+e7c3feb100)"
   xml:space="preserve"
   xmlns:inkscape="http://www.inkscape.org/namespaces/inkscape"
   xmlns:sodipodi="http://sodipodi.sourceforge.net/DTD/sodipodi-0.dtd"
   xmlns="http://www.w3.org/2000/svg"
   xmlns:svg="http://www.w3.org/2000/svg"><sodipodi:namedview
     id="namedview65095"
     pagecolor="#ffffff"
     bordercolor="#000000"
     borderopacity="0.25"
     inkscape:showpageshadow="2"
     inkscape:pageopacity="0.0"
     inkscape:pagecheckerboard="0"
     inkscape:deskcolor="#d1d1d1"
     inkscape:document-units="px"
     showgrid="false"
     inkscape:zoom="22.463748"
     inkscape:cx="2.0032276"
     inkscape:cy="19.876469"
     inkscape:window-width="1920"
     inkscape:window-height="1051"
     inkscape:window-x="0"
     inkscape:window-y="0"
     inkscape:window-maximized="1"
     inkscape:current-layer="layer1" /><defs
     id="defs65090" /><g
     inkscape:label="Layer 1"
     inkscape:groupmode="layer"
     id="layer1"><path
       d="M 0.66100486,-3.0535099e-8 C 0.29622769,-3.0535099e-8 0,0.30361885 0,0.67749767 0,0.97704238 0.18942837,1.2316141 0.4520392,1.321906 0.4849708,1.327146 0.4960639,1.305938 0.4960639,1.287943 c 0,-0.015794 0,-0.058205 0,-0.1145481 -0.18379315,0.04041 -0.22254062,-0.090966 -0.22254062,-0.090966 -0.030443,-0.078751 -0.0730223,-0.0992823 -0.0730223,-0.0992823 -0.0602723,-0.0424327 0.004705,-0.0412237 0.004705,-0.0412237 0.0658973,0.004822 0.10083686,0.0695751 0.10083686,0.0695751 0.0576235,0.1035275 0.1553172,0.072982 0.19273509,0.056517 0.005966,-0.043778 0.0233862,-0.0736562 0.0413997,-0.0909661 -0.14670624,-0.0164569 -0.30070072,-0.0748403 -0.30070072,-0.333315 0,-0.0750154 0.0251589,-0.13526474 0.0678882,-0.18380168 -0.006477,-0.0164573 -0.0297953,-0.0874022 0.007125,-0.17887846 0,0 0.0549747,-0.0179948 0.18180907,0.0689042 0.0523257,-0.0145705 0.10928788,-0.0218732 0.1649239,-0.0218732 0.056294,0 0.11309245,0.007303 0.1655819,0.0218732 0.12616969,-0.0868955 0.18180892,-0.0689042 0.18180892,-0.0689042 0.036753,0.0914763 0.013568,0.16241761 0.00695,0.17887846 0.042712,0.0485369 0.068055,0.10878623 0.068055,0.18380168 0,0.25915258 -0.15465247,0.31617678 -0.3021833,0.33263761 0.023318,0.0212095 0.0453849,0.0624541 0.0453849,0.1254182 0,0.090799 0,0.1642872 0,0.1861779 0,0.017995 0.0102954,0.039878 0.0445429,0.033963 C 1.133986,1.2309642 1.3229166,0.97707033 1.3229166,0.67752562 1.3229166,0.3036468 1.0266889,2.7924464e-5 0.66124691,2.7924464e-5 Z"
       style="fill:#800080;fill-opacity:1;fill-rule:nonzero;stroke:none;stroke-width:0.0357151"
       id="path584" /></g></svg>
