<?xml version="1.0" encoding="UTF-8" standalone="no"?>
<svg
   version="1.1"
   id="Layer_1"
   x="0px"
   y="0px"
   width="5"
   height="5"
   viewBox="0 0 5 5"
   enable-background="new 0 0 50 50"
   xml:space="preserve"
   sodipodi:docname="HTML5.svg"
   inkscape:version="1.4 (1:1.4+202410161351+e7c3feb100)"
   xmlns:inkscape="http://www.inkscape.org/namespaces/inkscape"
   xmlns:sodipodi="http://sodipodi.sourceforge.net/DTD/sodipodi-0.dtd"
   xmlns="http://www.w3.org/2000/svg"
   xmlns:svg="http://www.w3.org/2000/svg"><defs
   id="defs1" /><sodipodi:namedview
   id="namedview1"
   pagecolor="#505050"
   bordercolor="#eeeeee"
   borderopacity="1"
   inkscape:showpageshadow="0"
   inkscape:pageopacity="0"
   inkscape:pagecheckerboard="0"
   inkscape:deskcolor="#505050"
   inkscape:zoom="16.98"
   inkscape:cx="25.029446"
   inkscape:cy="15.57715"
   inkscape:window-width="1920"
   inkscape:window-height="1051"
   inkscape:window-x="0"
   inkscape:window-y="0"
   inkscape:window-maximized="1"
   inkscape:current-layer="Layer_1" />

<g
   id="g1"
   transform="matrix(0.10008006,0,0,0.10008006,-0.00195146,-0.0020015)"><path
     fill="#e44d26"
     d="M 47.025,0.02 43.011,44.978 24.974,49.98 6.981,44.984 2.974,0.02 Z"
     id="path1" /><polygon
     fill="#ffffff"
     points="31.771,25.889 31.132,33.041 24.981,34.699 23.371,34.27 23.371,34.27 18.832,33.046 18.44,28.646 12.905,28.646 13.676,37.305 22.273,39.69 22.273,39.69 22.328,39.705 24.973,40.439 24.998,40.434 24.998,40.433 36.287,37.303 36.371,36.371 37.665,21.853 37.8,20.373 24.981,20.373 24.981,20.375 17.703,20.375 17.199,14.727 21.917,14.727 24.981,14.727 25,14.727 29.542,14.727 38.305,14.727 38.412,13.487 38.663,10.691 38.796,9.211 29.542,9.211 25,9.211 24.981,9.211 21.917,9.211 11.172,9.211 11.304,10.691 12.659,25.891 25,25.891 25,25.889 "
     id="polygon1" /></g>
</svg>
