<?xml version="1.0" encoding="UTF-8" standalone="no"?>
<svg
   height="5"
   viewBox="0 0 5 5"
   width="5"
   version="1.1"
   id="svg10"
   sodipodi:docname="JetBrains.svg"
   inkscape:version="1.4 (1:1.4+202410161351+e7c3feb100)"
   xmlns:inkscape="http://www.inkscape.org/namespaces/inkscape"
   xmlns:sodipodi="http://sodipodi.sourceforge.net/DTD/sodipodi-0.dtd"
   xmlns:xlink="http://www.w3.org/1999/xlink"
   xmlns="http://www.w3.org/2000/svg"
   xmlns:svg="http://www.w3.org/2000/svg">
  <sodipodi:namedview
     id="namedview1"
     pagecolor="#505050"
     bordercolor="#eeeeee"
     borderopacity="1"
     inkscape:showpageshadow="0"
     inkscape:pageopacity="0"
     inkscape:pagecheckerboard="0"
     inkscape:deskcolor="#505050"
     inkscape:zoom="16.98"
     inkscape:cx="25.029446"
     inkscape:cy="25"
     inkscape:window-width="1920"
     inkscape:window-height="1051"
     inkscape:window-x="0"
     inkscape:window-y="0"
     inkscape:window-maximized="1"
     inkscape:current-layer="svg10" />
  <defs
     id="defs10">
    <linearGradient
       xlink:href="#a"
       id="linearGradient11"
       gradientUnits="userSpaceOnUse"
       x1="38.880001"
       y1="6.5"
       x2="63.720001"
       y2="95.940002" />
  </defs>
  <linearGradient
     id="a"
     gradientUnits="userSpaceOnUse"
     x1="38.880001"
     x2="63.720001"
     y1="6.5"
     y2="95.940002">
    <stop
       offset=".28"
       stop-color="#07c3f2"
       id="stop1" />
    <stop
       offset=".94"
       stop-color="#087cfa"
       id="stop2" />
  </linearGradient>
  <linearGradient
     id="b"
     gradientUnits="userSpaceOnUse"
     x1="46.630001"
     x2="88.660004"
     y1="17.85"
     y2="79.480003">
    <stop
       offset=".14"
       stop-color="#fcf84a"
       id="stop3" />
    <stop
       offset=".37"
       stop-color="#07c3f2"
       id="stop4" />
  </linearGradient>
  <linearGradient
     id="c"
     x1="88.269997"
     x2="93.790001"
     xlink:href="#a"
     y1="25.469999"
     y2="45.02" />
  <g
     id="g11"
     transform="matrix(0.05208333,0,0,0.05208333,-0.23437481,-0.23437481)">
    <path
       d="M 17.44,91.26 4.5,14.56 28.43,4.63 l 15.28,9.08 14,-7.55 29.17,11.2 -16.36,83.14 z"
       fill="url(#a)"
       id="path4"
       style="fill:url(#linearGradient11)" />
    <path
       d="M 100.5,37.01 88.11,6.41 65.63,4.5 30.93,37.84 40.27,80.81 57.71,93.04 100.5,67.65 90,47.96 Z"
       fill="url(#b)"
       id="path5"
       style="fill:url(#b)" />
    <path
       d="M 81.27,32.45 90,47.96 100.5,37.01 92.79,17.95 Z"
       fill="url(#c)"
       id="path6"
       style="fill:url(#c)" />
    <path
       d="m 22.5,22.5 h 60 v 60 h -60 z"
       id="path7" />
    <g
       fill="#ffffff"
       id="g10">
      <path
         d="m 29.98,71.16 h 22.5 v 3.75 h -22.5 z"
         id="path8" />
      <path
         d="M 51.28,29.97 47.93,43.1 44.1,29.97 H 40.29 L 36.45,43.1 33.11,29.97 h -5.25 l 6.43,22.51 h 4.22 l 3.68,-13.03 3.64,13.03 h 4.27 l 6.42,-22.51 z"
         id="path9" />
      <path
         d="m 57.46,49.27 2.93,-3.51 a 10.34,10.34 0 0 0 6.74,2.74 c 2,0 3.26,-0.8 3.26,-2.13 v -0.06 c 0,-1.26 -0.78,-1.9 -4.55,-2.87 -4.55,-1.16 -7.48,-2.42 -7.48,-6.9 v -0.07 c 0,-4.09 3.29,-6.8 7.9,-6.8 a 13,13 0 0 1 8.38,2.87 l -2.58,3.74 a 10.54,10.54 0 0 0 -5.87,-2.22 c -1.9,0 -2.9,0.87 -2.9,2 v 0.07 c 0,1.48 1,2 4.87,3 4.58,1.2 7.16,2.84 7.16,6.78 v 0.06 c 0,4.48 -3.42,7 -8.29,7 a 14.34,14.34 0 0 1 -9.57,-3.61"
         id="path10" />
    </g>
  </g>
</svg>
