<?xml version="1.0" encoding="UTF-8" standalone="no"?>
<svg
   version="1.1"
   id="Layer_1"
   x="0px"
   y="0px"
   viewBox="0 0 5.0000001 5.0000001"
   xml:space="preserve"
   width="5"
   height="5"
   sodipodi:docname="jquery.svg"
   inkscape:version="1.4 (1:1.4+202410161351+e7c3feb100)"
   xmlns:inkscape="http://www.inkscape.org/namespaces/inkscape"
   xmlns:sodipodi="http://sodipodi.sourceforge.net/DTD/sodipodi-0.dtd"
   xmlns="http://www.w3.org/2000/svg"
   xmlns:svg="http://www.w3.org/2000/svg"><sodipodi:namedview
     id="namedview1"
     pagecolor="#505050"
     bordercolor="#eeeeee"
     borderopacity="1"
     inkscape:showpageshadow="0"
     inkscape:pageopacity="0"
     inkscape:pagecheckerboard="0"
     inkscape:deskcolor="#505050"
     inkscape:zoom="18.866667"
     inkscape:cx="22.473498"
     inkscape:cy="22.5"
     inkscape:window-width="1920"
     inkscape:window-height="1051"
     inkscape:window-x="0"
     inkscape:window-y="0"
     inkscape:window-maximized="1"
     inkscape:current-layer="Layer_1" /><defs
     id="defs3" /><style
     type="text/css"
     id="style1">.st0{fill-rule:evenodd;clip-rule:evenodd;fill:#21609B;}</style><g
     id="g3"
     transform="matrix(0.04069031,0,0,0.0410701,-2.5302713e-5,-1.4546688e-7)"
     style="stroke-width:2.73065"><path
       class="st0"
       d="m 120.03,90.36 -0.55,1.43 c -9.37,18.25 -25.98,29.45 -49.67,29.94 -11.07,0.23 -21.63,-2.61 -28.52,-5.7 C 26.41,109.35 13.9,96.95 7.07,83.71 -2.73,64.73 -4.5,38.32 15.88,18.6 c 0.31,0 -2.47,4.28 -2.16,4.28 l -0.56,1.83 c -14.69,45.98 30.56,85.38 74.54,80.88 10.58,-1.1 24.06,-6.89 32.33,-15.23 z m 0,0 z"
       id="path1"
       style="stroke-width:2.73065" /><path
       class="st0"
       d="m 93.41,71.35 c 11.07,0.08 22.62,-5.1 29.47,-12.36 C 116.89,74.19 99.55,83.96 76.3,80.85 56.83,78.24 38.29,58.65 36.38,39.02 34.98,24.73 39.96,16.21 48.17,5.86 45.32,11.27 44.25,15.44 43.99,18.1 40.86,49.02 68.67,71.19 93.41,71.35 Z m 0,0 z"
       id="path2"
       style="stroke-width:2.73065" /><path
       class="st0"
       d="m 121.77,32.97 c -1.72,3.95 -11.62,11.4 -16,12.33 C 88.45,48.99 77.36,40.78 71.55,31.43 70.69,30.03 69.09,26.22 68.8,25.25 66.55,17.59 67.58,6 74.3,0 c -2.02,5.7 -2.32,12.33 -1.25,16.64 0.65,2.6 2.61,7.15 4.58,10.01 3.58,5.21 5.85,6.47 10.46,9.24 2.07,1.24 4.3,2.24 5.26,2.52 4.36,1.28 13.57,4.66 28.42,-5.44 z m 0,0 z"
       id="path3"
       style="stroke-width:2.73065" /></g></svg>
