<?xml version="1.0" encoding="UTF-8" standalone="no"?>
<svg
   width="5"
   height="5"
   version="1.1"
   id="svg232"
   sodipodi:docname="Mac.svg"
   inkscape:version="1.4 (1:1.4+202410161351+e7c3feb100)"
   xmlns:inkscape="http://www.inkscape.org/namespaces/inkscape"
   xmlns:sodipodi="http://sodipodi.sourceforge.net/DTD/sodipodi-0.dtd"
   xmlns="http://www.w3.org/2000/svg"
   xmlns:svg="http://www.w3.org/2000/svg">
  <sodipodi:namedview
     id="namedview1"
     pagecolor="#505050"
     bordercolor="#eeeeee"
     borderopacity="1"
     inkscape:showpageshadow="0"
     inkscape:pageopacity="0"
     inkscape:pagecheckerboard="0"
     inkscape:deskcolor="#505050"
     inkscape:zoom="16.98"
     inkscape:cx="25.029446"
     inkscape:cy="25"
     inkscape:window-width="1920"
     inkscape:window-height="1051"
     inkscape:window-x="0"
     inkscape:window-y="0"
     inkscape:window-maximized="1"
     inkscape:current-layer="svg232" />
  <defs
     id="defs236" />
  <path
     fill="#666666"
     d="M 4.5175315,3.8965179 C 4.4419166,4.0712041 4.3524131,4.2320017 4.2487125,4.3798367 4.1073587,4.5813736 3.9916215,4.7208757 3.9024268,4.7983427 3.7641594,4.9254991 3.6160158,4.9906206 3.4573785,4.9943241 c -0.1138854,0 -0.251227,-0.032407 -0.4110987,-0.098145 -0.1603963,-0.065431 -0.3077992,-0.097837 -0.4425791,-0.097837 -0.1413536,0 -0.2929541,0.032406 -0.4551096,0.097837 C 1.9861885,4.9619176 1.8553593,4.9961761 1.7553313,4.9995711 1.6032063,5.0060521 1.4515752,4.9390786 1.3002217,4.7983426 1.2036197,4.7140856 1.08279,4.5696456 0.93804135,4.3650221 0.78273745,4.1465102 0.65505615,3.893123 0.55502835,3.6042429 0.44790195,3.2922153 0.39419985,2.990064 0.39419985,2.6975422 c 0,-0.3350825 0.072405,-0.624086 0.2174317,-0.8662701 C 0.72560955,1.636741 0.87724075,1.4832889 1.0670189,1.3706379 1.2567971,1.2579871 1.4618526,1.2005814 1.6826793,1.1969087 c 0.1208295,0 0.2792816,0.037376 0.4761893,0.11083 0.196352,0.073701 0.3224285,0.1110769 0.3777045,0.1110769 0.041326,0 0.1813833,-0.043702 0.4188146,-0.1308294 0.2245302,-0.0808 0.4140306,-0.1142559 0.5692728,-0.1010773 0.4206663,0.03395 0.7367061,0.199778 0.9468849,0.4985343 -0.3762233,0.2279561 -0.5623288,0.5472364 -0.5586251,0.9568227 0.00339,0.3190336 0.1191319,0.5845193 0.3465942,0.7953155 0.1030833,0.097836 0.2182035,0.1734513 0.3462857,0.2271535 -0.027776,0.080553 -0.057097,0.1577112 -0.088269,0.231783 z M 3.552746,0.10002852 c 0,0.25005704 -0.091355,0.48353463 -0.2734484,0.69963908 -0.2197466,0.2569058 -0.4855408,0.405358 -0.7737731,0.3819329 -0.00367,-0.029999 -0.0058,-0.061572 -0.0058,-0.09475 0,-0.24005446 0.1045029,-0.49696025 0.2900839,-0.7070156 C 2.8824576,0.27348001 3.0002935,0.18504751 3.1431904,0.11450321 3.2857787,0.04501146 3.4206512,0.00658107 3.5474992,1.5673218e-8 3.5512032,0.03342876 3.5527462,0.06685956 3.5527462,0.10002526 Z"
     id="path230"
     style="stroke-width:0.1" />
</svg>
