<?xml version="1.0" encoding="UTF-8" standalone="no"?>
<svg
   width="5"
   height="5"
   fill="none"
   version="1.1"
   viewBox="0 0 5 5"
   id="svg1"
   sodipodi:docname="MongoDB.svg"
   inkscape:version="1.4 (1:1.4+202410161351+e7c3feb100)"
   xmlns:inkscape="http://www.inkscape.org/namespaces/inkscape"
   xmlns:sodipodi="http://sodipodi.sourceforge.net/DTD/sodipodi-0.dtd"
   xmlns="http://www.w3.org/2000/svg"
   xmlns:svg="http://www.w3.org/2000/svg">
  <sodipodi:namedview
     id="namedview1"
     pagecolor="#505050"
     bordercolor="#eeeeee"
     borderopacity="1"
     inkscape:showpageshadow="0"
     inkscape:pageopacity="0"
     inkscape:pagecheckerboard="0"
     inkscape:deskcolor="#505050"
     inkscape:zoom="16.98"
     inkscape:cx="25.029446"
     inkscape:cy="25"
     inkscape:window-width="1920"
     inkscape:window-height="1051"
     inkscape:window-x="0"
     inkscape:window-y="0"
     inkscape:window-maximized="1"
     inkscape:current-layer="svg1" />
  <defs
     id="defs1" />
  <path
     d="m 2.9362138,0.55728722 c -0.21078,-0.24897977 -0.39228,-0.50184953 -0.42936,-0.55436948 -0.0039,-0.003890286 -0.0098,-0.003890286 -0.01366,0 -0.03708,0.05251895 -0.218589,0.30538971 -0.429359,0.55436948 -1.80919801,2.29719788 0.28494,3.84749638 0.28494,3.84749638 l 0.01756,0.011667 C 2.3819448,4.6557104 2.4209748,5 2.4209748,5 h 0.15613 c 0,0 0.03904,-0.3423396 0.05465,-0.5835494 l 0.01756,-0.013605 c 0.002,0 2.096098,-1.5483985 0.28689,-3.84559638 z m -0.43717,3.81249638 c 0,0 -0.09368,-0.079748 -0.119049,-0.1205998 v -0.00388 l 0.113189,-2.5014977 c 0,-0.00778 0.01171,-0.00778 0.01171,0 l 0.11319,2.5014977 v 0.00388 c -0.02537,0.040853 -0.11905,0.1205998 -0.11905,0.1205998 z"
     fill="#00684a"
     id="path1"
     style="stroke-width:0.0999999" />
</svg>
