<?xml version="1.0" encoding="UTF-8" standalone="no"?>
<svg
   width="5"
   height="5"
   viewBox="0 0 5 5"
   version="1.1"
   preserveAspectRatio="xMidYMid"
   id="svg4"
   sodipodi:docname="npm.svg"
   inkscape:version="1.4 (1:1.4+202410161351+e7c3feb100)"
   xmlns:inkscape="http://www.inkscape.org/namespaces/inkscape"
   xmlns:sodipodi="http://sodipodi.sourceforge.net/DTD/sodipodi-0.dtd"
   xmlns="http://www.w3.org/2000/svg"
   xmlns:svg="http://www.w3.org/2000/svg">
  <defs
     id="defs4" />
  <sodipodi:namedview
     id="namedview4"
     pagecolor="#505050"
     bordercolor="#eeeeee"
     borderopacity="1"
     inkscape:showpageshadow="0"
     inkscape:pageopacity="0"
     inkscape:pagecheckerboard="0"
     inkscape:deskcolor="#505050"
     inkscape:zoom="2.9581882"
     inkscape:cx="128.11896"
     inkscape:cy="143.5"
     inkscape:window-width="1920"
     inkscape:window-height="1051"
     inkscape:window-x="0"
     inkscape:window-y="0"
     inkscape:window-maximized="1"
     inkscape:current-layer="svg4" />
  <g
     id="g4"
     transform="matrix(0.017449,0,0,0.017449,0.27347656,-0.00347391)">
    <path
       d="M 7.9644444,72.362667 129.70667,1.4791111 251.44889,72.362667 V 214.016 L 129.70667,284.89956 7.9644444,214.016 Z"
       fill="#cc0000"
       id="path1" />
    <path
       d="M 133.12,143.13244 246.32889,77.937778 250.88,209.35111 133.12,280.46222 Z"
       fill="#ffffff"
       id="path2" />
    <path
       d="M 248.03556,73.955556 247.69422,213.21956 129.59289,281.71378 129.024,144.83911 Z m -99.328,82.261334 0.34133,91.47733 39.25333,-22.86933 -0.11378,-68.94933 19.79734,-11.71912 v 69.17689 l 19.79733,-11.60533 0.11378,-92.61511 z"
       fill="#cc0000"
       id="path3" />
    <path
       d="m 137.44356,2.5031111 c -5.46134,-3.07199999 -14.22223,-3.07199999 -19.68356,0 L 9.8986667,64.512 C 4.4373333,67.584 0.11377778,75.320889 0.11377778,81.464889 V 205.48267 c 0,6.25777 4.43733332,13.88089 9.78488892,16.95289 L 117.76,284.44444 c 5.46133,3.072 14.22222,3.072 19.68356,0 l 107.86133,-62.00888 c 5.46133,-3.072 9.78489,-10.80889 9.78489,-16.95289 V 81.464889 c 0,-6.257778 -4.43734,-13.880889 -9.78489,-16.952889 z m 95.68711,64.8533329 c 5.46133,3.072 5.46133,8.192 0,11.264 l -94.43556,54.271996 c -5.46133,3.072 -14.22222,3.072 -19.68355,0 L 23.210667,77.824 c -5.461334,-3.072 -5.461334,-8.192 0,-11.264 L 117.64622,12.288 c 5.46134,-3.072 14.22222,-3.072 19.68356,0 z M 8.5333333,90.453333 c 0,-6.257777 4.4373337,-8.760889 9.7848887,-5.688889 L 114.91556,140.288 c 5.46133,3.072 9.78488,10.80889 9.78488,16.95289 v 110.13689 c 0,6.25778 -4.43733,8.76089 -9.78488,5.68889 L 18.318222,217.54311 c -5.461333,-3.072 -9.7848887,-10.80889 -9.7848887,-16.95289 V 90.453333 Z M 143.13244,271.36 c -5.46133,3.072 -9.78488,0.56889 -9.78488,-5.68889 V 157.24089 c 0,-6.25778 4.43733,-13.88089 9.78488,-16.95289 l 93.75289,-53.816889 c 5.46134,-3.072 9.78489,-0.568889 9.78489,5.688889 v 108.43022 c 0,6.25778 -4.43733,13.88089 -9.78489,16.95289 z"
       fill="#910505"
       id="path4" />
  </g>
</svg>
