<?xml version="1.0" encoding="UTF-8" standalone="no"?>
<!-- Created with Inkscape (http://www.inkscape.org/) -->

<svg
   width="5"
   height="5"
   viewBox="0 0 1.3229166 1.3229167"
   version="1.1"
   id="svg1"
   xml:space="preserve"
   sodipodi:docname="Recoil.svg"
   inkscape:version="1.4 (1:1.4+202410161351+e7c3feb100)"
   xmlns:inkscape="http://www.inkscape.org/namespaces/inkscape"
   xmlns:sodipodi="http://sodipodi.sourceforge.net/DTD/sodipodi-0.dtd"
   xmlns="http://www.w3.org/2000/svg"
   xmlns:svg="http://www.w3.org/2000/svg"><sodipodi:namedview
   id="namedview1"
   pagecolor="#505050"
   bordercolor="#eeeeee"
   borderopacity="1"
   inkscape:showpageshadow="0"
   inkscape:pageopacity="0"
   inkscape:pagecheckerboard="0"
   inkscape:deskcolor="#505050"
   inkscape:zoom="16.98"
   inkscape:cx="25.029446"
   inkscape:cy="20.288575"
   inkscape:window-width="1920"
   inkscape:window-height="1051"
   inkscape:window-x="0"
   inkscape:window-y="0"
   inkscape:window-maximized="1"
   inkscape:current-layer="svg1" /><defs
   id="defs1" /><style
   type="text/css"
   id="style1">
	.st0{fill:#1C1E21;}
</style>
<g
   id="g1"
   transform="matrix(0.09347427,0.09343553,-0.09347427,0.09343553,-0.81618066,2.7443237)"><path
     class="st0"
     d="m -4.6578012,-19.898738 c 0.098298,-0.02054 0.1995305,-0.03521 0.3007629,-0.04401 v 0 0 l 0.7863849,-0.07482 -1.068075,-1.170775 c -0.3213028,-0.35358 -0.4988262,-0.811326 -0.4988262,-1.289612 h -0.8832159 c 0,0.698356 0.2596831,1.368838 0.7306337,1.88527 z"
     id="path1"
     style="fill:#f9f9f9;stroke-width:0.264583" /><path
     class="st0"
     d="m -1.8995855,-18.183656 c -0.079225,0.01467 -0.1599178,0.02494 -0.2406103,0.03374 v 0 0 l -0.8509389,0.08069 1.0651408,1.16784 c 0.3213028,0.35358 0.4988262,0.811326 0.4988262,1.289613 h 0.884683 c 0,-0.698357 -0.2596831,-1.367371 -0.7306337,-1.88527 z"
     id="path2"
     style="fill:#f9f9f9;stroke-width:0.264583" /><path
     class="st0"
     d="m -0.4368509,-20.779019 c -0.1452465,-0.721831 -0.711561,-1.247066 -1.4421947,-1.339496 l -0.1349765,-0.0176 c -0.4562793,-0.05722 -0.8010563,-0.447477 -0.8010563,-0.906691 v -0.47095 c 0.4049296,-0.168721 0.689554,-0.567782 0.689554,-1.032864 0,-0.617664 -0.5002934,-1.117957 -1.1179577,-1.117957 -0.6176642,0 -1.1179576,0.500293 -1.1179576,1.117957 0,0.454812 0.2728873,0.846538 0.6631455,1.021127 v 0.482687 c 0,0.905223 0.6763497,1.672536 1.5742369,1.784038 l 0.1349765,0.01761 c 0.421068,0.05282 0.6308685,0.363849 0.6866197,0.636737 0.055751,0.272887 -0.016139,0.641138 -0.3843897,0.853873 -0.1804577,0.104166 -0.3755868,0.167253 -0.582453,0.186326 l -2.029049,0.190728 c -0.334507,0.03228 -0.6514084,0.133509 -0.9419013,0.300763 -0.6382042,0.369718 -0.9565727,1.073943 -0.8098591,1.795774 0.1452464,0.721831 0.7115609,1.247066 1.4421946,1.339495 l 0.1349766,0.01761 c 0.4562793,0.05722 0.8010562,0.447476 0.8010562,0.90669 v 0.428404 c -0.4034624,0.16872 -0.6866196,0.567781 -0.6866196,1.031396 0,0.617665 0.5002933,1.117958 1.1179576,1.117958 0.6176643,0 1.1179576,-0.500293 1.1179576,-1.117958 0,-0.456279 -0.2743544,-0.849472 -0.6660797,-1.022594 v -0.437206 c 0,-0.905222 -0.6763497,-1.672535 -1.5742369,-1.784037 l -0.1349765,-0.01761 c -0.421068,-0.05282 -0.6308685,-0.36385 -0.6866197,-0.636737 -0.055751,-0.272887 0.016139,-0.641138 0.3843897,-0.853873 0.1804577,-0.104167 0.3755868,-0.167254 0.5824529,-0.186326 l 2.0290491,-0.190728 c 0.334507,-0.03228 0.6514084,-0.133509 0.9419013,-0.300763 0.6382042,-0.369718 0.9551056,-1.073944 0.8098591,-1.795774 z"
     id="path3"
     style="fill:#f9f9f9;stroke-width:0.264583" /></g>
       </svg>
