<?xml version="1.0" encoding="UTF-8" standalone="no"?>
<svg
   viewBox="0 0 5 5"
   shape-rendering="geometricPrecision"
   text-rendering="geometricPrecision"
   image-rendering="optimizeQuality"
   fill-rule="evenodd"
   clip-rule="evenodd"
   version="1.1"
   id="svg1"
   width="5"
   height="5"
   sodipodi:docname="Redux.svg"
   inkscape:version="1.4 (1:1.4+202410161351+e7c3feb100)"
   xmlns:inkscape="http://www.inkscape.org/namespaces/inkscape"
   xmlns:sodipodi="http://sodipodi.sourceforge.net/DTD/sodipodi-0.dtd"
   xmlns="http://www.w3.org/2000/svg"
   xmlns:svg="http://www.w3.org/2000/svg">
  <sodipodi:namedview
     id="namedview1"
     pagecolor="#505050"
     bordercolor="#eeeeee"
     borderopacity="1"
     inkscape:showpageshadow="0"
     inkscape:pageopacity="0"
     inkscape:pagecheckerboard="0"
     inkscape:deskcolor="#505050"
     inkscape:zoom="16.98"
     inkscape:cx="25.029446"
     inkscape:cy="25"
     inkscape:window-width="1920"
     inkscape:window-height="1051"
     inkscape:window-x="0"
     inkscape:window-y="0"
     inkscape:window-maximized="1"
     inkscape:current-layer="svg1" />
  <defs
     id="defs1" />
  <path
     d="M 3.4644632,3.4919576 C 3.6489771,3.4718439 3.7889563,3.3042818 3.7825963,3.1032074 3.7762513,2.9021487 3.6171623,2.741286 3.4262884,2.741286 h -0.01272 c -0.1972639,0.0067 -0.349963,0.1809607 -0.343588,0.3887345 0.00636,0.1005368 0.044535,0.1876757 0.1017894,0.2479855 C 2.9554412,3.8270816 2.6245881,4.1554906 2.128301,4.4302891 1.791073,4.6179649 1.44114,4.6849897 1.0911921,4.6380787 0.80485886,4.5978511 0.58217017,4.4638173 0.442161,4.2426133 0.23856719,3.9142044 0.21948731,3.5589666 0.3912813,3.2037446 0.51218058,2.949044 0.70303946,2.761384 0.82393875,2.6675461 0.7984989,2.5804075 0.76030912,2.4329752 0.74122923,2.3257386 -0.18137033,3.029499 -0.08591089,3.9812292 0.19403245,4.4302891 0.40400122,4.765429 0.83029871,4.9732027 1.3011309,4.9732027 c 0.1272442,0 0.2544885,-0.013415 0.3817477,-0.046911 C 2.4973138,4.7587138 3.1145002,4.2493284 3.4644332,3.4919576 Z M 4.5842965,2.6608626 C 4.1007294,2.0643388 3.3881136,1.7359298 2.5736784,1.7359298 H 2.471889 C 2.4146193,1.6152947 2.29372,1.5348397 2.1601158,1.5348397 h -0.012735 c -0.1972188,0.0067 -0.349918,0.1809606 -0.343573,0.3887502 0.00636,0.2010586 0.165419,0.3619213 0.3563079,0.3619213 h 0.01272 C 2.3128149,2.2787908 2.4337142,2.1849734 2.4846089,2.0576236 h 0.1145243 c 0.4835672,0 0.9416795,0.1474483 1.3552721,0.4356613 C 4.2725234,2.714473 4.5015871,3.0026702 4.6288312,3.3511928 4.7369956,3.6327066 4.7306356,3.9074892 4.6160962,4.1420919 4.4379574,4.4973139 4.1389041,4.691689 3.7444214,4.691689 3.4899179,4.691689 3.2481343,4.611249 3.1208751,4.5509243 3.0509001,4.6179493 2.9236263,4.7251698 2.8345569,4.7922262 3.1081703,4.9262601 3.3881286,5 3.655352,5 4.2661785,5 4.7179307,4.6447621 4.8897247,4.2895401 5.0742386,3.90079 5.0615037,3.2305577 4.5843115,2.6608626 Z m -3.2322409,0.945015 c 0.00636,0.2010745 0.165434,0.3619214 0.3563079,0.3619214 h 0.012735 C 1.9183472,3.9611154 2.0710463,3.7868383 2.0646714,3.5790646 2.0583264,3.3779902 1.8992374,3.2171433 1.7083635,3.2171433 h -0.01272 c -0.012735,0 -0.03183,0 -0.044535,0.00668 C 1.3902303,2.7680677 1.282066,2.2721126 1.3202557,1.7359141 1.3456806,1.3337654 1.4729549,0.9852426 1.6956435,0.6970296 1.8801575,0.4490442 2.2364654,0.3283933 2.478249,0.3217097 3.152675,0.3082952 3.4389933,1.1930006 3.4580882,1.5482542 3.5408132,1.5683523 3.6807769,1.6152794 3.7762363,1.648791 3.6998718,0.5630115 3.0636055,0 2.4528091,0 1.8801575,0 1.3520556,0.4356613 1.1420718,1.0790962 0.8493936,1.9370043 1.0402824,2.761384 1.3965903,3.4115341 c -0.0318,0.046911 -0.050895,0.1206352 -0.044535,0.1943751 v -1.58e-5 z"
     fill="#764abc"
     id="path1"
     style="stroke-width:0.102633" />
</svg>
