<?xml version="1.0" encoding="UTF-8" standalone="no"?>
<svg
   width="5"
   height="5"
   viewBox="0 0 5 5"
   version="1.1"
   id="svg2"
   sodipodi:docname="REST.svg"
   inkscape:version="1.4 (1:1.4+202410161351+e7c3feb100)"
   xmlns:inkscape="http://www.inkscape.org/namespaces/inkscape"
   xmlns:sodipodi="http://sodipodi.sourceforge.net/DTD/sodipodi-0.dtd"
   xmlns:xlink="http://www.w3.org/1999/xlink"
   xmlns="http://www.w3.org/2000/svg"
   xmlns:svg="http://www.w3.org/2000/svg"
   xmlns:rdf="http://www.w3.org/1999/02/22-rdf-syntax-ns#"
   xmlns:cc="http://creativecommons.org/ns#"
   xmlns:dc="http://purl.org/dc/elements/1.1/">
  <sodipodi:namedview
     id="namedview2"
     pagecolor="#505050"
     bordercolor="#ffffff"
     borderopacity="1"
     inkscape:showpageshadow="0"
     inkscape:pageopacity="0"
     inkscape:pagecheckerboard="1"
     inkscape:deskcolor="#505050"
     inkscape:zoom="7.2672414"
     inkscape:cx="64.53618"
     inkscape:cy="58.137604"
     inkscape:window-width="1920"
     inkscape:window-height="1051"
     inkscape:window-x="0"
     inkscape:window-y="0"
     inkscape:window-maximized="1"
     inkscape:current-layer="svg2" />
  <!-- Generator: Sketch 42 (36781) - http://www.bohemiancoding.com/sketch -->
  <title
     id="title1">api</title>
  <desc
     id="desc1">Created with Sketch.</desc>
  <defs
     id="defs1">
    <path
       d="m 1.5495722,63.303493 c -2.06609628,-3.593119 -2.06609628,-8.013867 0,-11.606986 L 28.005684,5.8034931 C 30.07178,2.2103739 33.901617,0 38.043888,0 h 52.912224 c 4.142271,0 7.962029,2.2103739 10.038208,5.8034931 l 26.45611,45.8930139 c 2.06609,3.593119 2.06609,8.013867 0,11.606986 L 100.99432,109.19651 C 98.92822,112.78963 95.098383,115 90.956112,115 H 38.043888 c -4.142271,0 -7.972108,-2.22047 -10.038204,-5.80349 z"
       id="path-1" />
    <mask
       id="mask-2"
       fill="#ffffff">
      <use
         xlink:href="#path-1"
         id="use1" />
    </mask>
  </defs>
  <g
     id="g1"
     transform="matrix(0.1,0,0,0.10095652,2.2364341e-7,-0.02391267)">
    <use
       id="Mask"
       fill="#4386fb"
       xlink:href="#path-1"
       transform="matrix(0.3875969,0,0,0.3875969,-1.8e-6,2.713175)"
       style="fill-rule:evenodd;stroke:none;stroke-width:1" />
    <polygon
       fill="#4079db"
       opacity="0.904042"
       mask="url(#mask-2)"
       points="83.900391,54.925781 84.263203,56.961562 72.491953,45.200391 62.030859,46.571016 58.553906,53.938125 50.078203,45.452344 37.581328,47.699766 34.961016,71.403516 78.901641,115.35422 98.322187,115.17281 123.45703,72.985781 93.877734,43.396406 78.024844,49.050234 "
       id="polygon1"
       transform="matrix(0.3875969,0,0,0.3875969,-1.8e-6,2.713175)"
       style="fill-rule:evenodd;stroke:none;stroke-width:1" />
    <path
       d="m 15.675779,19.560831 c -1.074219,0 -2.148437,1.074219 -2.148437,2.148438 v 8.6875 h 2.148437 v -4.296875 h 2.148438 v 4.296875 h 2.148437 v -8.6875 c 0,-1.074219 -1.074218,-2.148438 -2.148437,-2.148438 z m 0,4.390625 v -2.246094 h 2.148438 v 2.246094 z"
       id="path1"
       style="fill:#ffffff;fill-rule:evenodd;stroke:none;stroke-width:0.387597" />
    <path
       d="m 24.464842,19.560831 c -1.074219,0 -2.148438,1.074219 -2.148438,2.148438 v 8.6875 h 2.148438 v -4.296875 h 2.148437 c 1.074219,0 2.148438,-1.074219 2.148438,-2.148438 v -2.246094 c 0,-1.074218 -1.074219,-2.148437 -2.148438,-2.148437 h -2.148437 z m 0,4.390625 v -2.246094 h 2.148437 v 2.246094 z"
       id="path2"
       style="fill:#ffffff;fill-rule:evenodd;stroke:none;stroke-width:0.387597" />
    <polygon
       id="polygon2"
       points="59.833828,22.544766 54.542812,22.544766 54.542812,5.6739844 59.833828,5.6739844 59.833828,0.13101562 43.708828,0.13101562 43.708828,5.6739844 48.999844,5.6739844 48.999844,22.544766 43.708828,22.544766 43.708828,28.087734 59.833828,28.087734 "
       transform="matrix(0.3875969,0,0,0.3875969,13.281248,19.51005)"
       style="fill:#ffffff;fill-rule:evenodd;stroke:none;stroke-width:1" />
  </g>
  <metadata
     id="metadata1">
    <rdf:RDF>
      <cc:Work
         rdf:about="">
        <dc:title>api</dc:title>
      </cc:Work>
    </rdf:RDF>
  </metadata>
</svg>
