<?xml version="1.0" encoding="UTF-8" standalone="no"?>
<svg
   id="Layer_1"
   viewBox="0 0 0.59988003 0.84"
   width="5"
   height="7"
   version="1.1"
   sodipodi:docname="Rise.svg"
   inkscape:version="1.4 (1:1.4+202410161351+e7c3feb100)"
   xml:space="preserve"
   xmlns:inkscape="http://www.inkscape.org/namespaces/inkscape"
   xmlns:sodipodi="http://sodipodi.sourceforge.net/DTD/sodipodi-0.dtd"
   xmlns="http://www.w3.org/2000/svg"
   xmlns:svg="http://www.w3.org/2000/svg"
   xmlns:rdf="http://www.w3.org/1999/02/22-rdf-syntax-ns#"
   xmlns:cc="http://creativecommons.org/ns#"
   xmlns:dc="http://purl.org/dc/elements/1.1/"><defs
     id="defs1775" /><sodipodi:namedview
     id="namedview1773"
     pagecolor="#ffffff"
     bordercolor="#000000"
     borderopacity="0.25"
     inkscape:showpageshadow="2"
     inkscape:pageopacity="0.0"
     inkscape:pagecheckerboard="0"
     inkscape:deskcolor="#d1d1d1"
     showgrid="false"
     inkscape:zoom="90.509668"
     inkscape:cx="3.6902135"
     inkscape:cy="3.231699"
     inkscape:window-width="1920"
     inkscape:window-height="1051"
     inkscape:window-x="0"
     inkscape:window-y="0"
     inkscape:window-maximized="1"
     inkscape:current-layer="Layer_1" /><style
     type="text/css"
     id="style1761">.st0{fill:#0acf83}.st1{fill:#a259ff}.st2{fill:#f24e1e}.st3{fill:#ff7262}.st4{fill:#1abcfe}</style><title
     id="title1763">Figma.logo</title><desc
     id="desc1765">Created using Figma</desc><metadata
     id="metadata1901"><rdf:RDF><cc:Work
         rdf:about=""><dc:title>Figma.logo</dc:title></cc:Work></rdf:RDF></metadata><g
     id="g1"
     transform="translate(1.0284399,0.03365039)"><text
       xml:space="preserve"
       style="font-size:0.278778px;font-family:'Open Sans';-inkscape-font-specification:'Open Sans';text-align:start;writing-mode:lr-tb;direction:ltr;text-anchor:start;fill:#dc6542;fill-opacity:1;stroke-width:0.0464631;stroke-linecap:round"
       x="-0.8522774"
       y="0.34498882"
       id="text1"><tspan
         sodipodi:role="line"
         id="tspan1"
         style="font-style:normal;font-variant:normal;font-weight:500;font-stretch:normal;font-family:Raleway;-inkscape-font-specification:'Raleway Medium';fill:#dc6542;fill-opacity:1;stroke-width:0.0464631"
         x="-0.8522774"
         y="0.34498882">rs</tspan></text><circle
       style="fill:none;fill-opacity:1;stroke:#dc6542;stroke-width:0.0210615;stroke-linecap:round;stroke-dasharray:none;stroke-opacity:1"
       id="path1"
       cx="-0.72849989"
       cy="0.26634961"
       r="0.28946921" /></g><style
     type="text/css"
     id="style1">
	.st0{fill:#333333;}
</style><path
     class="st0"
     d="m 0.10611751,0.77191 -0.0016,0.0018 v -0.0096 h -0.0158 V 0.837798 H 0.10461752 V 0.799704 c 0,-0.014498 0.0083,-0.022596 0.0233,-0.022996 V 0.76311 c -0.0098,2e-4 -0.017,0.0031 -0.0218,0.0088 m 0.263756,-0.031395 h 0.0159 v 0.097484 h -0.0159 z m -0.331044,0.035694 c 0.0132,0 0.0232,0.010698 0.0232,0.024796 0,0.014098 -0.01,0.024796 -0.0232,0.024796 -0.013,0 -0.0229,-0.010698 -0.0229,-0.024796 -10e-5,-0.014098 0.0099,-0.024796 0.0229,-0.024796 M -6.04875e-5,0.801005 c 0,0.022096 0.0167000075,0.038793 0.0387899975,0.038793 0.0145,0 0.02320001,-0.010198 0.02320001,-0.010198 v 0.0082 h 0.0159 V 0.801006 c 0,-0.022096 -0.0168,-0.038793 -0.03909,-0.038793 -0.022,0 -0.0387900075,0.016797 -0.0387900075,0.038793 M 0.18191952,0.764212 h 0.0159 V 0.8379 h -0.0159 z m 0.0191,-0.020397 c 0,-0.0059 -0.0048,-0.010698 -0.0107,-0.010698 -0.0059,0 -0.0106,0.0048 -0.0106,0.010698 0,0.0059 0.0048,0.010598 0.0106,0.010598 0.0059,-10e-5 0.0107,-0.0047 0.0107,-0.010598 m 0.04409,0.082086 c -0.013,0 -0.0229,-0.010698 -0.0229,-0.024796 0,-0.014098 0.0098,-0.024796 0.0229,-0.024796 0.0094,0 0.0172,0.0051 0.0209,0.013798 h 0.0166 c -0.0047,-0.016897 -0.0193,-0.027695 -0.03759,-0.027695 -0.0221,0 -0.03879,0.016697 -0.03879,0.038794 0,0.022096 0.0166,0.038794 0.03879,0.038794 0.0176,0 0.03219,-0.010298 0.03719,-0.026396 h -0.0168 c -0.004,0.0076 -0.0115,0.012298 -0.0203,0.012298 m 0.293551,-0.032095 4e-4,-0.0011 c 0.0031,-0.010198 0.0115,-0.016397 0.0217,-0.016397 0.0104,0 0.0188,0.0063 0.022,0.016397 l 4e-4,0.0011 z m 0.022,-0.031595 c -0.0221,0 -0.03879,0.016697 -0.03879,0.038793 0,0.021996 0.0166,0.038793 0.03879,0.038793 0.0163,0 0.0299,-0.0087 0.03589,-0.022896 h -0.0177 c -0.0043,0.0058 -0.0107,0.0089 -0.0181,0.0089 -0.0111,0 -0.0201,-0.0078 -0.0224,-0.019397 l -2e-4,-9.998e-4 h 0.04559 0.0159 c 2e-4,-0.0017 3e-4,-0.003 3e-4,-0.0044 -10e-5,-0.021996 -0.017,-0.038793 -0.03929,-0.038793 m -0.164273,-0.021696 h 0.07489 v 0.012698 h -0.07489 z m -0.24296,0 h -0.0159 v 0.073688 c 0,0.015297 0.0085,0.024796 0.022,0.024796 0.0049,0 0.0107,-5.999e-4 0.0129,-8.999e-4 v -0.013798 c -0.002,3e-4 -0.0068,8.999e-4 -0.0102,8.999e-4 -0.005,0 -0.0088,-0.0042 -0.0088,-0.0096 v -0.038294 h 0.019 v -0.012998 h -0.019 v -0.023796 m 0.344443,0.074887 v -0.038294 h 0.019 v -0.012998 h -0.019 v -0.023696 h -0.0159 v 0.073688 c 0,0.015297 0.0085,0.024796 0.022,0.024796 0.0049,0 0.0107,-6.999e-4 0.0129,-8.999e-4 v -0.013698 c -0.002,3e-4 -0.0068,8.999e-4 -0.0102,8.999e-4 -0.0049,0 -0.0088,-0.0043 -0.0088,-0.0098 m -0.06419,-0.039193 c 0.0132,0 0.0232,0.010698 0.0232,0.024796 0,0.014098 -0.01,0.024796 -0.0232,0.024796 -0.013,0 -0.0229,-0.010698 -0.0229,-0.024796 0,-0.014098 0.0098,-0.024796 0.0229,-0.024796 m -0.03879,0.024796 c 0,0.022096 0.0167,0.038793 0.03879,0.038793 0.0145,0 0.0232,-0.010198 0.0232,-0.010198 v 0.0082 h 0.0159 v -0.036794 c 0,-0.022096 -0.0168,-0.038793 -0.03909,-0.038793 -0.0222,0 -0.03879,0.016797 -0.03879,0.038793 m -0.07119,0.024696 c -0.0146,0 -0.0167,-0.011998 -0.0167,-0.024796 v -0.036694 h -0.0158 v 0.040693 c 0,0.017997 0.0094,0.034794 0.0309,0.034794 0.0141,0 0.0212,-0.010098 0.0212,-0.010098 v 0.0082 h 0.0159 v -0.073588 h -0.0159 v 0.036394 c 0,0.016997 -0.01,0.025096 -0.0196,0.025096"
     id="path1-3"
     style="fill:#dc6542;fill-opacity:1;stroke-width:0.000999833" /></svg>
