<?xml version="1.0" encoding="UTF-8" standalone="no"?>
<svg
   width="5"
   height="5"
   viewBox="0 0 1.024 1.024"
   version="1.1"
   id="svg1"
   sodipodi:docname="SASS.svg"
   inkscape:version="1.4 (1:1.4+202410161351+e7c3feb100)"
   xmlns:inkscape="http://www.inkscape.org/namespaces/inkscape"
   xmlns:sodipodi="http://sodipodi.sourceforge.net/DTD/sodipodi-0.dtd"
   xmlns="http://www.w3.org/2000/svg"
   xmlns:svg="http://www.w3.org/2000/svg">
  <sodipodi:namedview
     id="namedview1"
     pagecolor="#505050"
     bordercolor="#eeeeee"
     borderopacity="1"
     inkscape:showpageshadow="0"
     inkscape:pageopacity="0"
     inkscape:pagecheckerboard="0"
     inkscape:deskcolor="#505050"
     inkscape:zoom="16.98"
     inkscape:cx="25.029446"
     inkscape:cy="25"
     inkscape:window-width="1920"
     inkscape:window-height="1051"
     inkscape:window-x="0"
     inkscape:window-y="0"
     inkscape:window-maximized="1"
     inkscape:current-layer="svg1" />
  <defs
     id="defs1" />
  <path
     fill="#cf649a"
     d="m 0.88150855,0.56897501 c -0.0358031,2.02e-4 -0.0668058,0.0088 -0.0928081,0.021604 -0.009601,-0.019002 -0.0192017,-0.035605 -0.0207998,-0.048004 -0.0018,-0.014401 -0.004,-0.023204 -0.0018,-0.040403 0.002198,-0.017204 0.0121991,-0.041606 0.0121991,-0.043606 -2.0202e-4,-0.0018 -0.002202,-0.010601 -0.022802,-0.010801 -0.0205998,-2e-4 -0.0384034,0.004 -0.0404035,0.0094 -0.002,0.0054 -0.006001,0.017802 -0.008601,0.030603 -0.0036,0.018802 -0.0412036,0.085408 -0.0626055,0.1204105 -0.007001,-0.013601 -0.0130011,-0.025602 -0.0142032,-0.035205 -0.001798,-0.014399 -0.004,-0.023202 -0.001798,-0.040401 0.0022,-0.017203 0.0122011,-0.041604 0.0122011,-0.043604 -2.0002e-4,-0.0018 -0.0022,-0.010601 -0.0228,-0.010801 -0.0206038,-2e-4 -0.0384033,0.004 -0.0404035,0.0094 -0.002,0.0054 -0.0042,0.018202 -0.008601,0.030603 -0.004202,0.012401 -0.0542067,0.1236107 -0.0672079,0.1526133 -0.006601,0.014801 -0.0123991,0.026602 -0.0166015,0.034603 -0.0042,0.008 -2e-4,6e-4 -6e-4,0.0014 -0.0036,0.0068 -0.005601,0.010601 -0.005601,0.010601 v 2.02e-4 c -0.0028,0.005 -0.0058,0.0098 -0.007203,0.0098 -0.001,0 -0.003,-0.013401 4e-4,-0.031801 0.007401,-0.038605 0.0254022,-0.098809 0.0252042,-0.1010088 0,-0.001 0.003398,-0.011603 -0.011603,-0.017001 -0.0146013,-0.0054 -0.0197997,0.0036 -0.0210018,0.0036 -0.0012,0 -0.0022,0.0032 -0.0022,0.0032 0,0 0.0162014,-0.067804 -0.0310027,-0.067804 -0.0296026,0 -0.0704061,0.032203 -0.0906079,0.061605 -0.0128011,0.007 -0.0400035,0.0218 -0.068806,0.037603 -0.011001,0.006 -0.022402,0.012401 -0.0332029,0.018202 l -0.002198,-0.0024 c -0.0572044,-0.0610099 -0.16301362,-0.1042136 -0.15861323,-0.1862208 0.0016001,-0.0298026 0.01200105,-0.1084094 0.20321972,-0.2036178 0.15661366,-0.078007 0.2820246,-0.056605 0.30382451,-0.009 0.0310027,0.068006 -0.0670059,0.1944169 -0.22981806,0.2126185 -0.0620054,0.007 -0.0946103,-0.017002 -0.10280896,-0.026002 -0.008601,-0.0094 -0.009801,-0.0098 -0.0130011,-0.008 -0.0052,0.0028 -0.002,0.011201 0,0.016201 0.0048,0.012601 0.0248022,0.035003 0.0588051,0.046204 0.0298006,0.0098 0.10260894,0.015201 0.19061662,-0.018802 0.0986086,-0.0382042 0.17561532,-0.1442134 0.15301335,-0.2328212 -0.023002,-0.0902078 -0.17261506,-0.1198104 -0.31402739,-0.069606 -0.0842093,0.0300026 -0.1754173,0.0768067 -0.24102302,0.138212 -0.07800681,0.0728064 -0.09040789,0.1364119 -0.08520744,0.1628142 0.01820359,0.094208 0.14801291,0.1556136 0.20001745,0.2010175 -0.0026,0.0014 -0.005,0.0028 -0.007201,0.004 -0.0260023,0.012799 -0.1250109,0.064606 -0.14981306,0.1194084 -0.02800245,0.062005 0.0044004,0.1066113 0.02600226,0.1126118 0.06680583,0.018602 0.1352118,-0.014801 0.17221502,-0.069806 0.0368012,-0.055005 0.0324028,-0.1264111 0.0154013,-0.1590139 l -6.0205e-4,-0.0012 0.0204018,-0.012001 c 0.0132032,-0.0078 0.0262043,-0.015001 0.0376033,-0.021204 -0.006399,0.017401 -0.011001,0.038003 -0.0133992,0.068006 -0.0028,0.035205 0.011601,0.080807 0.0306027,0.098809 0.008401,0.0078 0.0184016,0.008 0.0246021,0.008 0.0220019,0 0.0320028,-0.018204 0.0430038,-0.040003 0.0136012,-0.026602 0.0256022,-0.057405 0.0256022,-0.057405 0,0 -0.0150013,0.083407 0.0260023,0.083407 0.0150013,0 0.0300026,-0.019402 0.0368032,-0.029403 v 2e-4 c 0,0 4e-4,-6e-4 0.0012,-0.002 a 0.0722663,0.0722663 0 0 0 0.0024,-0.0038 v -4e-4 c 0.006001,-0.010401 0.0194017,-0.034203 0.0394035,-0.073606 0.0258002,-0.050804 0.0506044,-0.11441 0.0506044,-0.11441 0,0 0.0024,0.015601 0.009801,0.041204 0.004398,0.015203 0.0139992,0.031803 0.0213999,0.048004 -0.006,0.0084 -0.009601,0.013203 -0.009601,0.013203 l 2e-4,2e-4 c -0.004798,0.0064 -0.0102009,0.013203 -0.0157994,0.020002 -0.0204018,0.024402 -0.0448039,0.052207 -0.0480042,0.060207 -0.0038,0.0094 -0.003,0.016399 0.0044,0.022002 0.0054,0.004 0.0150013,0.0048 0.0252022,0.004 0.0184016,-0.0012 0.0312027,-0.0058 0.0376033,-0.0086 0.0100009,-0.0036 0.0214019,-0.009 0.0324028,-0.017002 0.0200018,-0.014799 0.0322028,-0.035801 0.0310027,-0.063804 -6.0006e-4,-0.015401 -0.0056,-0.030603 -0.011801,-0.045004 0.0018,-0.0026 0.003602,-0.0052 0.005401,-0.008 0.0316028,-0.046206 0.0560049,-0.097009 0.0560049,-0.097009 0,0 0.0024,0.015601 0.009801,0.041204 0.003798,0.013001 0.011401,0.027204 0.0182016,0.041206 -0.0296027,0.024202 -0.0482043,0.052205 -0.0546048,0.070606 -0.011801,0.034003 -0.0026,0.049404 0.0148013,0.053005 0.007799,0.0016 0.0190016,-0.002 0.0274004,-0.0056 0.0104009,-0.0034 0.023002,-0.0092 0.034605,-0.017802 0.0200018,-0.014801 0.0392034,-0.035403 0.0382033,-0.063206 -6.0005e-4,-0.012801 -0.004,-0.025402 -0.008601,-0.037403 0.0252022,-0.010401 0.057803,-0.016401 0.0992087,-0.011401 0.0890078,0.010401 0.10660933,0.066006 0.10321103,0.089208 -0.0034,0.023204 -0.022002,0.036003 -0.0282045,0.040004 -0.0062,0.0038 -0.008201,0.0052 -0.007601,0.008 8e-4,0.0042 0.0036,0.004 0.009001,0.0032 0.007401,-0.0012 0.0468042,-0.019002 0.0484044,-0.061803 0.0024,-0.055013 -0.0498045,-0.115018 -0.14241256,-0.11442 z m -0.68645987,0.2314202 c -0.0294026,0.032203 -0.0708062,0.044404 -0.0884077,0.034003 -0.01900165,-0.011001 -0.01160301,-0.058405 0.0246021,-0.092608 0.0220019,-0.020802 0.0506044,-0.040004 0.0694061,-0.051805 0.0042,-0.0026 0.0106009,-0.0064 0.0182016,-0.011001 0.0012,-7.98e-4 0.002,-0.0012 0.002,-0.0012 0.0014,-8e-4 0.003,-0.0018 0.0046,-0.0028 0.0134012,0.048804 6e-4,0.091608 -0.0304021,0.125411 z m 0.21501875,-0.1462128 c -0.0102009,0.025002 -0.0318028,0.089208 -0.0448039,0.085607 -0.011203,-0.003 -0.0180016,-0.051604 -0.002202,-0.099609 0.008001,-0.024204 0.0250022,-0.053005 0.035003,-0.064208 0.0162034,-0.018002 0.033803,-0.024002 0.0382053,-0.016601 0.0052,0.0096 -0.0198017,0.079209 -0.0262023,0.09481 z m 0.17741548,0.084807 c -0.0044,0.0022 -0.008401,0.0038 -0.0102009,0.0026 -0.0014,-8e-4 0.001798,-0.0038 0.001798,-0.0038 0,0 0.0222019,-0.023802 0.0310027,-0.034803 0.005,-0.0064 0.011001,-0.013799 0.0174015,-0.022202 v 0.0024 c 2e-6,0.028801 -0.0276004,0.048002 -0.0400015,0.055803 z m 0.13680992,-0.031203 c -0.0032,-0.0024 -0.002798,-0.0098 0.008001,-0.033003 0.004202,-0.0092 0.0138012,-0.024602 0.0304027,-0.039203 0.002,0.006 0.003202,0.011799 0.003,0.017201 -1.98e-4,0.036003 -0.0258003,0.049404 -0.0414037,0.055005 z"
     id="path1"
     style="stroke-width:0.00200017" />
</svg>
