<?xml version="1.0" encoding="UTF-8" standalone="no"?>
<svg
   width="5"
   height="5"
   viewBox="0 0 0.512 0.512"
   preserveAspectRatio="xMidYMid"
   version="1.1"
   id="svg2"
   sodipodi:docname="SemanticUI.svg"
   inkscape:version="1.4 (1:1.4+202410161351+e7c3feb100)"
   xmlns:inkscape="http://www.inkscape.org/namespaces/inkscape"
   xmlns:sodipodi="http://sodipodi.sourceforge.net/DTD/sodipodi-0.dtd"
   xmlns="http://www.w3.org/2000/svg"
   xmlns:svg="http://www.w3.org/2000/svg">
  <defs
     id="defs2" />
  <sodipodi:namedview
     id="namedview2"
     pagecolor="#505050"
     bordercolor="#eeeeee"
     borderopacity="1"
     inkscape:showpageshadow="0"
     inkscape:pageopacity="0"
     inkscape:pagecheckerboard="0"
     inkscape:deskcolor="#505050"
     inkscape:zoom="61.474166"
     inkscape:cx="3.708875"
     inkscape:cy="4.5466253"
     inkscape:window-width="1920"
     inkscape:window-height="1051"
     inkscape:window-x="0"
     inkscape:window-y="0"
     inkscape:window-maximized="1"
     inkscape:current-layer="svg2" />
  <g
     id="g2"
     transform="scale(0.002)">
    <path
       d="M 0,0 H 256 V 256 H 0 Z"
       fill="#34bdb2"
       id="path1" />
    <path
       d="m 168.461,87.041 c -13.516,-7.842 -25.514,-14.009 -41.21,-13.737 -8.98,0.156 -16.69,5.037 -18.311,13.97 -1.509,8.311 5.879,12.921 13.565,15.751 12.747,4.694 23.844,9.65 36.369,14.869 22.769,9.489 34.444,24.856 33.064,44.573 -1.756,25.087 -16.854,43.08 -40.849,49.012 -31.354,7.752 -61.801,-4.056 -87.526,-20.54 6.493,-9.891 14.026,-16.643 20.48,-26.474 14.862,6.326 26.538,14.874 42.086,16.207 10.963,0.94 23.385,0.417 25.848,-12.46 2.22,-11.612 -7.886,-17.837 -17.743,-21.314 -11.735,-4.139 -23.448,-9.202 -34.956,-13.902 -21.273,-8.689 -29.929,-25.684 -28.472,-45.705 0,-11.739 9.74,-35.466 33.621,-42.846 36.692,-11.34 56.908,0.272 83.515,17.371 -7.067,9.346 -12.5,15.991 -19.481,25.225"
       fill="#ffffff"
       id="path2" />
  </g>
</svg>
