<?xml version="1.0" encoding="UTF-8" standalone="no"?>
<svg
   viewBox="0 0 5 4.9999999"
   version="1.1"
   id="svg3"
   sodipodi:docname="webpack.svg"
   width="5"
   height="5"
   inkscape:version="1.4 (1:1.4+202410161351+e7c3feb100)"
   xmlns:inkscape="http://www.inkscape.org/namespaces/inkscape"
   xmlns:sodipodi="http://sodipodi.sourceforge.net/DTD/sodipodi-0.dtd"
   xmlns="http://www.w3.org/2000/svg"
   xmlns:svg="http://www.w3.org/2000/svg"
   xmlns:rdf="http://www.w3.org/1999/02/22-rdf-syntax-ns#"
   xmlns:cc="http://creativecommons.org/ns#"
   xmlns:dc="http://purl.org/dc/elements/1.1/">
  <defs
     id="defs3" />
  <sodipodi:namedview
     id="namedview3"
     pagecolor="#505050"
     bordercolor="#eeeeee"
     borderopacity="1"
     inkscape:showpageshadow="0"
     inkscape:pageopacity="0"
     inkscape:pagecheckerboard="0"
     inkscape:deskcolor="#505050"
     inkscape:zoom="0.96951009"
     inkscape:cx="386.79329"
     inkscape:cy="437.85001"
     inkscape:window-width="1920"
     inkscape:window-height="1051"
     inkscape:window-x="0"
     inkscape:window-y="0"
     inkscape:window-maximized="1"
     inkscape:current-layer="svg3" />
  <title
     id="title1">icon</title>
  <g
     id="g3"
     transform="matrix(0.00645995,0,0,0.00645995,-6.5e-7,-0.32848911)">
    <path
       fill="#ffffff"
       d="M 387,0 774,218.9 V 656.8 L 387,875.7 0,656.8 V 218.9 Z"
       id="path1" />
    <path
       fill="#8ed6fb"
       d="M 704.9,641.7 399.8,814.3 V 679.9 L 589.9,575.3 Z m 20.9,-18.9 V 261.9 l -111.6,64.5 v 232 z M 67.9,641.7 373,814.3 V 679.9 L 182.8,575.3 Z M 47,622.8 V 261.9 l 111.6,64.5 v 232 z M 60.1,238.5 373,61.5 v 129.9 l -200.5,110.3 -1.6,0.9 z m 652.6,0 -312.9,-177 v 129.9 l 200.5,110.2 1.6,0.9 z"
       id="path2" />
    <path
       fill="#1c78c0"
       d="M 373,649.3 185.4,546.1 V 341.8 L 373,450.1 Z m 26.8,0 187.6,-103.1 V 341.8 L 399.8,450.1 Z m -13.4,-207 z M 198.1,318.2 386.4,214.7 574.7,318.2 386.4,426.9 Z"
       id="path3" />
  </g>
  <metadata
     id="metadata3">
    <rdf:RDF>
      <cc:Work
         rdf:about="">
        <dc:title>icon</dc:title>
      </cc:Work>
    </rdf:RDF>
  </metadata>
</svg>
