<?xml version="1.0" encoding="UTF-8" standalone="no"?>
<svg
   width="50"
   height="50"
   viewBox="0 0.388 2.43 2.4298265"
   version="1.1"
   id="svg1"
   xmlns:xlink="http://www.w3.org/1999/xlink"
   xmlns="http://www.w3.org/2000/svg"
   xmlns:svg="http://www.w3.org/2000/svg">
  <defs
     id="defs1">
    <path
       id="a"
       d="M 0,0.39 H 121.5 V 90 H 0 Z" />
  </defs>
  <clipPath
     id="b">
    <use
       xlink:href="#a"
       overflow="visible"
       id="use1" />
  </clipPath>
  <path
     d="m 121.5,43.195 v 4 c -0.038,0.217 -0.086,0.43 -0.111,0.646 -0.207,1.74 -0.341,3.491 -0.627,5.218 -0.934,5.613 -2.953,10.83 -5.953,15.654 -4.556,7.324 -10.715,12.909 -18.455,16.723 a 43.169,43.169 0 0 1 -14.236,4.201 c -1.1,0.127 -2.199,0.241 -3.299,0.362 H 36.135 C 35.92,89.959 35.706,89.895 35.489,89.882 31.185,89.611 27.044,88.63 23.097,86.903 14.504,83.143 8.097,77.049 3.903,68.661 A 35.884,35.884 0 0 1 0.358,56.86 C 0.237,55.861 0.119,54.863 0,53.865 v -3.881 c 0.041,-0.215 0.104,-0.43 0.117,-0.646 0.223,-3.729 0.988,-7.35 2.335,-10.83 3.625,-9.364 9.944,-16.309 18.924,-20.804 4.659,-2.333 9.625,-3.559 14.819,-3.831 2.543,-0.132 5.084,0.01 7.612,0.349 0.229,0.031 0.559,-0.071 0.718,-0.234 3.635,-3.713 7.774,-6.729 12.441,-9.015 4.527,-2.217 9.291,-3.646 14.306,-4.218 1.18,-0.135 2.363,-0.246 3.545,-0.368 h 3.639 c 0.238,0.037 0.477,0.079 0.715,0.107 1.803,0.21 3.616,0.342 5.402,0.641 5.572,0.935 10.759,2.935 15.559,5.906 7.36,4.556 12.969,10.723 16.801,18.487 a 43.067,43.067 0 0 1 4.205,14.246 c 0.13,1.141 0.241,2.282 0.362,3.421 M 53.565,17.312 c 0.073,0.096 0.091,0.141 0.122,0.156 a 48.613,48.613 0 0 1 7.139,4.317 c 0.142,0.103 0.494,0.06 0.666,-0.048 6.188,-3.921 12.896,-5.274 20.102,-3.996 7.061,1.252 12.807,4.78 17.197,10.415 4.971,6.377 6.866,13.588 5.494,21.611 -0.92,5.377 -3.074,10.201 -6.735,14.242 C 90.87,71.376 82.505,74.423 72.658,73.133 66.596,72.339 61.363,69.724 57.032,65.347 51.473,59.732 45.878,54.154 40.303,48.554 c -0.743,-0.746 -1.57,-1.346 -2.64,-1.477 -1.869,-0.229 -3.565,0.704 -4.372,2.383 -0.72,1.499 -0.627,3.189 0.935,4.725 6.215,6.101 12.375,12.258 18.583,18.365 a 30.005,30.005 0 0 0 3.409,2.901 c 4.535,3.293 9.648,5.114 15.185,5.847 4.346,0.574 8.658,0.451 12.937,-0.511 8.162,-1.833 14.923,-5.999 20.248,-12.427 4.397,-5.312 7.056,-11.416 7.983,-18.269 A 35.81,35.81 0 0 0 112.239,38.342 C 111.004,32.012 108.326,26.348 104.035,21.527 95.848,12.334 85.548,8.23 73.291,9.146 68.576,9.498 64.116,10.883 59.919,13.08 a 35.285,35.285 0 0 0 -6.354,4.232 M 50.566,81.488 A 79.384,79.384 0 0 1 50.062,81.017 C 47.521,78.618 44.966,76.234 42.455,73.804 41.969,73.334 41.522,73.105 40.834,73.121 38.291,73.183 35.746,73.194 33.24,72.628 20.78,69.81 13.545,56.263 18.137,44.343 21.759,34.944 31.786,29.22 41.674,30.985 c 4.432,0.791 8.322,2.667 11.515,5.96 3.894,4.02 7.904,7.925 11.84,11.904 0.896,0.906 1.925,1.319 3.166,1.142 1.604,-0.229 2.881,-0.993 3.461,-2.566 0.568,-1.548 0.293,-3.014 -0.879,-4.201 C 66.646,39.039 62.613,34.749 58.315,30.742 49.979,22.967 40.149,20.655 29.277,23.961 14.654,28.404 6.096,43.504 9.437,58.404 12.482,71.98 24.355,81.508 38.248,81.52 c 3.879,0.004 7.759,0.002 11.638,0 0.192,0 0.384,-0.017 0.68,-0.032"
     clip-path="url(#b)"
     fill="#da1f26"
     id="path1"
     transform="matrix(0.02,0,0,0.02,0,0.69902325)" />
</svg>
