<?xml version="1.0" encoding="UTF-8" standalone="no"?>
<!-- Created with Inkscape (http://www.inkscape.org/) -->

<svg
   width="50"
   height="50"
   viewBox="0 0 13.229166 13.229167"
   version="1.1"
   id="svg65093"
   sodipodi:docname="location.svg"
   inkscape:version="1.2.2 (1:1.2.2+202212051552+b0a8486541)"
   xmlns:inkscape="http://www.inkscape.org/namespaces/inkscape"
   xmlns:sodipodi="http://sodipodi.sourceforge.net/DTD/sodipodi-0.dtd"
   xmlns="http://www.w3.org/2000/svg"
   xmlns:svg="http://www.w3.org/2000/svg">
  <sodipodi:namedview
     id="namedview65095"
     pagecolor="#ffffff"
     bordercolor="#000000"
     borderopacity="0.25"
     inkscape:showpageshadow="2"
     inkscape:pageopacity="0.0"
     inkscape:pagecheckerboard="0"
     inkscape:deskcolor="#d1d1d1"
     inkscape:document-units="px"
     showgrid="false"
     inkscape:zoom="5.6159371"
     inkscape:cx="-1.6916144"
     inkscape:cy="47.899397"
     inkscape:window-width="1920"
     inkscape:window-height="1043"
     inkscape:window-x="0"
     inkscape:window-y="0"
     inkscape:window-maximized="1"
     inkscape:current-layer="layer1" />
  <defs
     id="defs65090" />
  <g
     inkscape:label="Layer 1"
     inkscape:groupmode="layer"
     id="layer1">
    <g
       id="g65054"
       transform="matrix(2.8970289,0,0,2.8970289,-943.46604,-397.57262)"
       style="stroke-width:0.345181">
      <path
         d="m 327.94926,140.41318 -0.0895,-0.0817 c -0.31524,-0.28702 -0.52637,-0.47722 -0.52637,-0.70878 0,-0.19021 0.15032,-0.33858 0.34004,-0.33858 0.10659,0 0.20919,0.0496 0.27583,0.12745 0.0681,-0.0778 0.17075,-0.12745 0.27729,-0.12745 0.19021,0 0.33859,0.14837 0.33859,0.33858 0,0.23156 -0.20919,0.42176 -0.52685,0.70878 z"
         style="fill:#ff0000;fill-opacity:1;fill-rule:nonzero;stroke:none;stroke-width:0.121772"
         id="path560" />
      <path
         d="m 327.94927,138.19343 1.14223,1.0279 v 1.78048 h -2.28251 v -1.78048 z m 1.59806,3.26468 v -1.8262 h 0.6859 l -2.28396,-2.05435 -2.2825,2.05435 h 0.68445 v 1.8262 z"
         style="fill:#333333;fill-opacity:1;fill-rule:nonzero;stroke:none;stroke-width:0.121772"
         id="path568" />
    </g>
  </g>
</svg>
