<svg width="50" height="50" fill="none" version="1.1" viewBox="0 0 50 50" xmlns="http://www.w3.org/2000/svg">
 <path d="m29.362 5.5728c-2.1078-2.4898-3.9228-5.0185-4.2936-5.5437-0.03903-0.038903-0.0976-0.038903-0.13663 0-0.37081 0.52519-2.1859 3.0539-4.2936 5.5437-18.092 22.972 2.8494 38.475 2.8494 38.475l0.17564 0.11667c0.15612 2.3926 0.54645 5.8355 0.54645 5.8355h1.5613s0.39035-3.4234 0.54647-5.8355l0.17562-0.13605c0.01953 0 20.961-15.484 2.8689-38.456zm-4.3717 38.125s-0.93678-0.79748-1.1905-1.206v-0.03876l1.1319-25.015c0-0.07781 0.11711-0.07781 0.11711 0l1.1319 25.015v0.03876c-0.25372 0.40853-1.1905 1.206-1.1905 1.206z" fill="#00684a"/>
</svg>
