<?xml version="1.0" encoding="UTF-8" standalone="no"?>
<svg
   width="10"
   height="10"
   viewBox="0 0 10 10"
   version="1.1"
   id="svg1"
   sodipodi:docname="Canvas.svg"
   inkscape:version="1.4 (1:1.4+202410161351+e7c3feb100)"
   xml:space="preserve"
   xmlns:inkscape="http://www.inkscape.org/namespaces/inkscape"
   xmlns:sodipodi="http://sodipodi.sourceforge.net/DTD/sodipodi-0.dtd"
   xmlns="http://www.w3.org/2000/svg"
   xmlns:svg="http://www.w3.org/2000/svg"><defs
     id="defs1" /><sodipodi:namedview
     id="namedview1"
     pagecolor="#505050"
     bordercolor="#ffffff"
     borderopacity="1"
     inkscape:showpageshadow="0"
     inkscape:pageopacity="0"
     inkscape:pagecheckerboard="1"
     inkscape:deskcolor="#505050"
     inkscape:zoom="22.627417"
     inkscape:cx="11.38"
     inkscape:cy="13.50132"
     inkscape:window-width="1920"
     inkscape:window-height="1051"
     inkscape:window-x="0"
     inkscape:window-y="0"
     inkscape:window-maximized="1"
     inkscape:current-layer="g1"><inkscape:page
       x="0"
       y="0"
       width="10"
       height="10"
       id="page1"
       margin="0"
       bleed="0" /></sodipodi:namedview><g
     id="g1"
     inkscape:groupmode="layer"
     inkscape:label="1"
     transform="translate(15)"><g
       id="g33"
       transform="matrix(0.10301208,0,0,0.10301208,-18.232327,-3.3168795)"><path
         id="path2"
         d="m 45.457332,80.631469 c 0,-7.167733 -5.3792,-13.0688 -12.316666,-13.919867 -1.1516,4.446934 -1.762533,9.111067 -1.762533,13.919867 0,4.804133 0.610933,9.474533 1.762533,13.919199 6.9416,-0.850933 12.316666,-6.754133 12.316666,-13.919199"
         style="fill:#ed1b29;fill-opacity:1;fill-rule:nonzero;stroke:none;stroke-width:0.133333" /><path
         id="path3"
         d="m 53.615599,76.228802 c -2.430667,0 -4.4,1.973467 -4.4,4.402667 0,2.428666 1.969333,4.4 4.4,4.4 2.431333,0 4.402666,-1.971334 4.402666,-4.4 0,-2.4292 -1.971333,-4.402667 -4.402666,-4.402667"
         style="fill:#ed1b29;fill-opacity:1;fill-rule:nonzero;stroke:none;stroke-width:0.133333" /><path
         id="path4"
         d="m 114.37293,80.631469 c 0,7.165066 5.37707,13.068266 12.31667,13.919199 1.14946,-4.444666 1.76453,-9.115066 1.76453,-13.919199 0,-4.8088 -0.61507,-9.472933 -1.76453,-13.919867 -6.9396,0.851067 -12.31667,6.752134 -12.31667,13.919867"
         style="fill:#ed1b29;fill-opacity:1;fill-rule:nonzero;stroke:none;stroke-width:0.133333" /><path
         id="path5"
         d="m 106.2136,76.228802 c -2.43294,0 -4.40214,1.973467 -4.40214,4.402667 0,2.428666 1.9692,4.4 4.40214,4.4 2.42906,0 4.40253,-1.971334 4.40253,-4.4 0,-2.4292 -1.97347,-4.402667 -4.40253,-4.402667"
         style="fill:#ed1b29;fill-opacity:1;fill-rule:nonzero;stroke:none;stroke-width:0.133333" /><path
         id="path6"
         d="m 79.822931,115.2116 c -7.165066,0 -13.066133,5.38187 -13.919866,12.3172 4.451067,1.14947 9.113066,1.76253 13.924,1.76253 4.808933,0 9.468799,-0.61306 13.917733,-1.76253 -0.8516,-6.93533 -6.75,-12.3172 -13.921867,-12.3172"
         style="fill:#ed1b29;fill-opacity:1;fill-rule:nonzero;stroke:none;stroke-width:0.133333" /><path
         id="path7"
         d="m 79.826531,102.65027 c -2.433333,0 -4.400533,1.97333 -4.400533,4.40413 0,2.4312 1.9672,4.40253 4.400533,4.40253 2.428667,0 4.398,-1.97133 4.398,-4.40253 0,-2.4308 -1.969333,-4.40413 -4.398,-4.40413"
         style="fill:#ed1b29;fill-opacity:1;fill-rule:nonzero;stroke:none;stroke-width:0.133333" /><path
         id="path8"
         d="m 79.826531,46.261603 c 7.1672,0 13.0656,-5.379067 13.919333,-12.316666 -4.448933,-1.147334 -9.110933,-1.7624 -13.919333,-1.7624 -4.8088,0 -9.472933,0.615066 -13.921866,1.7624 0.8516,6.937599 6.752133,12.316666 13.921866,12.316666"
         style="fill:#ed1b29;fill-opacity:1;fill-rule:nonzero;stroke:none;stroke-width:0.133333" /><path
         id="path9"
         d="m 79.826531,50.021603 c -2.433333,0 -4.400533,1.968666 -4.400533,4.4 0,2.428666 1.9672,4.4 4.400533,4.4 2.428667,0 4.398,-1.971334 4.398,-4.4 0,-2.431334 -1.969333,-4.4 -4.398,-4.4"
         style="fill:#ed1b29;fill-opacity:1;fill-rule:nonzero;stroke:none;stroke-width:0.133333" /><path
         id="path10"
         d="m 104.23333,105.0356 c -5.062532,5.06667 -5.436932,13.0344 -1.1432,18.53907 8.11253,-4.78067 14.90107,-11.57134 19.68013,-19.68587 -5.5072,-4.287598 -13.47293,-3.912532 -18.53693,1.1468"
         style="fill:#ed1b29;fill-opacity:1;fill-rule:nonzero;stroke:none;stroke-width:0.133333" /><path
         id="path11"
         d="m 95.348931,96.154935 c -1.7156,1.720267 -1.7156,4.506665 0,6.224395 1.7224,1.7204 4.5068,1.7204 6.226529,0 1.71627,-1.71773 1.71627,-4.504128 0,-6.224395 -1.719729,-1.717733 -4.504129,-1.717733 -6.226529,0"
         style="fill:#ed1b29;fill-opacity:1;fill-rule:nonzero;stroke:none;stroke-width:0.133333" /><path
         id="path28"
         d="m 55.495332,56.298669 c 5.064,-5.062 5.4364,-13.029733 1.142667,-18.537066 -8.114534,4.783333 -14.901067,11.569866 -19.681733,19.6824 5.5068,4.295733 13.476533,3.9192 18.539066,-1.145334"
         style="fill:#ed1b29;fill-opacity:1;fill-rule:nonzero;stroke:none;stroke-width:0.133333" /><path
         id="path29"
         d="m 58.152132,58.958003 c -1.716133,1.717733 -1.716133,4.506799 0,6.224533 1.7176,1.717733 4.506266,1.717733 6.223866,0 1.718267,-1.717734 1.718267,-4.5068 0,-6.224533 -1.7176,-1.7156 -4.506266,-1.7156 -6.223866,0"
         style="fill:#ed1b29;fill-opacity:1;fill-rule:nonzero;stroke:none;stroke-width:0.133333" /><path
         id="path30"
         d="m 104.20266,56.254936 c 5.06454,5.062 13.03014,5.4364 18.53694,1.1432 -4.77867,-8.115067 -11.5672,-14.9016 -19.67974,-19.682266 -4.293729,5.5068 -3.919196,13.474399 1.1428,18.539066"
         style="fill:#ed1b29;fill-opacity:1;fill-rule:nonzero;stroke:none;stroke-width:0.133333" /><path
         id="path31"
         d="m 101.5464,65.135602 c 1.71346,-1.717733 1.71346,-4.506266 0,-6.224399 -1.719869,-1.717734 -4.510402,-1.717734 -6.226669,0 -1.7156,1.718133 -1.7156,4.506666 0,6.224399 1.716267,1.7156 4.5068,1.7156 6.226669,0"
         style="fill:#ed1b29;fill-opacity:1;fill-rule:nonzero;stroke:none;stroke-width:0.133333" /><path
         id="path32"
         d="m 55.469732,104.98307 c -5.061867,-5.062002 -13.0296,-5.436535 -18.536933,-1.14747 4.7812,8.11467 11.569866,14.9052 19.6844,19.68653 4.293733,-5.5068 3.919199,-13.4724 -1.147467,-18.53906"
         style="fill:#ed1b29;fill-opacity:1;fill-rule:nonzero;stroke:none;stroke-width:0.133333" /><path
         id="path33"
         d="m 58.128665,96.101202 c -1.714133,1.7204 -1.714133,4.506798 0,6.224528 1.719734,1.71827 4.508267,1.71827 6.224,0 1.720267,-1.71773 1.720267,-4.504128 0,-6.224528 -1.715733,-1.7176 -4.504266,-1.7176 -6.224,0"
         style="fill:#ed1b29;fill-opacity:1;fill-rule:nonzero;stroke:none;stroke-width:0.133333" /></g></g></svg>
