<?xml version="1.0" encoding="UTF-8" standalone="no"?>
<!-- Created with Inkscape (http://www.inkscape.org/) -->

<svg
   width="32"
   height="32"
   viewBox="0 0 8.4666665 8.4666666"
   version="1.1"
   id="svg1"
   xml:space="preserve"
   sodipodi:docname="favicon.svg"
   inkscape:version="1.3.2 (1:1.3.2+202311252150+091e20ef0f)"
   xmlns:inkscape="http://www.inkscape.org/namespaces/inkscape"
   xmlns:sodipodi="http://sodipodi.sourceforge.net/DTD/sodipodi-0.dtd"
   xmlns="http://www.w3.org/2000/svg"
   xmlns:svg="http://www.w3.org/2000/svg"><sodipodi:namedview
     id="namedview1"
     pagecolor="#505050"
     bordercolor="#ffffff"
     borderopacity="1"
     inkscape:showpageshadow="0"
     inkscape:pageopacity="0"
     inkscape:pagecheckerboard="1"
     inkscape:deskcolor="#505050"
     inkscape:document-units="px"
     showguides="true"
     inkscape:zoom="12.015825"
     inkscape:cx="24.925463"
     inkscape:cy="33.247821"
     inkscape:window-width="1920"
     inkscape:window-height="1043"
     inkscape:window-x="0"
     inkscape:window-y="0"
     inkscape:window-maximized="1"
     inkscape:current-layer="layer1"><sodipodi:guide
       position="4.2333335,0.77638541"
       orientation="1,0"
       id="guide5"
       inkscape:locked="false" /><sodipodi:guide
       position="7.6902813,4.2333333"
       orientation="0,-1"
       id="guide6"
       inkscape:locked="false" /></sodipodi:namedview><defs
     id="defs1" /><g
     inkscape:label="Layer 1"
     inkscape:groupmode="layer"
     id="layer1"><g
       id="g18"><path
         id="rect1"
         style="fill:#222629;fill-opacity:1;stroke-width:4.99999;stroke-miterlimit:21.2"
         d="m 4.7781681,0.26450811 -1.0896197,5.345e-5 A 1.0583333,1.0583333 0 0 1 3.0413762,1.3556943 1.0583333,1.0583333 0 0 1 1.812209,1.0417668 L 1.0416937,1.8122065 A 1.0583333,1.0583333 0 0 1 1.3558749,3.041451 1.0583333,1.0583333 0 0 1 0.26450816,3.6884984 l 5.346e-5,1.0896198 A 1.0583333,1.0583333 0 0 1 1.3556943,5.4252904 1.0583333,1.0583333 0 0 1 1.0417668,6.6544576 L 1.8122065,7.4249728 A 1.0583333,1.0583333 0 0 1 3.041451,7.1107917 1.0583333,1.0583333 0 0 1 3.6884984,8.2021585 L 4.7781181,8.202105 A 1.0583333,1.0583333 0 0 1 5.4252904,7.1109722 1.0583333,1.0583333 0 0 1 6.6544576,7.4248997 L 7.4249729,6.65446 A 1.0583333,1.0583333 0 0 1 7.1107917,5.4252156 1.0583333,1.0583333 0 0 1 8.2021585,4.7781681 L 8.202105,3.6885484 A 1.0583333,1.0583333 0 0 1 7.1109723,3.0413762 1.0583333,1.0583333 0 0 1 7.4248997,1.812209 L 6.65446,1.0416937 A 1.0583333,1.0583333 0 0 1 5.4252156,1.3558749 1.0583333,1.0583333 0 0 1 4.7781681,0.26450811 Z" /><path
         style="font-weight:bold;font-size:3.52485px;line-height:1;font-family:'IBM Plex Sans';-inkscape-font-specification:'IBM Plex Sans Bold';text-align:center;letter-spacing:0px;text-anchor:middle;fill:#f9f9f9;stroke-width:5.00001;stroke-miterlimit:21.2"
         d="m 5.4229667,5.5058039 q -0.2502643,0 -0.4511808,-0.077547 Q 4.7708695,5.3471857 4.6298755,5.1920923 4.4888815,5.0334741 4.4113348,4.800834 4.3337881,4.564669 4.3337881,4.2509574 q 0,-0.3101868 0.077547,-0.5498766 0.077547,-0.2432146 0.2185407,-0.4053577 0.140994,-0.165668 0.3419104,-0.2502644 0.2009165,-0.084596 0.4511808,-0.084596 0.3419105,0 0.563976,0.140994 0.2220655,0.1374692 0.3560098,0.4370814 L 5.8811972,3.7786275 Q 5.8318493,3.6235341 5.7261038,3.531888 5.6238832,3.4367171 5.4229667,3.4367171 q -0.2361649,0 -0.3806838,0.1550934 -0.140994,0.1515685 -0.140994,0.444131 v 0.3947832 q 0,0.2925626 0.140994,0.447656 0.1445189,0.1515685 0.3806838,0.1515685 0.1973916,0 0.3137117,-0.1057455 Q 5.8565232,4.8149334 5.9129208,4.6633648 L 6.3500022,4.917154 Q 6.2125331,5.199142 5.9869427,5.3542354 5.7648772,5.5058039 5.4229667,5.5058039 Z"
         id="path18" /><path
         style="font-weight:bold;font-size:3.52485px;line-height:1;font-family:'IBM Plex Sans';-inkscape-font-specification:'IBM Plex Sans Bold';text-align:center;letter-spacing:0px;text-anchor:middle;fill:#f9f9f9;stroke-width:5.00001;stroke-miterlimit:21.2"
         d="M 2.1166638,5.4635057 V 3.0031605 h 1.1632005 q 0.1727177,0 0.3101868,0.059922 0.1374691,0.056398 0.2326401,0.1586182 0.098696,0.1022207 0.1515685,0.2502644 0.052873,0.1445188 0.052873,0.3172364 0,0.1762425 -0.052873,0.3207614 Q 3.921387,4.2544822 3.8226912,4.3567029 3.7275202,4.4589235 3.5900511,4.518846 3.452582,4.5752436 3.2798643,4.5752436 H 2.652441 V 5.4635057 Z M 2.652441,4.1099634 h 0.563976 q 0.1198449,0 0.1868171,-0.059922 0.070497,-0.063447 0.070497,-0.1832922 V 3.7116553 q 0,-0.1198448 -0.070497,-0.1797673 Q 3.3362619,3.4684407 3.216417,3.4684407 H 2.652441 Z"
         id="text1" /></g></g></svg>
