<?xml version="1.0" encoding="UTF-8" standalone="no"?>
<svg
   fill="none"
   height="5"
   width="5"
   viewBox="0 0 5 5"
   version="1.1"
   id="svg27"
   sodipodi:docname="Fusion360.svg"
   inkscape:version="1.4 (1:1.4+202410161351+e7c3feb100)"
   xml:space="preserve"
   xmlns:inkscape="http://www.inkscape.org/namespaces/inkscape"
   xmlns:sodipodi="http://sodipodi.sourceforge.net/DTD/sodipodi-0.dtd"
   xmlns="http://www.w3.org/2000/svg"
   xmlns:svg="http://www.w3.org/2000/svg"><defs
     id="defs27"><linearGradient
       x1="0"
       y1="0"
       x2="1"
       y2="0"
       gradientUnits="userSpaceOnUse"
       gradientTransform="matrix(86.248442,-230.36257,66.601404,298.31819,31.271725,647.42351)"
       spreadMethod="pad"
       id="linearGradient12"><stop
         style="stop-opacity:1;stop-color:#a75726"
         offset="0"
         id="stop2-3" /><stop
         style="stop-opacity:1;stop-color:#a75726"
         offset="0.001"
         id="stop3-6" /><stop
         style="stop-opacity:1;stop-color:#c5702b"
         offset="0.281"
         id="stop4-7" /><stop
         style="stop-opacity:1;stop-color:#d7802f"
         offset="0.521"
         id="stop5-5" /><stop
         style="stop-opacity:1;stop-color:#de8530"
         offset="0.692"
         id="stop6-3" /><stop
         style="stop-opacity:1;stop-color:#da832f"
         offset="0.764"
         id="stop7-5" /><stop
         style="stop-opacity:1;stop-color:#ce7c2e"
         offset="0.839"
         id="stop8-6" /><stop
         style="stop-opacity:1;stop-color:#b9702b"
         offset="0.914"
         id="stop9-2" /><stop
         style="stop-opacity:1;stop-color:#9d5f26"
         offset="0.989"
         id="stop10-9" /><stop
         style="stop-opacity:1;stop-color:#9a5e26"
         offset="0.995"
         id="stop11-1" /><stop
         style="stop-opacity:1;stop-color:#9a5e26"
         offset="1"
         id="stop12-2" /></linearGradient><linearGradient
       x1="0"
       y1="0"
       x2="1"
       y2="0"
       gradientUnits="userSpaceOnUse"
       gradientTransform="matrix(2090.8158,686.8587,-399.80199,3592.0155,1071.7546,842.90368)"
       spreadMethod="pad"
       id="linearGradient23"><stop
         style="stop-opacity:1;stop-color:#a75726"
         offset="0"
         id="stop13-7" /><stop
         style="stop-opacity:1;stop-color:#a75726"
         offset="0.001"
         id="stop14-0" /><stop
         style="stop-opacity:1;stop-color:#c5702b"
         offset="0.281"
         id="stop15-9" /><stop
         style="stop-opacity:1;stop-color:#d7802f"
         offset="0.521"
         id="stop16-3" /><stop
         style="stop-opacity:1;stop-color:#de8530"
         offset="0.692"
         id="stop17-6" /><stop
         style="stop-opacity:1;stop-color:#da832f"
         offset="0.764"
         id="stop18" /><stop
         style="stop-opacity:1;stop-color:#ce7c2e"
         offset="0.839"
         id="stop19" /><stop
         style="stop-opacity:1;stop-color:#b9702b"
         offset="0.914"
         id="stop20" /><stop
         style="stop-opacity:1;stop-color:#9d5f26"
         offset="0.989"
         id="stop21" /><stop
         style="stop-opacity:1;stop-color:#9a5e26"
         offset="0.995"
         id="stop22" /><stop
         style="stop-opacity:1;stop-color:#9a5e26"
         offset="1"
         id="stop23" /></linearGradient><radialGradient
       fx="0"
       fy="0"
       cx="0"
       cy="0"
       r="1"
       gradientUnits="userSpaceOnUse"
       gradientTransform="matrix(104.48174,0,0,104.48174,140.4472,567.29566)"
       spreadMethod="pad"
       id="radialGradient29"><stop
         style="stop-opacity:1;stop-color:#ab8052"
         offset="0"
         id="stop24" /><stop
         style="stop-opacity:1;stop-color:#ab8052"
         offset="0.338"
         id="stop25" /><stop
         style="stop-opacity:1;stop-color:#b18453"
         offset="0.374"
         id="stop26" /><stop
         style="stop-opacity:1;stop-color:#daa259"
         offset="0.651"
         id="stop27" /><stop
         style="stop-opacity:1;stop-color:#f4b55e"
         offset="0.869"
         id="stop28" /><stop
         style="stop-opacity:1;stop-color:#fdbc5f"
         offset="1"
         id="stop29" /></radialGradient><radialGradient
       fx="0"
       fy="0"
       cx="0"
       cy="0"
       r="1"
       gradientUnits="userSpaceOnUse"
       gradientTransform="matrix(360.63134,0,0,360.63134,2000.6989,573.76909)"
       spreadMethod="pad"
       id="radialGradient35"><stop
         style="stop-opacity:1;stop-color:#ab8052"
         offset="0"
         id="stop30" /><stop
         style="stop-opacity:1;stop-color:#ab8052"
         offset="0.338"
         id="stop31" /><stop
         style="stop-opacity:1;stop-color:#b18453"
         offset="0.374"
         id="stop32" /><stop
         style="stop-opacity:1;stop-color:#daa259"
         offset="0.651"
         id="stop33" /><stop
         style="stop-opacity:1;stop-color:#f4b55e"
         offset="0.869"
         id="stop34" /><stop
         style="stop-opacity:1;stop-color:#fdbc5f"
         offset="1"
         id="stop35" /></radialGradient><clipPath
       clipPathUnits="userSpaceOnUse"
       id="clipPath37"><path
         d="M 0,800 H 800 V 0 H 0 Z"
         transform="translate(-78.308604,-318.27731)"
         id="path37" /></clipPath><radialGradient
       fx="0"
       fy="0"
       cx="0"
       cy="0"
       r="1"
       gradientUnits="userSpaceOnUse"
       gradientTransform="matrix(36.350648,0,0,36.350648,163.26188,517.21359)"
       spreadMethod="pad"
       id="radialGradient42"><stop
         style="stop-opacity:1;stop-color:#de8530"
         offset="0"
         id="stop37" /><stop
         style="stop-opacity:1;stop-color:#da832f"
         offset="0.226"
         id="stop38" /><stop
         style="stop-opacity:1;stop-color:#ce7c2d"
         offset="0.451"
         id="stop39" /><stop
         style="stop-opacity:1;stop-color:#ba702a"
         offset="0.675"
         id="stop40" /><stop
         style="stop-opacity:1;stop-color:#9e6026"
         offset="0.899"
         id="stop41" /><stop
         style="stop-opacity:1;stop-color:#8f5723"
         offset="1"
         id="stop42" /></radialGradient><clipPath
       clipPathUnits="userSpaceOnUse"
       id="clipPath44"><path
         d="M 0,800 H 800 V 0 H 0 Z"
         transform="translate(-137.3506,-449.79491)"
         id="path44" /></clipPath><clipPath
       clipPathUnits="userSpaceOnUse"
       id="clipPath46"><path
         d="M 0,800 H 800 V 0 H 0 Z"
         transform="translate(-123.39501,-410.98581)"
         id="path46" /></clipPath><clipPath
       clipPathUnits="userSpaceOnUse"
       id="clipPath48"><path
         d="M 0,800 H 800 V 0 H 0 Z"
         transform="translate(-311.45311,-485.36871)"
         id="path48" /></clipPath><clipPath
       clipPathUnits="userSpaceOnUse"
       id="clipPath50"><path
         d="M 0,800 H 800 V 0 H 0 Z"
         transform="translate(-371.53861,-479.48681)"
         id="path50" /></clipPath><clipPath
       clipPathUnits="userSpaceOnUse"
       id="clipPath52"><path
         d="M 0,800 H 800 V 0 H 0 Z"
         transform="translate(-501.19631,-458.80471)"
         id="path52" /></clipPath><clipPath
       clipPathUnits="userSpaceOnUse"
       id="clipPath54"><path
         d="M 0,800 H 800 V 0 H 0 Z"
         transform="translate(-527.05571,-479.58151)"
         id="path54" /></clipPath><clipPath
       clipPathUnits="userSpaceOnUse"
       id="clipPath56"><path
         d="M 0,800 H 800 V 0 H 0 Z"
         transform="translate(-700.44342,-478.76861)"
         id="path56" /></clipPath><clipPath
       clipPathUnits="userSpaceOnUse"
       id="clipPath58"><path
         d="M 0,800 H 800 V 0 H 0 Z"
         transform="translate(-213.10251,-374.96971)"
         id="path58" /></clipPath><clipPath
       clipPathUnits="userSpaceOnUse"
       id="clipPath60"><path
         d="M 0,800 H 800 V 0 H 0 Z"
         transform="translate(-317.77781,-338.75101)"
         id="path60" /></clipPath><clipPath
       clipPathUnits="userSpaceOnUse"
       id="clipPath62"><path
         d="M 0,800 H 800 V 0 H 0 Z"
         transform="translate(0,2.5000001e-5)"
         id="path62" /></clipPath><clipPath
       clipPathUnits="userSpaceOnUse"
       id="clipPath64"><path
         d="M 0,800 H 800 V 0 H 0 Z"
         transform="translate(-466.41021,-360.02441)"
         id="path64" /></clipPath><clipPath
       clipPathUnits="userSpaceOnUse"
       id="clipPath66"><path
         d="M 0,800 H 800 V 0 H 0 Z"
         transform="translate(-535.98241,-384.17191)"
         id="path66" /></clipPath><clipPath
       clipPathUnits="userSpaceOnUse"
       id="clipPath68"><path
         d="M 0,800 H 800 V 0 H 0 Z"
         transform="translate(-751.02542,-384.17191)"
         id="path68" /></clipPath></defs><sodipodi:namedview
     id="namedview27"
     pagecolor="#505050"
     bordercolor="#eeeeee"
     borderopacity="1"
     inkscape:showpageshadow="0"
     inkscape:pageopacity="0"
     inkscape:pagecheckerboard="0"
     inkscape:deskcolor="#505050"
     inkscape:zoom="53.0625"
     inkscape:cx="7.0482921"
     inkscape:cy="4.1931684"
     inkscape:window-width="1920"
     inkscape:window-height="1051"
     inkscape:window-x="0"
     inkscape:window-y="0"
     inkscape:window-maximized="1"
     inkscape:current-layer="g1"><inkscape:page
       x="0"
       y="0"
       width="5"
       height="5"
       id="page28"
       margin="0"
       bleed="0" /></sodipodi:namedview><radialGradient
     id="logo-bottom-left"
     cx="0"
     cy="0"
     gradientTransform="matrix(-59,-225,150,-39,161.4,470)"
     gradientUnits="userSpaceOnUse"
     r="1"><stop
       offset="0"
       stop-color="#fff"
       stop-opacity=".4"
       id="stop1" /><stop
       offset="1"
       stop-opacity=".1"
       id="stop2" /></radialGradient><radialGradient
     id="logo-top-right"
     cx="0"
     cy="0"
     gradientTransform="matrix(50,-379,280,37,360,374.2)"
     gradientUnits="userSpaceOnUse"
     r="1"><stop
       offset="0"
       stop-color="#fff"
       stop-opacity=".6"
       id="stop3" /><stop
       offset="1"
       stop-color="#fff"
       stop-opacity=".1"
       id="stop4" /></radialGradient><radialGradient
     id="logo-top-left"
     cx="0"
     cy="0"
     gradientTransform="matrix(69,-319,218,47,175.4,307)"
     gradientUnits="userSpaceOnUse"
     r="1"><stop
       offset="0"
       stop-color="#fff"
       stop-opacity=".8"
       id="stop5" /><stop
       offset="1"
       stop-color="#fff"
       stop-opacity=".4"
       id="stop6" /></radialGradient><radialGradient
     id="logo-bottom-right"
     cx="0"
     cy="0"
     gradientTransform="matrix(-96,-163,187,-111,335.3,512.2)"
     gradientUnits="userSpaceOnUse"
     r="1"><stop
       offset="0"
       stop-color="#fff"
       stop-opacity=".3"
       id="stop7" /><stop
       offset="1"
       stop-opacity=".3"
       id="stop8" /></radialGradient><radialGradient
     id="logo-top-edge"
     cx="0"
     cy="0"
     gradientTransform="matrix(-36,166,-112,-24,310,128.2)"
     gradientUnits="userSpaceOnUse"
     r="1"><stop
       offset="0"
       stop-color="#fff"
       stop-opacity="0"
       id="stop9" /><stop
       offset="1"
       stop-color="#fff"
       stop-opacity=".2"
       id="stop10" /></radialGradient><radialGradient
     id="logo-left-edge"
     cx="0"
     cy="0"
     gradientTransform="matrix(88,89,-190,187,111,220.2)"
     gradientUnits="userSpaceOnUse"
     r="1"><stop
       offset="0"
       stop-color="#fff"
       stop-opacity=".2"
       id="stop11" /><stop
       offset="1"
       stop-color="#fff"
       stop-opacity=".4"
       id="stop12" /></radialGradient><radialGradient
     id="logo-bottom-edge"
     cx="0"
     cy="0"
     gradientTransform="matrix(9,130,-276,20,215,284)"
     gradientUnits="userSpaceOnUse"
     r="1"><stop
       offset="0"
       stop-color="#fff"
       stop-opacity=".2"
       id="stop13" /><stop
       offset="1"
       stop-color="#fff"
       stop-opacity=".3"
       id="stop14" /></radialGradient><radialGradient
     id="logo-middle-edge"
     cx="0"
     cy="0"
     gradientTransform="matrix(-198,-104,327,-623,400,399.2)"
     gradientUnits="userSpaceOnUse"
     r="1"><stop
       offset="0"
       stop-color="#fff"
       stop-opacity=".2"
       id="stop15" /><stop
       offset=".5"
       stop-color="#fff"
       stop-opacity=".2"
       id="stop16" /><stop
       offset="1"
       stop-color="#fff"
       stop-opacity=".3"
       id="stop17" /></radialGradient><clipPath
     id="clip"><path
       d="m 0.2,0.2 h 512 v 512 H 0.2 Z"
       id="path17" /></clipPath><g
     id="g1"
     inkscape:groupmode="layer"
     inkscape:label="1"
     transform="translate(15)"><g
       id="g29"
       transform="matrix(0.02229913,0,0,0.02229913,-14.987848,-9.3546943)"><path
         id="path12"
         d="m 39.999999,433.88272 c 0,24.41733 1.429333,156.67333 5.725333,202.66666 v 0 c 5.726667,4.31466 58.686668,5.752 58.686668,5.752 v 0 c -84.449334,-130.8 -42.941335,-194.04533 -21.470669,-222.792 v 0 c -14.594666,3.908 -28.934666,8.70934 -42.941332,14.37334"
         style="fill:url(#linearGradient12);stroke:none;stroke-width:1.33333" /><path
         id="path23-0"
         d="m 104.40666,642.29738 h 0.005 C 91.530664,613.55338 39.999999,517.24805 78.643998,477.00538 v 0 C 111.568,442.50938 183.13066,465.50672 183.13066,465.50672 v 0 c 0,0 -4.29333,-21.54267 -7.156,-30.18667 v 0 c -1.12266,-2.56533 -3.16533,-4.61733 -5.72533,-5.75067 v 0 c -29.24667,-5.836 -58.932,-9.20133 -88.741332,-10.06 v 0 c 1.429333,0 -77.2933314,67.556 22.898662,222.788"
         style="fill:url(#linearGradient23);stroke:none;stroke-width:1.33333" /><path
         id="path29"
         d="m 70.054665,489.92538 v 1.436 0.0133 c -22.832,47.32267 34.079995,150.43067 34.351995,152.34667 v 0 c -1.43066,-16.73334 -1.43066,-33.56 0,-50.29333 v 0 c 1.42934,-15.812 2.864,-28.748 22.9,-34.496 v 0 c 17.00267,-3.50667 34.21734,-5.90267 51.53067,-7.16667 v 0 c -1.42933,-1.44 -10.01733,-5.752 -57.252,-4.31467 v 0 c -28.626666,0 -27.197332,-28.748 -5.72667,-30.18533 v 0 c 16.712,-0.58933 33.44667,-0.10933 50.096,1.43733 v 0 c 0,0 -27.19466,-4.31466 -45.804,-8.624 v 0 c -10.67066,-0.40133 -18.996,-9.37866 -18.59333,-20.05066 v 0 l 0.004,-0.10267 z m 34.351995,153.808 c 0,-0.003 0,-0.007 0,-0.012 v 0 c 0,0.004 0,0.008 0,0.012"
         style="fill:url(#radialGradient29);stroke:none;stroke-width:1.33333" /><path
         id="path35"
         d="m 78.643998,477.00138 c -3.349333,3.964 -6.232,8.29867 -8.589333,12.924 v 0 l 1.434667,2.87467 h 28.625328 l 1.44667,-2.87467 c 1.43333,-8.624 11.452,-22.99733 45.804,-21.56133 v 0 l -0.0173,0.0133 c 34.352,2.87733 34.352,-2.876 34.352,-2.876 v 0 c 0,0 -22.90134,-7.508 -48.67334,-7.50933 v 0 c -19.32933,0 -40.273329,4.224 -54.382662,19.00933"
         style="fill:url(#radialGradient35);stroke:none;stroke-width:1.33333" /><path
         id="path36"
         d="m 0,0 c 0,0 -6.442,9.702 -13.956,23.718 -4.779,8.214 -8.734,16.88 -11.808,25.872 -4.343,10.04 -7.582,20.522 -9.661,31.263 -1.309,5.66 -2.029,11.439 -2.147,17.248 v 16.178 c 0.756,9.606 2.926,19.047 6.438,28.019 2.69,6.031 5.924,11.805 9.661,17.248 1.404,2.142 3.234,3.973 5.376,5.376 -1.927,-2.039 -3.723,-4.199 -5.376,-6.467 -4.11,-5.602 -7.366,-11.784 -9.661,-18.342 -3.514,-8.975 -5.685,-18.42 -6.441,-28.029 V 95.938 c 0.186,-5.447 0.906,-10.863 2.147,-16.169 2.079,-10.743 5.32,-21.226 9.664,-31.267 C -22.69,39.51 -18.735,30.844 -13.956,22.63 -9.818,14.778 -5.156,7.215 0,-0.01 Z"
         style="fill:#fdbc5f;fill-opacity:1;fill-rule:nonzero;stroke:none"
         transform="matrix(1.3333333,0,0,-1.3333333,104.41147,642.29693)"
         clip-path="url(#clipPath37)" /><path
         id="path42"
         d="m 114.43066,517.24805 c -21.471996,1.43733 -22.899996,30.18533 5.72534,30.18533 v 0 c 47.22533,0 55.82266,4.31467 57.252,4.31467 v 0 l -12.88134,-33.06267 c -12.192,-1.10533 -24.42666,-1.66 -36.664,-1.66 v 0 c -4.47733,0 -8.95466,0.0747 -13.432,0.22267"
         style="fill:url(#radialGradient42);stroke:none;stroke-width:1.33333" /><path
         id="path43"
         d="m 0,0 c -8.04,2.372 -16.324,3.819 -24.692,4.313 -8.554,1.083 -17.21,1.083 -25.764,0 -9.729,-0.748 -18.868,-4.955 -25.764,-11.858 -7.071,-6.819 -11.291,-16.066 -11.808,-25.875 -0.796,-8.274 -0.435,-16.619 1.071,-24.793 1.621,-8.04 3.772,-15.964 6.442,-23.719 -0.925,2.081 -1.644,4.247 -2.147,6.468 -1.815,5.648 -3.248,11.411 -4.291,17.251 -1.339,8.561 -2.057,17.207 -2.148,25.871 0.515,9.806 4.729,19.051 11.793,25.872 7.838,6.094 17.054,10.166 26.836,11.859 8.554,1.082 17.21,1.082 25.764,0 8.362,-1.117 16.62,-2.915 24.689,-5.376 z"
         style="fill:#fdbc5f;fill-opacity:1;fill-rule:nonzero;stroke:none"
         transform="matrix(1.3333333,0,0,-1.3333333,183.13413,466.94013)"
         clip-path="url(#clipPath44)" /><path
         id="path45"
         d="m 0,0 c 0,0 -13.956,1.079 -27.911,1.079 h -9.661 c -3.175,0.087 -6.258,-1.071 -8.59,-3.226 -2.463,-1.664 -3.723,-4.616 -3.219,-7.545 -0.504,2.929 0.756,5.881 3.219,7.545 2.331,2.159 5.414,3.32 8.59,3.235 h 10.736 C -12.88,1.088 0,0.01 0,0.01 Z"
         style="fill:#fdbc5f;fill-opacity:1;fill-rule:nonzero;stroke:none"
         transform="matrix(1.3333333,0,0,-1.3333333,164.52667,518.6856)"
         clip-path="url(#clipPath46)" /></g></g></svg>
