<?xml version="1.0" encoding="UTF-8" standalone="no"?>
<svg
   viewBox="0 0 50 50"
   shape-rendering="geometricPrecision"
   text-rendering="geometricPrecision"
   image-rendering="optimizeQuality"
   fill-rule="evenodd"
   clip-rule="evenodd"
   version="1.1"
   id="svg1"
   width="50"
   height="50"
   xmlns="http://www.w3.org/2000/svg"
   xmlns:svg="http://www.w3.org/2000/svg">
  <defs
     id="defs1" />
  <path
     d="m 34.644632,34.417095 c 1.845139,-0.190949 3.244931,-1.78169 3.181331,-3.690579 -0.06345,-1.908739 -1.65434,-3.43588 -3.563079,-3.43588 h -0.127199 c -1.972639,0.0636 -3.49963,1.71794 -3.43588,3.690429 0.0636,0.954444 0.445347,1.781689 1.017894,2.354236 -2.163287,4.263275 -5.471818,7.381007 -10.434689,9.989791 -3.37228,1.78169 -6.87161,2.417986 -10.371089,1.972639 C 8.0485879,44.915833 5.821701,43.64339 4.4216092,41.543403 2.3856711,38.425671 2.1948723,35.053241 3.9128122,31.680961 5.1218051,29.262975 7.0303939,27.481435 8.2393868,26.59059 7.9849883,25.763345 7.6030905,24.363703 7.4122916,23.345659 -1.8137042,30.02677 -0.85910981,39.061967 1.9403237,43.325092 c 2.0996877,3.181632 6.3626627,5.15412 11.0709853,5.15412 1.272442,0 2.544885,-0.127349 3.817477,-0.445347 8.144352,-1.590891 14.316216,-6.426713 17.815546,-13.61677 z M 45.842966,26.527141 C 41.007294,20.864074 33.881136,17.746342 25.736784,17.746342 H 24.71889 C 24.146193,16.601099 22.9372,15.837304 21.601158,15.837304 h -0.127349 c -1.972188,0.0636 -3.49918,1.717939 -3.43573,3.690578 0.0636,1.908739 1.65419,3.43588 3.563079,3.43588 h 0.127199 c 1.399792,-0.06375 2.608785,-0.954445 3.117732,-2.163438 h 1.145243 c 4.835672,0 9.416795,1.399792 13.552721,4.135926 3.181181,2.099838 5.471818,4.835822 6.74426,8.144502 1.081644,2.672535 1.018044,5.281169 -0.127349,7.508356 -1.781389,3.372281 -4.771922,5.21757 -8.716749,5.21757 -2.545035,0 -4.962871,-0.763646 -6.235463,-1.336342 -0.699746,0.636296 -1.972489,1.65419 -2.863183,2.290786 2.736134,1.272443 5.535717,1.972489 8.207951,1.972489 6.108265,0 10.625788,-3.372431 12.343728,-6.744711 1.845139,-3.690578 1.71779,-10.053391 -3.054132,-15.461759 z m -32.32241,8.971447 c 0.0636,1.908889 1.65434,3.43588 3.563079,3.43588 h 0.127349 c 1.972488,-0.06345 3.499479,-1.71794 3.43573,-3.690428 -0.06345,-1.908889 -1.65434,-3.43588 -3.563079,-3.43588 h -0.1272 c -0.127349,0 -0.318298,0 -0.445347,0.06345 -2.608785,-4.326724 -3.690428,-9.035047 -3.308531,-14.125417 0.254249,-3.817777 1.526992,-7.126458 3.753878,-9.8625918 1.84514,-2.3542362 5.408219,-3.4996295 7.826055,-3.5630791 6.74426,-0.1273493 9.607443,8.2715519 9.798392,11.6441319 0.827245,0.190799 2.226887,0.636296 3.181481,0.954444 C 36.998718,6.6113076 30.636055,1.266389 24.528091,1.266389 c -5.726516,0 -11.007535,4.1359257 -13.107373,10.24434 -2.9267827,8.144502 -1.017894,15.970706 2.545185,22.14287 -0.317998,0.445347 -0.508947,1.145243 -0.445347,1.845289 v -1.5e-4 z"
     fill="#764abc"
     id="path1"
     style="stroke-width:1" />
</svg>
