<?xml version="1.0" encoding="UTF-8" standalone="no"?>
<svg
   width="50"
   height="50"
   viewBox="0 0 10.24 10.24"
   version="1.1"
   id="svg1"
   xmlns="http://www.w3.org/2000/svg"
   xmlns:svg="http://www.w3.org/2000/svg">
  <defs
     id="defs1" />
  <path
     fill="#cf649a"
     d="M 8.8150827,5.6897488 C 8.4570514,5.691769 8.1470244,5.7777565 7.8870017,5.9057877 7.7909933,5.7157711 7.6949849,5.5497366 7.6790035,5.4257458 7.6610019,5.2817332 7.639,5.1937055 7.6610019,5.0217105 7.6829838,4.8496755 7.7829926,4.6056542 7.7829926,4.5856524 7.7809724,4.5676508 7.7609707,4.4796432 7.5549727,4.477643 7.3489747,4.4756428 7.1709391,4.5176465 7.1509374,4.5716512 7.1309357,4.6256559 7.0909322,4.7496667 7.0649299,4.8776779 7.0289267,5.0656943 6.6528939,5.7317525 6.4388752,6.081783 6.3688691,5.9457712 6.3088639,5.8257607 6.2968428,5.7297323 6.2788613,5.5857397 6.2568393,5.497712 6.2788613,5.325717 6.3008632,5.153682 6.4008719,4.9096807 6.4008719,4.889679 6.3988717,4.8716774 6.37887,4.7836697 6.172872,4.7816695 5.966834,4.7796694 5.7888385,4.821673 5.7688367,4.8756777 5.748835,4.9296825 5.7268331,5.0576936 5.6828292,5.1817045 5.6408056,5.3057153 5.1407619,6.4178124 5.0107506,6.7078377 4.9447448,6.8558506 4.8867597,6.9738609 4.8447361,7.0538679 c -0.042004,0.080007 -0.002,0.006 -0.006,0.014001 -0.036003,0.068006 -0.056005,0.1060093 -0.056005,0.1060093 v 0.00202 c -0.028002,0.050004 -0.058005,0.097989 -0.072026,0.097989 -0.010001,0 -0.030003,-0.1340117 0.004,-0.3180078 0.074007,-0.3860537 0.2540222,-0.9880862 0.252042,-1.0100881 0,-0.010001 0.033983,-0.1160302 -0.1160301,-0.1700149 -0.1460128,-0.054005 -0.1979973,0.036003 -0.2100184,0.036003 -0.012001,0 -0.022002,0.032003 -0.022002,0.032003 0,0 0.1620142,-0.6780392 -0.310027,-0.6780392 -0.2960259,0 -0.7040615,0.3220281 -0.9060791,0.6160537 C 3.274579,5.851803 3.0025552,5.9997959 2.7145301,6.1578297 2.6045205,6.2178349 2.4905105,6.2818405 2.3825011,6.3398456 L 2.3605192,6.3158035 C 1.7884692,5.7057502 0.73037688,5.2737125 0.77438072,4.4536409 0.79038212,4.1556149 0.8943912,3.3695463 2.8065781,2.4174631 4.3727148,1.637395 5.6268243,1.8514137 5.8448234,2.3274553 6.1548504,3.0075146 5.1747649,4.271625 3.5466427,4.4536409 2.9265886,4.523647 2.6005401,4.2836261 2.518553,4.1936182 2.4325455,4.09961 2.4205444,4.0956096 2.3885416,4.1136112 c -0.052005,0.028002 -0.020002,0.1120098 0,0.1620142 0.048004,0.126011 0.2480217,0.3500305 0.5880514,0.4620403 C 3.274599,4.8356742 4.0026825,4.889679 4.8827594,4.5496493 5.8688455,4.1676159 6.6389127,3.1075234 6.412893,2.221446 6.1828729,1.3193672 4.6867423,1.0233414 3.2726188,1.5253852 2.4305253,1.8254114 1.5184457,2.2934523 0.86238841,2.9075059 0.0823203,3.6355695 -0.04169052,4.271625 0.01031402,4.5356481 0.19234991,5.4777303 1.4904432,6.0917839 2.0104886,6.5458235 1.9844863,6.5598048 1.9604843,6.573806 1.9384823,6.585827 1.6784596,6.7138182 0.68837321,7.2318834 0.44035156,7.7799113 0.16032711,8.3999654 0.4843554,8.8460244 0.70037426,8.9060296 1.3684326,9.0920458 2.0524923,8.7580167 2.4225246,8.2079687 2.7905367,7.6579206 2.7465529,6.9438583 2.576538,6.6178298 L 2.5705175,6.6058288 2.7745353,6.4858183 C 2.9065669,6.4078115 3.0365782,6.3358052 3.1505682,6.2737798 3.0865826,6.447795 3.0405585,6.653813 3.0165765,6.9538392 c -0.028002,0.3520507 0.1160101,0.8080705 0.3060267,0.9880862 0.084007,0.077987 0.184016,0.080007 0.2460214,0.080007 0.2200193,0 0.320028,-0.1820359 0.4300376,-0.4000349 0.1360119,-0.2660232 0.2560223,-0.5740501 0.2560223,-0.5740501 0,0 -0.1500131,0.8340728 0.2600227,0.8340728 0.1500131,0 0.3000262,-0.1940169 0.3680322,-0.2940257 v 0.002 c 0,0 0.004,-0.006 0.012001,-0.020002 a 0.72266309,0.72266309 0 0 0 0.024002,-0.037983 v -0.004 C 4.9787478,7.4239002 5.1127595,7.1858794 5.3127769,6.791845 5.5707794,6.2838007 5.8188211,5.6477451 5.8188211,5.6477451 c 0,0 0.024002,0.1560137 0.098009,0.412036 0.043984,0.1520333 0.1399922,0.3180278 0.2139986,0.4800419 -0.060005,0.084007 -0.096008,0.1320316 -0.096008,0.1320316 l 0.002,0.002 C 5.9888359,6.7378603 5.9348112,6.8058863 5.8788263,6.8738722 5.6748085,7.1178935 5.4307872,7.3959378 5.3987844,7.4759448 5.3607814,7.5699328 5.3687814,7.6399391 5.4427884,7.695964 5.4967934,7.735968 5.5928015,7.743948 5.6948104,7.735968 5.8788263,7.7239464 6.0068375,7.6779624 6.0708431,7.6499399 6.1708518,7.6139368 6.2848618,7.5599321 6.3948714,7.4799251 6.5948889,7.3319322 6.7168995,7.1219138 6.7048985,6.8418894 6.6988979,6.687876 6.6488936,6.5358627 6.5868882,6.3918501 c 0.018002,-0.026002 0.036023,-0.052024 0.054005,-0.080007 0.3160276,-0.4620603 0.5600489,-0.9700847 0.5600489,-0.9700847 0,0 0.024002,0.1560137 0.098009,0.412036 0.037983,0.1300114 0.11401,0.2720438 0.1820159,0.412056 C 7.1849404,6.4078715 6.9989241,6.687896 6.9349185,6.871912 6.8169082,7.2119417 6.9089163,7.3659551 7.0829315,7.4019583 7.1609183,7.4179597 7.272948,7.3819565 7.3569354,7.3459534 7.4609445,7.3119504 7.5869555,7.2539254 7.7029856,7.1679379 7.9030031,7.0199249 8.0950198,6.813907 8.0850189,6.5358827 8.0790184,6.4078715 8.0450155,6.2818605 7.9990114,6.16185 8.2510334,6.0578409 8.5770419,5.9978357 8.991098,6.0478401 c 0.8900778,0.1040091 1.066093,0.6600576 1.03211,0.8920779 -0.034003,0.2320402 -0.2200191,0.3600314 -0.2820445,0.4000349 -0.062005,0.038003 -0.082007,0.052024 -0.076007,0.080007 0.008,0.042024 0.036003,0.040004 0.090008,0.032023 0.074006,-0.012021 0.4680415,-0.1900166 0.4840435,-0.618034 0.024,-0.550128 -0.4980448,-1.1501804 -1.4241253,-1.1442001 z M 1.9504834,8.0039508 C 1.6564577,8.325979 1.2424216,8.4479896 1.0664062,8.3439805 0.87638963,8.2339709 0.95037609,7.7599295 1.3124277,7.4178997 1.5324469,7.2098815 1.8184719,7.0178648 2.0064883,6.8998545 c 0.042004,-0.026002 0.1060092,-0.063986 0.1820159,-0.1100096 0.012001,-0.00798 0.020002,-0.012001 0.020002,-0.012001 0.014001,-0.008 0.030003,-0.018002 0.046004,-0.028002 0.1340117,0.4880426 0.006,0.9160799 -0.3040268,1.2541089 z M 4.1006711,6.5418232 C 3.9986622,6.791845 3.7826433,7.4339011 3.652632,7.3978979 3.5406022,7.3678953 3.4726163,6.8818529 3.6306101,6.401811 3.710617,6.1597698 3.8806319,5.8717647 3.9806406,5.7597349 4.1426748,5.5797192 4.3186701,5.519714 4.362694,5.5937204 4.4146985,5.6897488 4.1646767,6.3858096 4.1006711,6.5418232 Z m 1.7741549,0.848074 c -0.044004,0.022022 -0.084007,0.038003 -0.1020089,0.026022 -0.014001,-0.008 0.017982,-0.038003 0.017982,-0.038003 0,0 0.2220193,-0.2380208 0.310027,-0.3480304 0.050004,-0.063986 0.1100096,-0.137992 0.1740152,-0.2220194 v 0.024002 c 2e-5,0.2880052 -0.2760041,0.4800219 -0.4000153,0.5580288 z M 7.2429254,7.07787 C 7.2109226,7.0538679 7.214943,6.9798614 7.3229324,6.7478412 7.3649561,6.6558332 7.4609445,6.5018197 7.626959,6.355807 7.646961,6.415812 7.658982,6.4737973 7.656962,6.527822 7.654982,6.8878534 7.3989594,7.0218651 7.2429254,7.07787 Z"
     id="path1"
     style="stroke-width:0.0200017" />
</svg>
