<?xml version="1.0" encoding="UTF-8" standalone="no"?>
<!-- Created with Inkscape (http://www.inkscape.org/) -->

<svg
   width="50"
   height="50"
   viewBox="0 0 13.229166 13.229167"
   version="1.1"
   id="svg289"
   inkscape:version="1.2.2 (1:1.2.2+202212051552+b0a8486541)"
   sodipodi:docname="adobecc.svg"
   xmlns:inkscape="http://www.inkscape.org/namespaces/inkscape"
   xmlns:sodipodi="http://sodipodi.sourceforge.net/DTD/sodipodi-0.dtd"
   xmlns="http://www.w3.org/2000/svg"
   xmlns:svg="http://www.w3.org/2000/svg">
  <sodipodi:namedview
     id="namedview291"
     pagecolor="#ffffff"
     bordercolor="#000000"
     borderopacity="0.25"
     inkscape:showpageshadow="2"
     inkscape:pageopacity="0.0"
     inkscape:pagecheckerboard="0"
     inkscape:deskcolor="#d1d1d1"
     inkscape:document-units="px"
     showgrid="false"
     inkscape:zoom="5.6159371"
     inkscape:cx="26.264539"
     inkscape:cy="76.389744"
     inkscape:window-width="1920"
     inkscape:window-height="1043"
     inkscape:window-x="0"
     inkscape:window-y="0"
     inkscape:window-maximized="1"
     inkscape:current-layer="layer1" />
  <defs
     id="defs286">
    <clipPath
       clipPathUnits="userSpaceOnUse"
       id="clipPath246">
      <path
         d="m 236.888,375.751 h 121.5 v 89.61 h -121.5 z"
         id="path244" />
    </clipPath>
  </defs>
  <g
     inkscape:label="Layer 1"
     inkscape:groupmode="layer"
     id="layer1">
    <g
       id="g240"
       transform="matrix(0.10888128,0,0,-0.10888128,-25.792601,52.405297)"
       style="stroke-width:3.24002">
      <g
         id="g242"
         clip-path="url(#clipPath246)"
         style="stroke-width:3.24002">
        <g
           id="g248"
           transform="translate(287.4536,384.2637)"
           style="stroke-width:3.24002">
          <path
             d="m 0,0 c -0.222,0.205 -0.363,0.338 -0.504,0.471 -2.541,2.398 -5.096,4.783 -7.607,7.213 -0.486,0.469 -0.933,0.699 -1.621,0.682 -2.543,-0.061 -5.088,-0.072 -7.594,0.493 -12.46,2.819 -19.695,16.366 -15.103,28.286 3.622,9.399 13.649,15.123 23.537,13.358 4.432,-0.791 8.322,-2.667 11.515,-5.96 3.894,-4.021 7.904,-7.926 11.84,-11.904 0.896,-0.907 1.925,-1.32 3.166,-1.143 1.604,0.23 2.881,0.993 3.461,2.567 0.569,1.547 0.293,3.013 -0.879,4.201 -4.13,4.184 -8.164,8.474 -12.462,12.481 -8.336,7.776 -18.166,10.087 -29.038,6.781 -14.623,-4.442 -23.181,-19.543 -19.84,-34.442 3.045,-13.576 14.918,-23.105 28.811,-23.116 3.879,-0.004 7.759,-0.002 11.638,0 0.192,0 0.384,0.016 0.68,0.032 m 2.999,64.176 c 0.073,-0.097 0.091,-0.142 0.122,-0.156 2.507,-1.23 4.878,-2.678 7.139,-4.318 0.142,-0.102 0.494,-0.059 0.666,0.049 6.188,3.921 12.897,5.273 20.102,3.995 7.06,-1.252 12.806,-4.779 17.197,-10.415 4.971,-6.377 6.866,-13.588 5.494,-21.61 C 52.799,26.344 50.645,21.52 46.984,17.479 40.304,10.111 31.939,7.064 22.092,8.354 16.03,9.148 10.797,11.764 6.466,16.141 0.907,21.756 -4.688,27.334 -10.263,32.934 c -0.743,0.746 -1.57,1.345 -2.64,1.476 -1.869,0.23 -3.565,-0.704 -4.372,-2.383 -0.72,-1.499 -0.627,-3.188 0.935,-4.724 C -10.125,21.201 -3.965,15.045 2.243,8.938 3.305,7.893 4.447,6.91 5.652,6.036 10.187,2.743 15.3,0.923 20.836,0.189 c 4.347,-0.574 8.659,-0.451 12.938,0.511 8.162,1.833 14.924,5.999 20.248,12.428 4.396,5.311 7.057,11.416 7.982,18.268 0.534,3.939 0.43,7.857 -0.332,11.75 C 60.438,49.476 57.76,55.14 53.469,59.961 45.282,69.153 34.982,73.258 22.725,72.342 18.01,71.989 13.55,70.604 9.353,68.407 7.094,67.226 4.975,65.832 2.999,64.176 M 70.934,38.293 v -4 C 70.896,34.075 70.848,33.862 70.823,33.646 70.616,31.906 70.482,30.155 70.196,28.429 69.262,22.815 67.243,17.599 64.243,12.774 59.687,5.45 53.528,-0.135 45.788,-3.948 c -4.5,-2.217 -9.248,-3.627 -14.236,-4.201 -1.1,-0.127 -2.199,-0.242 -3.3,-0.363 h -42.683 c -0.215,0.04 -0.429,0.105 -0.646,0.117 -4.304,0.272 -8.445,1.252 -12.392,2.98 -8.593,3.76 -15,9.853 -19.194,18.241 -1.86,3.724 -3.044,7.663 -3.545,11.802 -0.121,0.999 -0.239,1.997 -0.358,2.994 v 3.882 c 0.041,0.215 0.104,0.43 0.117,0.645 0.223,3.73 0.988,7.351 2.335,10.83 3.625,9.365 9.944,16.309 18.924,20.804 4.659,2.333 9.625,3.56 14.819,3.831 2.543,0.132 5.084,-0.01 7.612,-0.348 0.229,-0.032 0.559,0.071 0.718,0.234 3.635,3.713 7.774,6.729 12.441,9.015 4.527,2.216 9.291,3.645 14.306,4.217 1.18,0.135 2.363,0.247 3.544,0.369 h 3.64 c 0.237,-0.038 0.478,-0.08 0.715,-0.108 1.804,-0.21 3.616,-0.342 5.401,-0.64 5.573,-0.935 10.76,-2.935 15.56,-5.907 7.36,-4.555 12.97,-10.722 16.802,-18.486 2.22,-4.504 3.632,-9.253 4.205,-14.246 0.129,-1.142 0.24,-2.282 0.361,-3.421"
             style="fill:#da1f26;fill-opacity:1;fill-rule:nonzero;stroke:none;stroke-width:3.24002"
             id="path250" />
        </g>
      </g>
    </g>
  </g>
</svg>
