<svg preserveAspectRatio="xMidYMid" version="1.1" viewBox="0 0 50 50" xmlns="http://www.w3.org/2000/svg">
 <g transform="matrix(.174 0 0 .174 2.76 -7.28e-7)">
  <path d="m256 84.5c-2e-3 -4.83-1.04-9.1-3.12-12.8-2.05-3.6-5.12-6.62-9.25-9.01-34-19.6-68.1-39.2-102-58.8-9.17-5.29-18.1-5.1-27.2 0.269-13.5 7.99-81.3 46.8-102 58.5-8.32 4.82-12.4 12.2-12.4 21.8-0.013 39.5 0 78.9-0.013 118 0 4.72 0.991 8.91 2.99 12.5 2.05 3.71 5.17 6.81 9.39 9.25 20.2 11.7 88 50.5 102 58.5 9.11 5.37 18 5.56 27.2 0.269 34-19.6 68.1-39.2 102-58.8 4.22-2.44 7.33-5.54 9.39-9.25 1.99-3.61 2.99-7.79 2.99-12.5 0 0 0-78.9-0.013-118" fill="#a179dc"/>
  <path d="m128 143-125 72.1c2.05 3.71 5.17 6.81 9.39 9.25 20.2 11.7 88 50.5 102 58.5 9.11 5.37 18 5.56 27.2 0.269 34-19.6 68.1-39.2 102-58.8 4.22-2.44 7.33-5.54 9.39-9.25l-124-72.1" fill="#280068"/>
  <path d="m256 84.5c-2e-3 -4.83-1.04-9.1-3.12-12.8l-124 71.6 124 72.1c1.99-3.61 2.98-7.79 2.99-12.5 0 0 0-78.9-0.013-118" fill="#390091"/>
  <path d="m202 116v13.5h13.5v-13.5h6.74v13.5h13.5v6.74h-13.5v13.5h13.5v6.74h-13.5v13.5h-6.74v-13.5h-13.5v13.5h-6.74v-13.5h-13.5v-6.74h13.5v-13.5h-13.5v-6.74h13.5v-13.5zm13.5 20.2h-13.5v13.5h13.5z" fill="#fff"/>
  <path d="m128 48.6c35.1 0 65.8 19.1 82.3 47.5l-0.16-0.273-41.3 23.8c-8.15-13.8-23.1-23.1-40.2-23.3l-0.54-3e-3c-26.1 0-47.3 21.2-47.3 47.3 0 8.54 2.28 16.6 6.24 23.5 8.15 14.2 23.5 23.8 41.1 23.8 17.7 0 33.1-9.72 41.2-24.1l-0.197 0.345 41.3 23.9c-16.3 28.1-46.5 47.2-81.3 47.5l-1.06 6e-3c-35.3 0-66-19.2-82.4-47.7-8-13.9-12.6-30.1-12.6-47.3 0-52.5 42.5-95 95-95z" fill="#fff"/>
 </g>
</svg>
