<?xml version="1.0" encoding="UTF-8" standalone="no"?>
<!-- Generator: Adobe Illustrator 12.0.1, SVG Export Plug-In . SVG Version: 6.00 Build 51448)  -->

<svg
   version="1.0"
   id="Layer_1"
   width="50"
   height="50"
   viewBox="0 0 50 49.999997"
   overflow="visible"
   enable-background="new 0 0 436.505 152.503"
   xml:space="preserve"
   xmlns="http://www.w3.org/2000/svg"
   xmlns:svg="http://www.w3.org/2000/svg"><defs
   id="defs638" />

<g
   id="g1693"
   transform="matrix(0.33333333,0,0,0.33333333,-47.750832,-0.41716767)"><rect
     style="opacity:1;fill:#103e2e;fill-opacity:1;stroke-width:0.999996;stroke-miterlimit:3.3"
     id="rect809"
     width="150"
     height="150"
     x="143.2525"
     y="1.251503"
     rx="8"
     ry="8" /><g
     id="g633"
     transform="matrix(0.82195722,0,0,0.82195722,167.68369,18.251503)"
     style="fill:#ffffff;stroke-width:1.21661">
	<g
   id="g631"
   style="fill:#ffffff;stroke-width:1.21661">
		<path
   fill="#092e20"
   d="M 51.464,0 H 75.336 V 110.496 C 63.09,112.821 54.099,113.751 44.334,113.751 15.191,113.75 0,100.576 0,75.308 0,50.971 16.122,35.161 41.078,35.161 c 3.875,0 6.82,0.309 10.386,1.239 z m 0,55.62 c -2.79,-0.929 -5.115,-1.239 -8.06,-1.239 -12.091,0 -19.067,7.441 -19.067,20.461 0,12.712 6.666,19.687 18.912,19.687 2.634,0 4.805,-0.155 8.215,-0.619 z"
   id="path619"
   style="fill:#ffffff;stroke-width:1.21661" />
		<path
   fill="#092e20"
   d="m 113.312,36.865 v 55.338 c 0,19.067 -1.395,28.212 -5.58,36.118 -3.876,7.597 -8.992,12.401 -19.532,17.672 L 66.033,135.452 c 10.541,-4.96 15.656,-9.299 18.911,-15.967 3.411,-6.82 4.497,-14.726 4.497,-35.497 V 36.865 Z M 89.441,0.127 h 23.871 V 24.619 H 89.441 Z"
   id="path621"
   style="fill:#ffffff;stroke-width:1.21661" />
		
		
		
		
	</g>
</g></g></svg>
