<?xml version="1.0" encoding="UTF-8" standalone="no"?>
<svg
   width="50"
   height="50"
   version="1.1"
   viewBox="0 0 13.229 13.229"
   xml:space="preserve"
   id="svg2"
   xmlns="http://www.w3.org/2000/svg"
   xmlns:svg="http://www.w3.org/2000/svg"><defs
     id="defs2" /><g
     id="g2"
     transform="scale(0.9999764)"><g
       transform="matrix(0.11905,0,0,0.11905,-5.8854,-11.064)"
       style="stroke-width:8.4"
       id="g1"><circle
         cx="105"
         cy="148.5"
         r="55.562"
         style="fill:#828282;stroke-width:1.1112;stroke-miterlimit:3.3"
         id="circle1" /><path
         d="m 80.517,169.83 c -3.0822,-0.49959 -5.3728,-1.3482 -7.6268,-2.8254 -1.488,-0.97518 -3.5035,-2.9553 -4.5166,-4.4372 -4.1409,-6.0573 -5.1898,-16.075 -2.4232,-23.144 2.4851,-6.3491 7.2719,-10.602 13.577,-12.061 1.5856,-0.36708 5.3487,-0.50938 7.1459,-0.27022 3.6958,0.49182 6.5422,1.8559 9.2042,4.4108 1.6656,1.5986 2.8486,3.2261 3.9154,5.3865 1.6532,3.348 2.4335,6.6161 2.6983,11.3 0.0776,1.3738 0.058,1.686 -0.11529,1.8298 -0.16201,0.13445 -3.6345,0.18141 -15.471,0.20921 l -15.262,0.0358 0.01327,1.5487 c 0.03041,3.5498 1.1976,6.5403 3.436,8.8038 2.3047,2.3305 5.4017,3.5151 9.1901,3.5151 2.8704,0 4.9893,-0.54023 6.8565,-1.7481 1.8731,-1.2117 3.1095,-2.7757 3.7377,-4.7282 0.13703,-0.42588 0.319,-0.82087 0.40438,-0.87777 0.2597,-0.17305 6.2019,-0.12904 6.3782,0.0473 0.25307,0.25307 -0.43406,2.5377 -1.2926,4.2976 -2.1044,4.314 -6.0601,7.2827 -11.266,8.4549 -1.9899,0.44807 -6.5496,0.58208 -8.5842,0.25229 z m 14.708,-25.813 c 0,-0.83413 -0.64845,-3.2052 -1.1863,-4.3378 -1.0461,-2.2028 -2.6688,-3.9962 -4.6889,-5.182 -3.5619,-2.0909 -8.4161,-2.107 -11.934,-0.0396 -1.7464,1.0262 -3.5198,2.9456 -4.4854,4.8549 -0.72532,1.4341 -1.5163,4.4913 -1.3047,5.0427 0.06899,0.17978 1.6231,0.20694 11.84,0.20694 h 11.76 z m 9.1062,25.924 c -0.0353,-0.0592 3.5082,-5.1122 7.8745,-11.229 4.3663,-6.1166 7.9387,-11.205 7.9387,-11.307 0,-0.15615 -3.7733,-5.3419 -12.979,-17.838 -0.91275,-1.2389 -1.6603,-2.3318 -1.6611,-2.4286 -0.001,-0.13709 0.97545,-0.17599 4.4185,-0.17599 h 4.4201 l 4.9507,7.2154 c 5.8272,8.493 5.3002,7.7594 5.4901,7.642 0.084,-0.0519 1.873,-2.5132 3.9758,-5.4696 2.1027,-2.9564 4.4642,-6.2623 5.2479,-7.3463 l 1.4248,-1.971 4.0676,-0.0374 c 2.2372,-0.0205 4.1195,0.0145 4.183,0.0779 0.0634,0.0634 -2.1087,3.0896 -4.8269,6.7248 -2.7182,3.6352 -6.0189,8.0492 -7.3349,9.8087 l -2.3926,3.1992 1.3262,1.8691 c 0.72939,1.028 3.1228,4.3716 5.3186,7.4302 8.4281,11.74 9.7488,13.591 9.8155,13.762 0.0542,0.13856 -0.88667,0.17599 -4.423,0.17599 h -4.4918 l -4.3783,-6.5114 c -6.2887,-9.3526 -7.416,-10.995 -7.5838,-11.047 -0.0822,-0.0254 -1.8561,2.4906 -3.9421,5.5911 -2.086,3.1005 -4.743,7.0456 -5.9045,8.7669 l -2.1118,3.1296 -4.1788,0.0373 c -2.2984,0.0205 -4.2077,-0.0112 -4.2431,-0.0704 z"
         style="fill:#ffffff;stroke-width:8.4"
         id="path1" /></g></g></svg>
