<?xml version="1.0" encoding="UTF-8" standalone="no"?>
<!-- Created with Inkscape (http://www.inkscape.org/) -->

<svg
   width="170"
   height="150"
   id="svg2"
   version="1.1"
   inkscape:version="1.2.2 (1:1.2.2+202212051552+b0a8486541)"
   sodipodi:docname="flask.svg"
   xmlns:inkscape="http://www.inkscape.org/namespaces/inkscape"
   xmlns:sodipodi="http://sodipodi.sourceforge.net/DTD/sodipodi-0.dtd"
   xmlns="http://www.w3.org/2000/svg"
   xmlns:svg="http://www.w3.org/2000/svg"
   xmlns:rdf="http://www.w3.org/1999/02/22-rdf-syntax-ns#"
   xmlns:cc="http://creativecommons.org/ns#"
   xmlns:dc="http://purl.org/dc/elements/1.1/">
  <defs
     id="defs4">
    <inkscape:perspective
       sodipodi:type="inkscape:persp3d"
       inkscape:vp_x="0 : 496.18109 : 1"
       inkscape:vp_y="0 : 1000 : 0"
       inkscape:vp_z="744.09448 : 496.18109 : 1"
       inkscape:persp3d-origin="372.04724 : 320.78739 : 1"
       id="perspective10" />
    <inkscape:perspective
       id="perspective2824"
       inkscape:persp3d-origin="0.5 : -29.666667 : 1"
       inkscape:vp_z="1 : -29.5 : 1"
       inkscape:vp_y="0 : 1000 : 0"
       inkscape:vp_x="0 : -29.5 : 1"
       sodipodi:type="inkscape:persp3d" />
    <inkscape:perspective
       id="perspective2840"
       inkscape:persp3d-origin="0.5 : -29.666667 : 1"
       inkscape:vp_z="1 : -29.5 : 1"
       inkscape:vp_y="0 : 1000 : 0"
       inkscape:vp_x="0 : -29.5 : 1"
       sodipodi:type="inkscape:persp3d" />
    <inkscape:perspective
       id="perspective2878"
       inkscape:persp3d-origin="0.5 : -29.666667 : 1"
       inkscape:vp_z="1 : -29.5 : 1"
       inkscape:vp_y="0 : 1000 : 0"
       inkscape:vp_x="0 : -29.5 : 1"
       sodipodi:type="inkscape:persp3d" />
    <inkscape:perspective
       id="perspective2894"
       inkscape:persp3d-origin="0.5 : -29.666667 : 1"
       inkscape:vp_z="1 : -29.5 : 1"
       inkscape:vp_y="0 : 1000 : 0"
       inkscape:vp_x="0 : -29.5 : 1"
       sodipodi:type="inkscape:persp3d" />
    <inkscape:perspective
       id="perspective2910"
       inkscape:persp3d-origin="0.5 : -29.666667 : 1"
       inkscape:vp_z="1 : -29.5 : 1"
       inkscape:vp_y="0 : 1000 : 0"
       inkscape:vp_x="0 : -29.5 : 1"
       sodipodi:type="inkscape:persp3d" />
    <inkscape:perspective
       id="perspective2926"
       inkscape:persp3d-origin="0.5 : -29.666667 : 1"
       inkscape:vp_z="1 : -29.5 : 1"
       inkscape:vp_y="0 : 1000 : 0"
       inkscape:vp_x="0 : -29.5 : 1"
       sodipodi:type="inkscape:persp3d" />
    <inkscape:perspective
       id="perspective2976"
       inkscape:persp3d-origin="0.5 : -29.666667 : 1"
       inkscape:vp_z="1 : -29.5 : 1"
       inkscape:vp_y="0 : 1000 : 0"
       inkscape:vp_x="0 : -29.5 : 1"
       sodipodi:type="inkscape:persp3d" />
    <inkscape:perspective
       id="perspective3020"
       inkscape:persp3d-origin="0.5 : -29.666667 : 1"
       inkscape:vp_z="1 : -29.5 : 1"
       inkscape:vp_y="0 : 1000 : 0"
       inkscape:vp_x="0 : -29.5 : 1"
       sodipodi:type="inkscape:persp3d" />
    <inkscape:perspective
       id="perspective3036"
       inkscape:persp3d-origin="0.5 : -29.666667 : 1"
       inkscape:vp_z="1 : -29.5 : 1"
       inkscape:vp_y="0 : 1000 : 0"
       inkscape:vp_x="0 : -29.5 : 1"
       sodipodi:type="inkscape:persp3d" />
    <inkscape:perspective
       id="perspective3052"
       inkscape:persp3d-origin="0.5 : -29.666667 : 1"
       inkscape:vp_z="1 : -29.5 : 1"
       inkscape:vp_y="0 : 1000 : 0"
       inkscape:vp_x="0 : -29.5 : 1"
       sodipodi:type="inkscape:persp3d" />
    <inkscape:perspective
       id="perspective3866"
       inkscape:persp3d-origin="0.5 : -29.666667 : 1"
       inkscape:vp_z="1 : -29.5 : 1"
       inkscape:vp_y="0 : 1000 : 0"
       inkscape:vp_x="0 : -29.5 : 1"
       sodipodi:type="inkscape:persp3d" />
  </defs>
  <sodipodi:namedview
     id="base"
     pagecolor="#ffffff"
     bordercolor="#666666"
     borderopacity="1.0"
     inkscape:pageopacity="0.0"
     inkscape:pageshadow="2"
     inkscape:zoom="1.4"
     inkscape:cx="198.21429"
     inkscape:cy="186.42857"
     inkscape:document-units="px"
     inkscape:current-layer="layer1"
     showgrid="false"
     inkscape:window-width="1920"
     inkscape:window-height="1043"
     inkscape:window-x="0"
     inkscape:window-y="0"
     inkscape:window-maximized="1"
     inkscape:showpageshadow="2"
     inkscape:pagecheckerboard="0"
     inkscape:deskcolor="#d1d1d1" />
  <metadata
     id="metadata7">
    <rdf:RDF>
      <cc:Work
         rdf:about="">
        <dc:format>image/svg+xml</dc:format>
        <dc:type
           rdf:resource="http://purl.org/dc/dcmitype/StillImage" />
      </cc:Work>
    </rdf:RDF>
  </metadata>
  <g
     inkscape:label="Layer 1"
     inkscape:groupmode="layer"
     id="layer1"
     transform="translate(-27.820801,-24.714976)">
    <path
       style="fill:#000000;stroke-width:0.999996"
       d="M 78.994655,158.28261 C 72.589051,153.24442 65.756044,148.4139 61.086815,141.61195 51.261916,129.61686 43.69721,115.72916 38.525666,101.13489 35.399821,91.645003 34.329273,81.470684 30.299644,72.3475 26.084251,65.721281 31.02201,58.477736 38.280196,56.371465 c 3.231498,-0.620224 8.913481,-3.668245 2.05475,-1.489672 -6.149067,4.51146 -6.744163,-4.095163 -0.438775,-4.640147 4.303126,-0.571973 5.887207,-4.094672 4.415665,-7.265886 -4.619174,-3.012228 11.200855,-6.32272 3.240849,-10.817395 -8.29217,-8.946325 11.598973,-10.668517 6.691522,-0.508232 -1.174687,7.812842 13.899081,-1.43194 10.401614,7.590196 3.554795,4.332741 13.31179,0.986143 13.069735,7.064576 5.178406,0.355964 6.955653,4.71306 11.816809,5.047568 5.03811,2.275188 14.171385,4.068061 15.885765,9.745445 -4.99837,3.957198 -16.572823,-8.174025 -17.128884,2.77995 1.509949,16.181566 1.125259,32.850688 7.045639,48.260372 2.8003,9.33065 9.588915,16.67566 15.719765,23.94279 5.86597,7.11724 13.81168,12.12746 21.91034,16.34632 7.10422,3.35048 14.7634,5.57264 22.50581,6.96698 3.14034,-2.40198 8.68452,-11.33197 13.58344,-7.56639 0.23242,4.23104 -9.72341,8.84469 -0.46838,8.37707 5.43446,-1.63942 9.20378,4.20285 13.67897,-1.06689 4.12294,4.88371 17.13673,-3.12031 14.20316,6.86205 -3.96684,2.5593 -9.75225,1.01282 -13.72563,4.53354 -6.55103,-3.272 -11.7666,2.92776 -19.01906,2.1437 -8.05417,1.44259 -16.248,2.02492 -24.41363,2.03757 -13.3962,-1.05843 -27.07611,-1.50458 -39.820135,-6.1687 -7.17917,-2.08612 -14.185193,-6.17394 -20.49488,-10.26367 z m 11.31372,4.90204 c 7.01022,3.03162 13.864945,6.22674 21.547665,7.19052 12.18874,1.69527 24.77585,4.30278 37.00828,1.92423 -5.53624,-2.49987 -11.25982,0.97391 -16.77521,-1.78756 -6.61503,1.42341 -13.71371,-0.36261 -20.43863,-1.24193 -7.64737,-3.40641 -15.900185,-5.74875 -23.061635,-10.17034 -8.948515,-3.26848 4.62805,4.1916 7.04464,4.79581 5.593965,3.17516 -6.15156,-1.62768 -7.807412,-2.94761 -4.685281,-2.62822 -5.282376,-2.07905 -0.463956,0.59009 0.970503,0.56803 1.929528,1.16309 2.946258,1.64679 z M 76.96919,153.75784 c 6.793116,2.51617 -0.02996,-4.77706 -3.142832,-4.35328 -1.379162,-2.3927 -5.26919,-3.90423 -2.525145,-5.18952 -4.936011,1.71359 -5.170689,-6.51635 -7.490851,-5.34052 -5.22188,-1.64888 -2.032359,-7.48998 -8.252536,-11.07699 -0.567785,-3.7797 -6.180011,-7.05801 -7.970066,-12.75911 -0.79059,-2.91896 -6.340599,-11.30122 -2.93122,-3.50025 2.902919,7.50973 8.010368,13.94092 12.260748,20.36475 3.300409,6.11625 7.197491,12.50843 13.208175,16.32389 2.02615,1.94364 3.98244,4.92177 6.843727,5.53103 z m -19.56953,-21.4858 c 0.23711,-1.02586 1.242397,2.22036 0,0 z m 27.704885,24.50206 c 1.504265,-0.67359 -2.163092,-0.84862 0,0 z m 3.687615,1.34515 c -0.381922,-1.85741 -1.683382,1.0386 0,0 z m 4.615795,1.92541 c 2.19754,-2.09236 -3.38661,-1.31928 0,0 z m 7.911205,4.40931 c 1.33536,-1.97378 -4.273825,-0.74488 0,0 z M 86.127508,153.86393 c 3.413197,-2.20805 -4.408534,-0.0305 0,0 z m 3.462717,1.72663 c -0.0968,-1.16733 -1.234084,0.52278 0,0 z m 17.306285,10.80179 c 2.78207,1.75573 16.24625,3.84825 7.81523,0.71995 -1.41071,0.2974 -15.633165,-4.02282 -7.81523,-0.71995 z M 79.422186,144.99458 c -0.270485,-1.17073 -4.318356,-1.29252 0,0 z m 8.05671,4.69552 c 2.096759,-1.46241 -4.351984,-1.12798 0,0 z m 6.776819,4.15517 c 3.00888,-1.13438 -4.88107,-1.13973 0,0 z M 76.143814,141.42406 c 3.2646,2.50358 13.165881,0.32082 4.999565,-1.49453 -3.71685,-1.98126 -12.093804,-3.33741 -6.383906,1.19471 l 1.384333,0.29984 z m 22.701881,13.85592 c 1.359845,-2.31682 -5.70256,-1.32305 0,0 z m -6.89842,-5.48254 c 7.98274,2.25816 -6.712749,-5.04814 -1.96956,-0.83094 l 1.05126,0.47572 0.91831,0.35528 z m 13.830745,7.99382 c 7.56011,0.0721 -6.828525,-1.04223 0,1e-5 z M 73.234959,137.05005 c -0.295284,-1.40821 -1.865641,0.11804 0,0 z m 45.331581,27.91478 c 0.20161,-2.54335 -2.46721,1.89256 0,0 z m -32.429989,-20.014 c -0.45728,-1.33923 -2.362203,-0.0547 0,0 z m -12.184615,-8.78432 c 4.340256,-0.26062 -5.942119,-1.91245 0,0 z m -14.434303,-9.33018 c -0.540215,-2.08062 -4.722869,-3.74005 0,0 z m 37.893452,24.04831 c -0.79494,-0.90663 -0.37393,0.19832 0,0 z m 23.586205,14.47393 c -0.0756,-1.38543 -1.28459,0.5244 0,0 z M 95.323715,148.7291 c 0.42455,-1.78503 -3.70093,-0.54046 0,0 z M 77.752363,137.59314 c 3.228897,-0.34573 -5.17255,-2.18287 0,0 z m 29.723557,18.46951 c 5.0318,-1.99345 -4.90425,-0.97316 0,0 z M 92.014995,145.56751 c 5.79914,0.74769 -6.900114,-3.94444 -1.27238,-0.41985 l 1.27237,0.41988 z m 20.154705,12.39262 c 5.41418,-3.23679 3.6292,7.57948 9.18547,0.91375 5.48079,-4.00177 -4.73312,4.94743 2.0217,0.71351 4.88505,-3.26724 12.10044,1.54879 16.65867,3.12019 3.27799,-0.16103 6.46467,2.83445 9.82512,1.01208 6.46891,-1.74237 -12.64979,-2.58423 -7.63813,-5.67557 -5.91909,1.72272 -10.29237,-2.05377 -13.20497,-5.84515 -6.63948,-1.53316 -14.31625,-4.92763 -17.62986,-10.80336 -1.35101,-2.2061 1.95174,0.3108 -1.16625,-3.29539 -4.00081,-3.55847 -5.99855,-7.59786 -8.6843,-11.92343 -3.208455,-1.71163 -3.582235,-6.74972 -3.906595,-0.1689 0.0254,-4.15325 -3.87378,-6.94868 -4.8255,-5.78666 -0.0171,-3.99982 4.17289,-1.99486 1.23978,-4.95427 -0.63131,-4.14567 -2.70997,-8.46555 -3.33477,-13.14619 -0.97075,-2.256244 -0.1367,-7.088534 -3.313194,-1.98094 -1.157281,5.39796 -0.384113,-6.633476 1.415573,-2.665984 2.362161,-4.048461 -0.848042,-3.572314 -0.979554,-3.010157 1.538725,-3.415856 0.973907,-8.261034 -0.401494,-6.412635 0.819921,-3.620395 1.29532,-13.324076 -1.227158,-11.604462 1.52907,-3.785849 2.899827,-17.323312 -3.738044,-12.161918 -2.690194,0.03777 -7.348825,0.97655 -9.550947,2.07172 6.904582,3.805992 -0.694498,1.374475 -3.505118,0.769561 -0.366224,3.521686 -3.150088,1.998574 -6.628048,2.033101 5.555043,0.687282 -2.705056,5.681435 -5.891814,3.741471 -4.138704,1.978052 3.571805,6.915609 0.08304,8.442233 0.428756,2.301598 -6.340504,-0.831159 -5.808865,4.48405 -4.017878,-1.690234 -0.553247,6.305084 1.456891,3.601008 6.833667,1.849499 4.810739,6.066138 4.984763,10.071588 -1.113453,2.333984 -5.497184,-5.486118 -0.976325,-5.123943 -3.566611,-5.793831 -3.945302,-2.094209 -6.909037,0.597363 -0.689497,0.19547 7.55981,3.82965 2.382943,5.626664 4.554573,0.70277 4.684154,4.68845 5.611349,7.21056 2.737546,2.85131 2.177259,-3.14843 5.452829,0.27816 -2.072815,-3.05272 -10.979272,-8.601274 -3.808375,-6.82172 -0.03833,-3.072434 -1.296923,-5.549974 0.900045,-5.489874 2.175624,-3.940045 -2.278555,9.714534 2.625425,4.707064 1.357505,-0.592764 1.693744,-3.945044 4.133815,0.31657 3.544075,3.48649 1.280138,6.01288 -3.719178,2.82049 0.894423,3.03421 6.687809,4.11853 5.59909,8.86346 1.15415,4.17327 2.768908,2.63617 4.176437,2.3949 1.104126,4.05482 1.731107,1.07323 1.783483,-0.85635 5.055492,1.08222 3.871334,4.07064 5.453168,6.15852 3.483662,1.57242 -4.986301,-10.65848 0.99455,-3.67775 6.292433,5.68112 2.359843,8.05261 -3.287014,7.14248 3.574011,-0.28873 4.726572,4.8318 9.197041,4.6519 4.076653,1.93936 6.836733,9.38811 -0.190113,6.28735 -2.437199,-2.19748 -11.061872,-4.90837 -4.017499,-0.72853 6.506175,3.0129 11.673585,4.81532 17.94853,8.59727 4.49077,3.2059 6.43094,6.87782 8.13303,7.60468 -3.77431,1.80274 -11.374265,-1.43954 -5.73085,-2.43319 -3.519955,-0.64119 -7.479035,-2.42123 -4.107475,1.96446 2.866905,2.39368 10.157045,2.14009 11.463915,2.41132 -1.10775,2.44084 -3.00892,2.63495 0.0454,2.82426 -3.40743,1.81588 1.09263,2.09705 1.4084,3.13464 z m -6.96792,-19.67705 c -2.07311,-2.16804 -2.60913,-6.22889 -0.36814,-2.69539 1.14921,0.46151 3.68142,6.63611 0.36819,2.69539 z m 22.69186,14.41428 c 1.29308,-0.0837 0.0376,0.98237 0,0 z m -25.96522,-19.73023 c -0.0795,-3.27779 0.74987,2.5282 0,0 z m -2.255275,-3.03438 c -2.6076,-5.03835 3.287325,1.42685 0,0 z M 72.342727,111.06933 c 1.531947,-0.40855 0.753695,2.62007 0,0 z m 21.751508,11.79005 c 0.94082,-3.53303 1.10562,2.96445 0,0 z m -15.36678,-10.68517 c -1.08329,-1.94957 2.26591,1.82843 0,0 z m 13.18796,4.22762 c -2.47042,-5.53478 1.74901,-3.02325 0.54656,0.9071 z M 69.172673,101.23472 C 68.0682,99.418896 66.241194,94.091008 66.82938,92.464528 c 0.532113,2.648888 5.633013,11.399502 2.502142,3.624878 -3.459886,-6.517175 4.135804,2.11541 4.917124,3.74094 0.363832,1.617074 -2.134653,-0.44179 -0.441738,3.349844 -3.0873,-4.316884 -1.822545,2.38455 -4.634235,-1.94547 z m -7.028784,-4.843304 c 0.28934,-4.222009 1.609056,2.89511 0,0 z m 3.161613,1.08834 c 1.508703,-3.186708 2.55815,4.442544 0,0 z M 57.700163,91.59644 c -2.616832,-2.600352 -4.510525,-4.997406 0.122437,-1.613875 1.785174,0.06967 -3.96621,-5.451052 0.429916,-1.753128 4.622678,0.84287 2.282703,7.579459 -0.552353,3.367003 z m 3.994987,-0.104438 c 1.519673,-1.505936 0.806764,1.482424 0,0 z m 2.458176,0.788052 c -2.303885,-4.318408 2.796138,1.810452 0,0 z M 59.26663,87.61007 c -7.607344,-6.770008 9.559107,3.540041 1.242816,1.255131 l -1.242864,-1.255069 z m 21.796185,12.66405 c -3.291985,-1.973854 -0.872387,-13.895782 0.250255,-5.742034 3.200317,-1.035271 -0.176698,4.21099 2.210296,4.16243 -0.376188,3.310064 -1.444064,4.500094 -2.460551,1.579604 z m 8.0619,4.76476 c 0.32287,-3.59291 0.6795,2.45645 0,0 z m -1.400335,-1.3836 c 0.362456,-1.53491 0.03747,1.80751 0,0 z M 60.758935,85.385431 C 55.871724,78.642562 74.96245,92.206122 63.889114,87.095677 62.732033,86.793052 61.339791,86.685 60.758935,85.385431 Z m 15.52452,8.231039 c -0.462486,-5.677607 1.032823,0.941116 -1.69e-4,-1.7e-5 z m 11.786704,7.56109 c 0.912146,-3.234084 0.06799,2.13942 0,0 z M 61.507597,82.812013 c 2.904658,-0.621268 12.037337,5.101262 3.650622,1.634617 -0.931867,-1.03161 -2.918407,-0.562905 -3.650622,-1.634617 z m 24.943172,12.431783 c 0.310471,-5.805514 1.734066,-3.467756 0.01073,0.83101 l -0.01064,-0.831 -4.4e-5,-1e-5 z M 63.669779,80.791859 c 1.18349,-1.736028 -3.14168,-7.848909 0.62347,-2.192715 1.626896,1.292694 4.710458,2.165589 1.987957,2.70942 4.281767,3.777233 -1.044324,1.023537 -2.611427,-0.516705 z m 21.547287,12.638528 c 0.817625,-6.613365 0.721034,3.874599 0,0 z M 61.198032,74.683601 c 0.903991,-0.386335 0.477411,1.204495 0,0 z m 5.620442,3.345278 c 1.446462,-3.03515 2.668337,3.38504 0,0 z m 15.853885,8.819317 c -0.0153,-1.165673 0.299098,1.6956 0,0 z M 81.754,84.81505 c -2.200469,-5.428706 2.046816,2.874239 0,0 z m -1.351099,-3.559272 c -0.369358,-2.243197 1.255332,2.818183 -6.4e-5,-7e-6 z m 2.198851,-3.574349 c -1.509983,-2.66096 1.906815,-11.726285 2.288086,-6.104054 -1.59374,4.380735 -0.45976,6.831404 0.652054,0.955609 2.053184,-4.624305 -0.443513,9.12523 -2.940175,5.148468 z M 84.8614,64.199795 c 0.658247,-0.808302 0.146096,0.973812 0,0 z m -3.773585,74.358045 c -0.89506,-0.78112 0.112393,0.49704 0,0 z m 7.773844,3.93247 c 4.324206,1.10951 4.302096,-0.67279 0.393916,-1.20229 -2.102121,-1.95554 -8.735053,-4.02975 -2.798244,-0.24265 0.393181,0.99597 1.635601,0.97276 2.404328,1.44494 z M 73.508594,132.29289 c 2.382227,1.77645 8.973196,5.03473 3.393739,0.67615 1.881146,-2.18557 -3.600581,-3.34891 -1.782169,-4.81088 -4.625199,-2.83023 -3.648633,-2.57846 -0.408242,-2.48942 -5.55866,-2.48459 0.802357,-2.29874 0.502845,-3.57185 -2.143377,-0.42332 -10.646111,-3.77941 -5.643992,0.27569 -5.084987,-2.59269 -1.211768,0.96581 -2.748709,0.5896 -5.199731,-1.41776 4.630667,3.96026 -0.825827,2.62521 2.983081,2.36398 8.02944,6.05524 1.261188,2.5017 -0.891774,1.28366 4.84343,3.2294 6.251167,4.2038 z m 8.130502,4.6709 c 9.885849,3.18566 -4.846724,-3.89197 0,0 z m 41.620464,25.21372 c 0.12751,-1.96124 -1.35113,1.67305 0,0 z m 4.27781,1.8004 c 2.28083,-2.21009 0.0932,3.52043 3.77933,-0.54105 0.0399,-2.90753 -0.11351,-4.62489 -4.23593,-1.09294 -1.13641,0.63023 -1.64375,3.3099 0.4566,1.63399 z M 59.631976,121.33205 c -0.70049,-2.75357 -4.909996,-2.7393 0,0 z m 4.567894,2.99329 c -1.696257,-2.81249 -6.05225,-2.54623 0,0 z m 25.986955,15.67217 c 2.53718,2.25358 11.652865,1.65355 3.08158,0.27732 -1.26947,-1.87699 -8.060971,-1.42525 -3.08158,-0.27732 z m 35.723455,22.06223 c 3.90493,-3.27669 -3.78344,1.46178 0,0 z m 8.12136,5.58095 c 0.0244,-1.05152 -1.68317,0.46038 0,0 z m 0.0125,-1.47213 c 4.32423,-4.58164 -4.19004,0.27099 -3e-5,0 z M 48.396964,111.92628 c -3.68556,-5.2586 -2.291047,-7.62229 -5.845197,-11.91601 -0.672833,-3.283444 -6.09724,-10.734243 -2.805619,-2.840714 3.014935,4.616564 3.91084,11.764344 8.650816,14.756724 z m 84.290806,52.78582 c 7.95555,-5.14204 -3.26559,-2.23987 0,0 z m 6.07299,2.37903 c 3.9839,-3.42055 -2.52003,-0.71543 0,0 z M 58.27799,115.51952 c 1.140168,-1.69624 -2.944654,-0.21696 0,0 z m 79.21474,49.94727 c 3.85736,-2.48709 -0.88874,-2.10524 -0.69915,0.22873 l 0.69916,-0.22873 z M 85.143125,132.47066 c -0.132603,-1.6794 -2.036972,0.14255 0,0 z m 3.235191,1.86153 c -1.02817,-2.0787 -1.580818,0.32653 0,0 z m 55.303934,32.81534 c 4.94176,-3.56495 -2.99564,-0.68253 -1.03731,0.67542 z m -1.89234,-0.91462 c 4.0257,-3.37339 -4.25018,1.49495 0,0 z m 9.66846,6.43868 c 2.7029,-1.8104 -3.28376,-0.58561 0,0 z M 60.756897,114.29635 c 3.623126,0.81177 14.478899,8.92278 8.074446,0.56095 -3.280097,-0.97096 -1.312926,-8.98889 -4.658655,-7.56983 2.245647,3.7515 1.847609,5.34825 -2.867247,2.98315 -5.925834,-2.89266 -3.330145,1.43352 -2.172041,2.62582 -1.578202,0.35864 2.087538,1.36975 1.623497,1.39991 z m -16.506851,-13.0362 c 0.648638,-2.682774 -5.972459,-14.758991 -3.126579,-6.051054 1.027274,1.82409 0.92283,5.281124 3.126579,6.051054 z M 74.547209,119.939 c -1.865665,-1.56025 -0.08866,-0.22081 0,0 z m 4.594255,1.06916 c -0.0024,-2.84187 -5.078278,-1.15402 0,0 z m 39.812906,25.0984 c -0.75934,-1.94167 -3.00152,-0.045 7e-5,3e-5 z m 1.91187,1.39656 c -0.28225,-1.08674 -1.10304,0.20977 0,0 z m 15.78052,9.9398 c 1.51775,-1.12127 -1.89398,-0.1432 0,0 z m -84.151427,-54.0778 c 4.341141,-1.68071 -4.651213,-1.19846 0,0 z m 62.954197,39.66153 c -0.0483,-2.81038 -2.76748,0.69723 0,0 z M 50.780157,99.368256 c 2.788544,-0.94193 -2.57963,-0.62041 0,0 z m 8.093855,3.920704 c -0.05058,-0.92373 -0.856166,0.34962 0,0 z m 98.721028,60.53707 c 3.58578,-0.72701 11.75706,1.82511 13.07778,-0.95075 -4.35451,-0.10572 -15.06556,-3.07219 -15.57233,0.70791 l 0.95323,0.15017 1.54132,0.0927 z M 61.446442,103.93722 c 0.06234,-2.84782 -2.22075,-0.10636 0,0 z m -21.2808,-14.76205 c -0.966442,-5.425877 -3.67575,-0.821187 0,0 z m 5.074702,1.275564 c 0.06234,-1.742264 -4.64489,-1.567695 0,0 z m 2.900035,1.424308 c -0.838295,-0.679032 -0.656161,0.857814 0,0 z m 18.247479,11.705768 c 0.85905,-0.78917 -2.033785,-0.58455 0,0 z M 46.208815,88.662765 c -0.490497,-4.098125 -5.877622,-0.614019 0,0 z M 35.804874,81.912109 c -0.147969,-1.89135 -1.013873,0.713469 0,0 z m 1.547547,-1.168727 c -0.252477,-2.242666 -1.328679,0.285337 0,0 z m 8.550608,5.103946 c 3.615667,-1.420279 -6.585942,-2.937791 -0.738787,-0.268337 z M 160.33953,156.53286 c 2.31421,-2.12173 -2.94121,-0.65599 0,0 z m 13.82472,7.16619 c 0.92741,-2.74318 -2.33497,0.36116 0,0 z M 46.776881,81.365668 c 0.380892,-2.653615 -2.866473,0.52691 0,0 z M 34.611445,73.214934 c -0.653527,-3.7464 -0.564136,-10.322403 5.686863,-8.100057 -8.344046,1.656623 5.775007,10.370808 3.992032,3.490653 3.508476,0.171784 6.863387,-2.073515 5.022181,1.333859 6.912726,-0.763474 11.705222,-6.757783 18.382456,-5.917805 5.201247,-0.688297 10.888102,-1.210318 16.493109,-3.303992 4.608375,-0.331996 9.044569,-5.293611 6.518589,-8.234464 -6.284504,-0.531742 -12.863036,0.254556 -19.809154,1.635208 -7.69717,1.600133 -14.688794,4.640268 -22.45506,5.945237 -7.569917,1.016876 1.522621,2.801736 -0.645706,3.199379 -3.950095,1.370568 4.710796,2.294799 -0.5121,3.739643 -3.225562,-0.613306 -6.582961,-1.721579 -5.205144,-5.120731 -7.251316,0.940951 -13.623142,3.950489 -7.894164,11.32964 l 0.42609,0.0033 8e-6,-2.25e-4 z M 52.084481,64.31599 c 1.70018,-6.263305 9.108671,5.153937 2.786683,0.831924 -0.755113,-0.565118 -1.997002,-1.026154 -2.786683,-0.831924 z m 0.330771,-3.036623 c 2.453843,-1.828077 1.304445,1.024899 0,0 z m 3.115803,0.04945 c 0.221517,-2.882059 7.132623,1.525745 1.139563,1.037511 z m 4.262139,-1.713671 c 1.556471,-1.818646 0.447392,1.617675 0,0 z m 1.090345,-0.730129 c 2.591695,-3.114046 14.677003,-1.987425 5.830974,-0.303636 -2.371055,-1.785069 -4.188574,1.052532 -5.830974,0.303636 z m 15.771609,-2.43117 c -0.394245,-8.506125 7.835457,3.022795 0,0 z m 4.475103,-0.02449 c 1.636113,-4.287187 6.349164,-1.720339 0.757117,-0.861506 0.121432,0.45622 -0.163978,2.213277 -0.757117,0.861506 z M 45.012213,79.165124 c 4.888517,-2.993535 -5.189712,-2.597115 0,0 z m 3.614549,1.004409 c 1.713952,-1.822472 -3.724187,-0.739206 0,0 z M 37.976616,72.611011 c 2.793295,-2.14576 -3.305475,-0.815824 0,0 z M 182.32442,162.915 c 0.0807,-2.48949 -2.135,1.12184 0,0 z m -14.66756,-10.00951 c 0.41709,-2.86619 -1.8849,0.24989 0,0 z m 18.70093,10.97478 c 3.90546,0.0132 11.83322,-1.21285 3.33567,-1.20897 -1.33345,0.20796 -7.76979,0.16336 -3.33566,1.20895 z M 51.806191,78.412741 c 3.160703,-0.217096 4.945104,-3.486489 -0.611276,-3.298556 -8.611439,-0.891531 7.597728,2.948601 -1.104714,1.850572 -1.169339,0.77437 1.648062,1.662237 1.71599,1.447984 z m 2.783663,1.408931 c -0.330014,-2.02934 -0.977396,1.078055 0,0 z m 3.302003,-8.804914 c 1.371576,-1.701234 -1.897954,-0.45481 0,0 z M 47.380289,53.446123 c 5.640899,-1.919007 13.354742,-4.075358 16.018182,0.944874 -2.710628,-3.26245 -1.093905,-6.474144 1.466291,-1.704182 3.620145,4.826186 5.432461,-2.195083 3.077868,-3.813877 2.683254,3.333978 5.735164,4.909409 1.796562,0.210725 4.279963,-5.148356 -8.569888,0.67417 -11.490574,0.615537 -1.40525,0.630742 -14.508086,3.341581 -10.868329,3.746923 z m 3.305886,-6.331362 c 3.217057,-2.428118 11.12629,1.444327 6.050977,-2.413121 -0.496208,-0.438308 -11.114951,2.925156 -6.050977,2.413121 z m 11.728409,0.484208 c 3.765118,0.09608 -1.624061,-5.05807 2.862552,-2.722565 -0.736854,-2.407193 -5.223677,-2.857848 -7.417237,-3.819587 -1.240682,2.200858 2.52537,6.571734 4.554685,6.542152 z M 52.742712,36.952512 c 1.302545,-1.765755 -2.282799,0.895189 0,0 z m 4.793568,1.147336 c 6.067504,-0.804766 -1.54663,-2.61295 -1.222632,-0.06467 l 1.222632,0.06467 v -8e-6 z m -8.95057,-7.003607 c -4.272199,-5.576974 8.034441,0.937472 3.693888,-4.901813 -3.653287,-2.90912 -7.16389,3.273749 -3.693888,4.901813 z m 54.82684,29.531322 c 1.95946,-3.47361 -8.089835,-4.682229 -1.32022,-1.231097 0.62328,0.208277 0.48222,1.471341 1.32022,1.231097 z"
       id="path2900" />
    <g
       style="font-style:normal;font-weight:normal;font-size:40px;font-family:'Bitstream Vera Sans';fill:#000000;fill-opacity:1;stroke:none"
       id="text3850" />
    <g
       style="font-style:normal;font-weight:normal;font-size:40px;line-height:90%;font-family:'Bitstream Vera Sans';fill:#000000;fill-opacity:1;stroke:none"
       id="text2870"
       transform="translate(0,4)" />
  </g>
</svg>
