<?xml version="1.0" encoding="UTF-8" standalone="no"?>
<svg
   width="50"
   height="50"
   viewBox="0 0 5.12 5.12"
   preserveAspectRatio="xMinYMin"
   version="1.1"
   id="svg1"
   xmlns="http://www.w3.org/2000/svg"
   xmlns:svg="http://www.w3.org/2000/svg">
  <defs
     id="defs1" />
  <path
     d="M 5.0234498,2.3319221 2.7880054,0.09659768 c -0.1286602,-0.12874025 -0.3374606,-0.12874025 -0.4662809,0 L 1.8575236,0.56079859 2.4463848,1.1496597 c 0.1368402,-0.04624 0.2937606,-0.01522 0.4028408,0.09386 0.1096002,0.1097802 0.1404002,0.2680406 0.09304,0.4053208 l 0.5675012,0.5675211 c 0.1373002,-0.0473 0.2957205,-0.0167 0.4053807,0.09314 0.1532603,0.1532003 0.1532603,0.4015008 0,0.5548011 -0.1533003,0.1533203 -0.4016007,0.1533203 -0.554981,0 C 3.2448863,2.7489029 3.2164063,2.5796025 3.2747664,2.4375823 l -0.529241,-0.5292411 -6e-5,1.3927427 a 0.39640077,0.39640077 0 0 1 0.1037602,0.0742 c 0.1532603,0.1532003 0.1532603,0.4015208 0,0.5549411 -0.1533003,0.1532403 -0.4017208,0.1532403 -0.5548011,0 -0.1532603,-0.1534203 -0.1532603,-0.4017208 0,-0.5549211 a 0.39308077,0.39308077 0 0 1 0.1284202,-0.08562 V 1.8839612 A 0.38756076,0.38756076 0 0 1 2.2944245,1.798341 C 2.1783043,1.6823808 2.1503842,1.5120005 2.2098843,1.3694202 L 1.6294032,0.78887903 0.09660018,2.321582 c -0.12880025,0.1288603 -0.12880025,0.3376807 0,0.4664409 L 2.3320846,5.0233873 c 0.1287002,0.1287603 0.3374606,0.1287603 0.4663209,0 L 5.0234298,2.798403 c 0.1287603,-0.1288003 0.1287603,-0.3377407 0,-0.4664809"
     fill="#de4c36"
     id="path1"
     style="stroke-width:0.02" />
</svg>
