<svg width="50" height="50" version="1.1" viewBox="0 0 13 13" xmlns="http://www.w3.org/2000/svg">
 <path d="m6.6-3.2e-7c-3.6 0-6.6 3-6.6 6.8 0 3 1.9 5.5 4.5 6.4 0.33 0.052 0.44-0.16 0.44-0.34v-1.1c-1.8 0.4-2.2-0.91-2.2-0.91-0.3-0.79-0.73-0.99-0.73-0.99-0.6-0.42 0.047-0.41 0.047-0.41 0.66 0.048 1 0.7 1 0.7 0.58 1 1.6 0.73 1.9 0.57 0.06-0.44 0.23-0.74 0.41-0.91-1.5-0.16-3-0.75-3-3.3 0-0.75 0.25-1.4 0.68-1.8-0.065-0.16-0.3-0.87 0.071-1.8 0 0 0.55-0.18 1.8 0.69 0.52-0.15 1.1-0.22 1.6-0.22 0.56 0 1.1 0.073 1.7 0.22 1.3-0.87 1.8-0.69 1.8-0.69 0.37 0.91 0.14 1.6 0.07 1.8 0.43 0.49 0.68 1.1 0.68 1.8 0 2.6-1.5 3.2-3 3.3 0.23 0.21 0.45 0.62 0.45 1.3v1.9c0 0.18 0.1 0.4 0.45 0.34 2.6-0.91 4.5-3.4 4.5-6.4 0-3.7-3-6.8-6.6-6.8z" fill="#6e5494"/>
</svg>
