<svg
   width="50"
   height="50"
   viewBox="0 0 13 13"
   id="svg65093"
  <g
     id="layer1">
    <path
       d="m 6.6100487,0.16102072 c -3.6477732,0 -6.61005123,2.96227808 -6.61005123,6.61005208 0,2.9225281 1.89428433,5.4062742 4.52039383,6.2872132 0.3293162,0.05114 0.4402473,-0.155796 0.4402473,-0.331362 0,-0.154091 0,-0.567884 0,-1.117596 C 3.1227063,12.003587 2.7352314,10.721811 2.7352314,10.721811 2.4308013,9.9534743 2.0050084,9.7531573 2.0050084,9.7531573 1.4022846,9.3391598 2.0520535,9.3509552 2.0520535,9.3509552 c 0.6589735,0.047045 1.008369,0.6788138 1.008369,0.6788138 0.5762353,1.010073 1.5531727,0.712052 1.9273517,0.551417 C 5.0474327,10.154063 5.2216365,9.8625548 5.4017717,9.693669 3.9347129,9.5331019 2.3947675,8.9634802 2.3947675,6.4416542 c 0,-0.7318934 0.2515893,-1.3197196 0.6788823,-1.7932735 -0.064772,-0.1605673 -0.2979528,-0.8527451 0.07125,-1.7452398 0,0 0.5497467,-0.1755671 1.8180915,0.6722688 C 5.4862489,3.4332514 6.0558705,3.362002 6.6122309,3.362002 c 0.5629398,0 1.1309251,0.071249 1.6558198,0.2134077 1.2616974,-0.8478019 1.8180903,-0.6722688 1.8180903,-0.6722688 0.367533,0.8924947 0.135682,1.5846384 0.06954,1.7452398 0.427124,0.4735539 0.680554,1.0613801 0.680554,1.7932735 0,2.5284396 -1.5465254,3.0848 -3.0218343,3.2454012 0.2331804,0.2069312 0.4538496,0.6093376 0.4538496,1.2236506 0,0.885882 0,1.602879 0,1.816457 0,0.175566 0.1029539,0.389077 0.4454292,0.33136 2.6261825,-0.887517 4.5154895,-3.3646494 4.5154895,-6.2871775 0,-3.647774 -2.962278,-6.61005204 -6.6166998,-6.61005204 z"
       style="fill:#6e5494;fill-opacity:1;fill-rule:nonzero;stroke:none;stroke-width:0.352777"
       id="path584" />
  </g>
</svg>
