<?xml version="1.0" encoding="UTF-8" standalone="no"?>
<svg
   width="50"
   height="50"
   version="1.1"
   id="svg1"
   xmlns="http://www.w3.org/2000/svg"
   xmlns:svg="http://www.w3.org/2000/svg">
  <defs
     id="defs1" />
  <g
     transform="matrix(0.5,0,0,0.5,-7,25)"
     id="g1">
    <circle
       r="50"
       cy="0"
       cx="64"
       fill="#214674"
       id="circle1" />
    <path
       d="m 75.3,-0.6 c 4,1.4 6.1,3.8 6.1,7.3 0,2.3 -0.8,4 -2.5,5.4 -1.7,1.3 -4,2.1 -7.1,2.1 -2.9,0 -5.6,-0.8 -8.1,-2.1 -0.3,-0.2 -0.5,-0.5 -0.5,-0.9 a 8.93,8.93 0 0 1 0.6,-2 l 0.8,-1.6 c 0.3,-0.4 0.7,-0.5 1.2,-0.3 2.2,1 4,1.6 5.7,1.6 0.8,0 1.5,-0.1 2,-0.4 0.5,-0.3 0.7,-0.7 0.7,-1.1 0,-0.9 -0.7,-1.6 -2.1,-2 L 69.6,4.5 c -3.8,-1.4 -5.7,-3.6 -5.7,-6.8 0,-2.3 0.8,-4.1 2.4,-5.4 1.6,-1.3 3.7,-2.5 6.4,-2.5 1.3,0 2.8,0.2 4.4,0.6 1.4,0.3 2.5,1 3.5,1.6 0.3,0.2 0.5,0.5 0.5,0.9 0,0.7 -0.2,1.4 -0.5,2.2 -0.3,0.7 -0.6,1.3 -1,1.7 -0.3,0.3 -0.7,0.4 -1,0.2 -2.3,-1 -4.2,-1.5 -5.8,-1.5 -0.6,0 -1.1,0.1 -1.4,0.4 -0.3,0.3 -0.5,0.6 -0.5,1 0,0.7 0.6,1.3 1.7,1.7 z M 93.9,3 c -1.3,1.1 -2,2.7 -2,4.9 v 7.9 c 0,2.6 -0.8,4.6 -2.6,6 -1.8,1.4 -3.9,2 -6.3,2.1 h -1.4 v -3.3 c 0,-0.4 0.2,-0.7 0.6,-0.8 0.9,-0.3 1.3,-0.7 1.7,-1.1 0.9,-0.8 1.6,-2.2 1.6,-4 V 8.3 c 0,-2.2 0.2,-3.9 1,-5.1 0.6,-0.9 1.6,-1.7 3,-2.5 0.6,-0.3 0.6,-1.2 0,-1.6 -1.7,-1 -2.8,-2.2 -3.5,-3.7 -0.5,-1.1 -0.5,-2.6 -0.5,-4.5 v -5.8 c 0,-1.9 -0.6,-3.3 -1.4,-4 a 3.41,3.41 0 0 0 -1.8,-1 c -0.4,-0.1 -0.6,-0.5 -0.6,-0.9 v -2.1 c 0,-0.5 0.4,-0.9 0.9,-0.9 h 2.7 c 1.5,0 2.8,0.8 3.9,1.7 1.2,1 2.1,2.2 2.6,3.9 0.3,0.9 0.3,1.8 0.3,2.7 v 6.7 c 0,2.4 0.7,4.2 1.9,5.3 0.6,0.6 1.4,1.1 2.7,1.6 0.4,0.1 0.6,0.5 0.6,0.8 V 0.6 C 97.3,1 97.1,1.3 96.7,1.5 95.3,1.9 94.5,2.4 93.9,3 Z M 44.8,-23.8 h -1.3 c -1.5,0 -2.8,0.8 -3.9,1.7 -1.2,1 -2.3,2.2 -2.6,3.9 -0.2,1 -0.1,1.8 -0.1,2.7 v 6.7 c 0,2.4 -0.9,4.1 -2.1,5.3 -0.6,0.6 -1.8,1.1 -3.2,1.6 C 31.2,-1.7 31,-1.4 31,-1 v 1.7 c 0,0.4 0.2,0.7 0.6,0.9 1.2,0.4 2.3,0.9 3,1.5 1.3,1.1 2.2,2.7 2.2,4.9 v 7.9 c 0,2.6 0.6,4.6 2.4,6 1.8,1.4 3.9,2 6.3,2.1 h 0.7 c 0.5,0 0.9,-0.4 0.9,-0.9 V 20.7 C 47.1,20.3 46.9,20 46.5,19.9 45.6,19.6 45,19.2 44.6,18.8 43.7,18 43.2,16.6 43.2,14.8 V 8.4 C 43.2,6.2 42.8,4.5 42,3.3 41.4,2.4 40.4,1.6 39,0.8 c -0.6,-0.3 -0.6,-1.2 0,-1.6 1.7,-1 2.8,-2.2 3.5,-3.7 0.5,-1.1 0.7,-2.6 0.7,-4.5 v -5.8 c 0,-1.9 0.4,-3.3 1.2,-4 0.4,-0.4 1.1,-0.7 2.1,-1 h 0.9 c 0.5,0 0.9,-0.4 0.9,-0.9 v -2.1 c 0,-0.5 -0.4,-0.9 -0.9,-0.9 z M 61,8.1 H 59.8 C 58.5,8.1 58,7.4 58,6 v -25.9 c 0,-1.6 -0.5,-2.7 -1,-3.3 -0.6,-0.6 -1.6,-0.6 -3,-0.6 h -2.2 c -0.5,0 -0.9,0.4 -0.9,0.9 V 7.3 c 0,2.2 0.5,3.7 1.4,4.8 0.9,1 2.3,1.5 4.4,1.5 1.3,0 2.7,-0.1 4.2,-0.3 0.4,-0.1 0.7,-0.4 0.8,-0.8 V 11.3 C 61.5,10.1 61.3,9.1 61,8.1 Z"
       fill="#f6f6f6"
       id="path1" />
  </g>
</svg>
