<?xml version="1.0" encoding="UTF-8" standalone="no"?>
<svg
   width="50"
   height="50"
   version="1.1"
   id="svg232"
   xmlns="http://www.w3.org/2000/svg"
   xmlns:svg="http://www.w3.org/2000/svg">
  <defs
     id="defs236" />
  <path
     fill="#666666"
     d="m 45.175316,38.96518 c -0.756149,1.746862 -1.651184,3.354838 -2.68819,4.833188 -1.413538,2.015369 -2.57091,3.41039 -3.462858,4.18506 -1.382674,1.271564 -2.86411,1.922779 -4.450482,1.959814 -1.138854,0 -2.51227,-0.324065 -4.110987,-0.98145 -1.603963,-0.654305 -3.077992,-0.978365 -4.425791,-0.978365 -1.413538,0 -2.929542,0.32406 -4.551097,0.978365 -1.624026,0.657385 -2.932319,0.99997 -3.932598,1.03392 -1.52125,0.06481 -3.037561,-0.604925 -4.551097,-2.012285 C 12.036197,47.140857 10.8279,45.696457 9.380413,43.650222 7.8273741,41.465102 6.550561,38.931231 5.5502826,36.04243 4.4790188,32.922153 3.941998,29.900641 3.941998,26.975422 c 0,-3.350825 0.7240522,-6.24086 2.1743168,-8.662701 1.1397802,-1.945311 2.6560922,-3.479832 4.5538732,-4.606342 1.897783,-1.126508 3.948338,-1.700565 6.156605,-1.737292 1.208296,0 2.792817,0.373753 4.761892,1.1083 1.963521,0.737014 3.224285,1.110769 3.777045,1.110769 0.413259,0 1.813834,-0.437025 4.188146,-1.308294 2.245303,-0.808 4.140307,-1.142559 5.692729,-1.010773 4.206663,0.339496 7.367061,1.99778 9.468849,4.985343 -3.762232,2.279561 -5.623287,5.472365 -5.586251,9.568228 0.03395,3.190335 1.191321,5.845192 3.465944,7.953155 1.030832,0.978363 2.182033,1.734513 3.462855,2.271535 -0.277765,0.805531 -0.570966,1.577112 -0.882686,2.31783 z M 35.527461,1.0002843 c 0,2.5005705 -0.913554,4.8353465 -2.734485,6.996391 -2.197466,2.5690587 -4.855408,4.0535807 -7.73773,3.8193297 -0.03673,-0.299992 -0.05802,-0.615722 -0.05802,-0.947502 0,-2.4005452 1.04503,-4.9696032 2.900839,-7.0701567 0.926511,-1.063547 2.104871,-1.947872 3.53384,-2.653315 C 32.857788,0.45011378 34.206513,0.06580978 35.474992,-7.2387797e-7 35.512032,0.33428678 35.527462,0.66859478 35.527462,1.0002518 Z"
     id="path230"
     style="stroke-width:1" />
</svg>
