<?xml version="1.0" encoding="UTF-8" standalone="no"?>
<!-- Created with Inkscape (http://www.inkscape.org/) -->

<svg
   width="50"
   height="50"
   viewBox="0 0 13.229166 13.229167"
   version="1.1"
   id="svg65093"
   inkscape:version="1.2.2 (1:1.2.2+202212051552+b0a8486541)"
   sodipodi:docname="mail.svg"
   xmlns:inkscape="http://www.inkscape.org/namespaces/inkscape"
   xmlns:sodipodi="http://sodipodi.sourceforge.net/DTD/sodipodi-0.dtd"
   xmlns="http://www.w3.org/2000/svg"
   xmlns:svg="http://www.w3.org/2000/svg">
  <sodipodi:namedview
     id="namedview65095"
     pagecolor="#ffffff"
     bordercolor="#000000"
     borderopacity="0.25"
     inkscape:showpageshadow="2"
     inkscape:pageopacity="0.0"
     inkscape:pagecheckerboard="0"
     inkscape:deskcolor="#d1d1d1"
     inkscape:document-units="px"
     showgrid="false"
     inkscape:zoom="5.6159371"
     inkscape:cx="-1.5135497"
     inkscape:cy="47.899397"
     inkscape:window-width="1920"
     inkscape:window-height="1043"
     inkscape:window-x="0"
     inkscape:window-y="0"
     inkscape:window-maximized="1"
     inkscape:current-layer="layer1" />
  <defs
     id="defs65090" />
  <g
     inkscape:label="Layer 1"
     inkscape:groupmode="layer"
     id="layer1">
    <g
       id="g65046"
       transform="matrix(2.6626996,0,0,2.6626996,-867.12673,-336.69927)"
       style="stroke-width:0.375559">
      <path
         d="m 329.47806,127.78809 c 0,-0.21056 -0.17215,-0.38229 -0.38099,-0.38229 h -3.05741 c -0.21055,0 -0.38271,0.17173 -0.38271,0.38229 v 2.2924 c 0,0.21056 0.17216,0.38272 0.38271,0.38272 h 3.05741 c 0.20884,0 0.38099,-0.17216 0.38099,-0.38272 z m -0.38099,0 -1.5287,0.9557 -1.52871,-0.9557 z m 0,2.2924 h -3.05741 v -1.91141 l 1.52871,0.9557 1.5287,-0.9557 z"
         style="fill:#333333;fill-opacity:1;fill-rule:nonzero;stroke:none;stroke-width:0.132489"
         id="path544"
         sodipodi:nodetypes="ssssssssscccccccccc" />
      <path
         d="m 330.62535,127.97879 h -0.3823 v 1.14599 h 0.3823 z m 0,1.52871 h -0.3823 v 0.38228 h 0.3823 z"
         style="fill:#ff0000;fill-opacity:1;fill-rule:nonzero;stroke:none;stroke-width:0.132489"
         id="path64920"
         sodipodi:nodetypes="cccccccccc" />
    </g>
  </g>
</svg>
