<?xml version="1.0" encoding="UTF-8" standalone="no"?>
<svg
   width="50"
   height="50"
   version="1.2"
   viewBox="0 0 50 50"
   id="svg771"
   sodipodi:docname="Node.svg"
   inkscape:version="1.3.2 (1:1.3.2+202311252150+091e20ef0f)"
   xmlns:inkscape="http://www.inkscape.org/namespaces/inkscape"
   xmlns:sodipodi="http://sodipodi.sourceforge.net/DTD/sodipodi-0.dtd"
   xmlns="http://www.w3.org/2000/svg"
   xmlns:svg="http://www.w3.org/2000/svg">
  <sodipodi:namedview
     id="namedview1"
     pagecolor="#505050"
     bordercolor="#ffffff"
     borderopacity="1"
     inkscape:showpageshadow="0"
     inkscape:pageopacity="0"
     inkscape:pagecheckerboard="1"
     inkscape:deskcolor="#505050"
     inkscape:zoom="14.08"
     inkscape:cx="25"
     inkscape:cy="24.964489"
     inkscape:window-width="1920"
     inkscape:window-height="1043"
     inkscape:window-x="0"
     inkscape:window-y="0"
     inkscape:window-maximized="1"
     inkscape:current-layer="svg771" />
  <defs
     id="defs749">
    <clipPath
       id="a">
      <path
         d="m 239.03,226.605 -42.13,24.317 c -1.578,0.91 -2.546,2.59 -2.546,4.406 v 48.668 c 0,1.817 0.968,3.496 2.546,4.406 l 42.133,24.336 c 1.575,0.907 3.517,0.907 5.09,0 l 42.126,-24.336 c 1.57,-0.91 2.54,-2.59 2.54,-4.406 v -48.668 c 0,-1.816 -0.97,-3.496 -2.55,-4.406 l -42.12,-24.317 c -0.79,-0.453 -1.67,-0.68 -2.55,-0.68 -0.88,0 -1.76,0.227 -2.55,0.68"
         id="path715" />
    </clipPath>
    <linearGradient
       id="b"
       x1="-0.34799999"
       x2="1.251"
       gradientTransform="matrix(-38.064915,77.652126,-77.652126,-38.064915,258.72325,244.62943)"
       gradientUnits="userSpaceOnUse">
      <stop
         offset=".3"
         stop-color="#3E863D"
         id="stop718" />
      <stop
         offset=".5"
         stop-color="#55934F"
         id="stop720" />
      <stop
         offset=".8"
         stop-color="#5AAD45"
         id="stop722" />
    </linearGradient>
    <clipPath
       id="c">
      <path
         d="m 195.398,307.086 c 0.403,0.523 0.907,0.976 1.5,1.316 l 36.14,20.875 6.02,3.46 c 0.9,0.52 1.926,0.74 2.934,0.665 0.336,-0.027 0.672,-0.09 1,-0.183 l 44.434,-81.36 c -0.34,-0.37 -0.738,-0.68 -1.184,-0.94 l -27.586,-15.93 -14.582,-8.39 c -0.414,-0.24 -0.863,-0.41 -1.32,-0.53 z m 0,0"
         id="path725" />
    </clipPath>
    <linearGradient
       id="d"
       x1="-0.456"
       x2="0.58200002"
       gradientTransform="matrix(106.8057,-78.916731,78.916731,106.8057,235.18824,285.39477)"
       gradientUnits="userSpaceOnUse">
      <stop
         offset=".57"
         stop-color="#3E863D"
         id="stop728" />
      <stop
         offset=".72"
         stop-color="#619857"
         id="stop730" />
      <stop
         offset="1"
         stop-color="#76AC64"
         id="stop732" />
    </linearGradient>
    <clipPath
       id="e">
      <path
         d="m 241.066,225.953 c -0.707,0.07 -1.398,0.29 -2.035,0.652 l -42.01,24.247 45.3,82.51 c 0.63,-0.09 1.25,-0.3 1.81,-0.624 l 42.13,-24.336 c 1.3,-0.754 2.19,-2.03 2.46,-3.476 l -46.18,-78.89 c -0.34,-0.067 -0.68,-0.102 -1.03,-0.102 -0.14,0 -0.28,0.007 -0.42,0.02"
         id="path735" />
    </clipPath>
    <linearGradient
       id="f"
       x1="0.043000001"
       x2="0.98400003"
       gradientTransform="matrix(97.417,0,0,97.417,192.862,279.652)"
       gradientUnits="userSpaceOnUse">
      <stop
         offset=".16"
         stop-color="#6BBF47"
         id="stop738" />
      <stop
         offset=".38"
         stop-color="#79B461"
         id="stop740" />
      <stop
         offset=".47"
         stop-color="#75AC64"
         id="stop742" />
      <stop
         offset=".7"
         stop-color="#659E5A"
         id="stop744" />
      <stop
         offset=".9"
         stop-color="#3E863D"
         id="stop746" />
    </linearGradient>
  </defs>
  <g
     id="g360"
     transform="matrix(1.4463644,0,0,1.4463644,2.8236553,-2.1193819)"
     style="stroke-width:0.92185">
    <path
       fill="#689f63"
       d="m 15.338499,36.034751 c -0.462941,0 -0.92271,-0.121442 -1.328576,-0.355132 L 9.7809953,33.175936 c -0.6316282,-0.353229 -0.3234241,-0.47816 -0.1151009,-0.550138 0.8421706,-0.294886 1.0130786,-0.361474 1.9120066,-0.871976 0.09449,-0.0539 0.218153,-0.03488 0.314863,0.02219 l 3.248827,1.927862 c 0.11732,0.06342 0.283788,0.06342 0.392548,0 l 12.667442,-7.311921 c 0.11732,-0.06659 0.19342,-0.202933 0.19342,-0.342449 V 11.43201 c 0,-0.145858 -0.0761,-0.275862 -0.195957,-0.348791 L 15.536675,3.7776407 c -0.11732,-0.069758 -0.272691,-0.069758 -0.390011,0 L 2.4868315,11.083219 c -0.1227109,0.06976 -0.2007131,0.206104 -0.2007131,0.34562 v 14.617499 c 0,0.139517 0.0761,0.272691 0.1965911,0.339279 l 3.4688815,2.00396 c 1.8834695,0.941735 3.0344787,-0.168053 3.0344787,-1.284183 v -14.42725 c 0,-0.206104 0.161712,-0.364645 0.3678156,-0.364645 h 1.6044367 c 0.199762,0 0.364645,0.158541 0.364645,0.364645 v 14.433591 c 0,2.511293 -1.369796,3.954018 -3.7510849,3.954018 -0.7324603,0 -1.3095503,0 -2.9203289,-0.792706 L 1.3285295,28.357869 C 0.50728605,27.882245 -4.580207e-5,26.994415 -4.580207e-5,26.046338 V 11.428839 c 0,-0.951247 0.50733185207,-1.8390777 1.32857530207,-2.3083597 L 14.008655,1.8053881 c 0.802219,-0.4534278 1.867615,-0.4534278 2.663492,0 l 12.664272,7.318262 c 0.818072,0.4724528 1.328575,1.3571129 1.328575,2.3083599 v 14.617499 c 0,0.948077 -0.510503,1.832736 -1.328575,2.30836 L 16.672147,35.67296 c -0.405865,0.234641 -0.865635,0.355133 -1.334917,0.355133"
       id="path751"
       style="stroke-width:2.90729" />
    <path
       fill="#689f63"
       d="m 19.251296,25.962312 c -5.542601,0 -6.704708,-2.54427 -6.704708,-4.678234 0,-0.202933 0.163615,-0.364645 0.366864,-0.364645 h 1.636146 c 0.180737,0 0.332936,0.131589 0.361474,0.310106 0.247324,1.66722 0.982955,2.508122 4.334516,2.508122 2.669834,0 3.804989,-0.60309 3.804989,-2.018863 0,-0.814902 -0.323424,-1.42053 -4.470862,-1.826395 -3.468881,-0.342449 -5.612359,-1.106618 -5.612359,-3.881089 0,-2.555684 2.156161,-4.07768 5.767729,-4.07768 4.055484,0 6.065787,1.407846 6.319453,4.432813 0.0095,0.104637 -0.02854,0.206103 -0.0983,0.282203 -0.06976,0.07293 -0.168053,0.11732 -0.26952,0.11732 h -1.645657 c -0.171225,0 -0.320254,-0.120491 -0.355133,-0.285374 -0.396353,-1.753466 -1.353942,-2.314701 -3.957188,-2.314701 -2.913988,0 -3.253266,1.014663 -3.253266,1.775661 0,0.92271 0.399524,1.19223 4.331346,1.712245 3.893772,0.516844 5.742362,1.246134 5.742362,3.982555 0,2.758617 -2.302018,4.340858 -6.316281,4.340858"
       id="path753"
       style="stroke-width:2.90729" />
  </g>
</svg>
