<svg width="50" height="50" version="1.1" viewBox="0 0 50 50" xml:space="preserve" xmlns="http://www.w3.org/2000/svg">


<g transform="matrix(.19771 0 0 .19771 -2.1925 -.27809)" stroke-linecap="round" style="stroke-width:5.058"><path d="m244.62 74.927v164.44c0 8.253-6.6906 14.941-14.941 14.941h-166.24c-8.253 0-14.941-6.6906-14.941-14.941v-223.02c0-8.2502 6.6878-14.941 14.941-14.941h107.67c23.236 0.37935 73.518 44.991 73.518 73.521z" style="fill:#e2e2e2"/><path d="m48.707 62.83h113.15c9.0426 0 16.374 7.3313 16.374 16.374v51.538c0 9.0426-7.3313 16.374-16.374 16.374h-134.39c-9.0426 0-16.374-7.3313-16.374-16.374v-84.286" style="fill:#f15642"/><path d="m11.09 46.457c0 9.0426 7.3313 16.374 16.374 16.374h21.244v-31.773h-21.244c-9.0426 0-16.374 7.3313-16.374 16.374" style="fill:#be4030"/><path d="m171.11 1.4066h18.72c7.9411 0 15.556 3.1556 21.171 8.77l24.86 24.86c5.6144 5.6144 8.77 13.229 8.77 21.171v18.72c0-9.6074-7.7893-17.394-17.394-17.394h-22.103c-9.1831 0-16.627-7.4437-16.627-16.627v-22.103c-0.00281-9.6074-7.7893-17.397-17.397-17.397z" style="fill:#808080"/><path d="m59.596 79.187h-15.424c-2.3295 0-4.215 1.8855-4.215 4.215v43.08c0 2.3295 1.8855 4.215 4.215 4.215s4.215-1.8855 4.215-4.215v-13.294h11.209c6.3843 0 11.583-5.1957 11.583-11.58v-10.841c-0.0028-6.3843-5.1985-11.58-11.583-11.58zm3.15 22.421c0 1.7366-1.4134 3.15-3.1528 3.15h-11.209v-17.141h11.209c1.7394 0 3.1528 1.4134 3.1528 3.15z" style="fill:#fff"/><path d="m98.503 79.187h-14.668c-2.3295 0-4.215 1.8855-4.215 4.215v43.083c0 2.3295 1.8855 4.215 4.215 4.215h14.668c6.803 0 12.339-5.5357 12.339-12.339v-26.835c0-6.803-5.5329-12.339-12.339-12.339zm3.9087 39.174c0 2.1553-1.7534 3.9087-3.9087 3.9087h-10.453v-34.653h10.453c2.1553 0 3.9087 1.7534 3.9087 3.9087z" style="fill:#fff"/><path d="m147.08 79.187h-22.789c-2.3295 0-4.215 1.8855-4.215 4.215v43.083c0 2.3295 1.8855 4.215 4.215 4.215s4.215-1.8855 4.215-4.215v-17.326h10.712c2.3267 0 4.215-1.8855 4.215-4.215s-1.8883-4.215-4.215-4.215h-10.715v-13.111h18.574c2.3267 0 4.215-1.8855 4.215-4.215s-1.8855-4.215-4.2122-4.215z" style="fill:#fff"/><path d="m171.49 204.34c-1.6495-1.6467-4.3162-1.6467-5.9628 0l-14.747 14.747v-43.954c0-2.3267-1.8855-4.215-4.215-4.215s-4.215 1.8883-4.215 4.215v43.954l-14.747-14.747c-1.6467-1.6467-4.3134-1.6467-5.96 0s-1.6467 4.3134 0 5.96l17.768 17.768c1.7562 1.7562 4.0014 2.6836 6.3028 2.8774 0.27538 0.0562 0.562 0.0871 0.85424 0.0871s0.57886-0.0309 0.85424-0.0871c2.2986-0.19389 4.5466-1.1212 6.3028-2.8774l17.768-17.768c1.641-1.6467 1.641-4.3134-3e-3 -5.96z" style="fill:#808080"/></g>
</svg>
