<?xml version="1.0" encoding="UTF-8" standalone="no"?>
<!-- Created with Inkscape (http://www.inkscape.org/) -->

<svg
   version="1.0"
   width="50pt"
   height="50pt"
   id="svg2"
   sodipodi:version="0.32"
   inkscape:version="1.2.2 (1:1.2.2+202212051552+b0a8486541)"
   sodipodi:docname="python-logo-generic.svg"
   xmlns:inkscape="http://www.inkscape.org/namespaces/inkscape"
   xmlns:sodipodi="http://sodipodi.sourceforge.net/DTD/sodipodi-0.dtd"
   xmlns:xlink="http://www.w3.org/1999/xlink"
   xmlns="http://www.w3.org/2000/svg"
   xmlns:svg="http://www.w3.org/2000/svg"
   xmlns:rdf="http://www.w3.org/1999/02/22-rdf-syntax-ns#"
   xmlns:cc="http://creativecommons.org/ns#"
   xmlns:dc="http://purl.org/dc/elements/1.1/">
  <metadata
     id="metadata2193">
    <rdf:RDF>
      <cc:Work
         rdf:about="">
        <dc:format>image/svg+xml</dc:format>
        <dc:type
           rdf:resource="http://purl.org/dc/dcmitype/StillImage" />
      </cc:Work>
    </rdf:RDF>
  </metadata>
  <sodipodi:namedview
     inkscape:window-height="1043"
     inkscape:window-width="1920"
     inkscape:pageshadow="2"
     inkscape:pageopacity="0.0"
     borderopacity="1.0"
     bordercolor="#666666"
     pagecolor="#ffffff"
     id="base"
     inkscape:zoom="2.0279948"
     inkscape:cx="-52.514927"
     inkscape:cy="88.757623"
     inkscape:window-x="0"
     inkscape:window-y="0"
     inkscape:current-layer="svg2"
     inkscape:showpageshadow="2"
     inkscape:pagecheckerboard="0"
     inkscape:deskcolor="#d1d1d1"
     inkscape:document-units="pt"
     showgrid="false"
     inkscape:window-maximized="1" />
  <defs
     id="defs4">
    <linearGradient
       id="linearGradient2795">
      <stop
         style="stop-color:#b8b8b8;stop-opacity:0.49803922"
         offset="0"
         id="stop2797" />
      <stop
         style="stop-color:#7f7f7f;stop-opacity:0"
         offset="1"
         id="stop2799" />
    </linearGradient>
    <linearGradient
       id="linearGradient2787">
      <stop
         style="stop-color:#7f7f7f;stop-opacity:0.5"
         offset="0"
         id="stop2789" />
      <stop
         style="stop-color:#7f7f7f;stop-opacity:0"
         offset="1"
         id="stop2791" />
    </linearGradient>
    <linearGradient
       id="linearGradient3676">
      <stop
         style="stop-color:#b2b2b2;stop-opacity:0.5"
         offset="0"
         id="stop3678" />
      <stop
         style="stop-color:#b3b3b3;stop-opacity:0"
         offset="1"
         id="stop3680" />
    </linearGradient>
    <linearGradient
       id="linearGradient3236">
      <stop
         style="stop-color:#f4f4f4;stop-opacity:1"
         offset="0"
         id="stop3244" />
      <stop
         style="stop-color:#ffffff;stop-opacity:1"
         offset="1"
         id="stop3240" />
    </linearGradient>
    <linearGradient
       id="linearGradient4671">
      <stop
         style="stop-color:#ffd43b;stop-opacity:1"
         offset="0"
         id="stop4673" />
      <stop
         style="stop-color:#ffe873;stop-opacity:1"
         offset="1"
         id="stop4675" />
    </linearGradient>
    <linearGradient
       id="linearGradient4689">
      <stop
         style="stop-color:#5a9fd4;stop-opacity:1"
         offset="0"
         id="stop4691" />
      <stop
         style="stop-color:#306998;stop-opacity:1"
         offset="1"
         id="stop4693" />
    </linearGradient>
    <linearGradient
       x1="224.23996"
       y1="144.75717"
       x2="-65.308502"
       y2="144.75717"
       id="linearGradient2987"
       xlink:href="#linearGradient4671"
       gradientUnits="userSpaceOnUse"
       gradientTransform="translate(100.2702,99.61116)" />
    <linearGradient
       x1="172.94208"
       y1="77.475983"
       x2="26.670298"
       y2="76.313133"
       id="linearGradient2990"
       xlink:href="#linearGradient4689"
       gradientUnits="userSpaceOnUse"
       gradientTransform="translate(100.2702,99.61116)" />
    <linearGradient
       x1="172.94208"
       y1="77.475983"
       x2="26.670298"
       y2="76.313133"
       id="linearGradient2587"
       xlink:href="#linearGradient4689"
       gradientUnits="userSpaceOnUse"
       gradientTransform="translate(100.2702,99.61116)" />
    <linearGradient
       x1="224.23996"
       y1="144.75717"
       x2="-65.308502"
       y2="144.75717"
       id="linearGradient2589"
       xlink:href="#linearGradient4671"
       gradientUnits="userSpaceOnUse"
       gradientTransform="translate(100.2702,99.61116)" />
    <linearGradient
       x1="172.94208"
       y1="77.475983"
       x2="26.670298"
       y2="76.313133"
       id="linearGradient2248"
       xlink:href="#linearGradient4689"
       gradientUnits="userSpaceOnUse"
       gradientTransform="translate(100.2702,99.61116)" />
    <linearGradient
       x1="224.23996"
       y1="144.75717"
       x2="-65.308502"
       y2="144.75717"
       id="linearGradient2250"
       xlink:href="#linearGradient4671"
       gradientUnits="userSpaceOnUse"
       gradientTransform="translate(100.2702,99.61116)" />
    <linearGradient
       x1="224.23996"
       y1="144.75717"
       x2="-65.308502"
       y2="144.75717"
       id="linearGradient2255"
       xlink:href="#linearGradient4671"
       gradientUnits="userSpaceOnUse"
       gradientTransform="matrix(0.562541,0,0,0.567972,-11.5974,-7.60954)" />
    <linearGradient
       x1="172.94208"
       y1="76.176224"
       x2="26.670298"
       y2="76.313133"
       id="linearGradient2258"
       xlink:href="#linearGradient4689"
       gradientUnits="userSpaceOnUse"
       gradientTransform="matrix(0.562541,0,0,0.567972,-11.5974,-7.60954)" />
    <radialGradient
       cx="61.518883"
       cy="132.28575"
       r="29.036913"
       fx="61.518883"
       fy="132.28575"
       id="radialGradient2801"
       xlink:href="#linearGradient2795"
       gradientUnits="userSpaceOnUse"
       gradientTransform="matrix(1,0,0,0.177966,0,108.7434)" />
    <linearGradient
       x1="150.96111"
       y1="192.35176"
       x2="112.03144"
       y2="137.27299"
       id="linearGradient1475"
       xlink:href="#linearGradient4671"
       gradientUnits="userSpaceOnUse"
       gradientTransform="matrix(0.27848028,0,0,0.28116884,-1.8298328,0.60391243)" />
    <linearGradient
       x1="26.648937"
       y1="20.603781"
       x2="135.66525"
       y2="114.39767"
       id="linearGradient1478"
       xlink:href="#linearGradient4689"
       gradientUnits="userSpaceOnUse"
       gradientTransform="matrix(0.27848028,0,0,0.28116884,-1.8298328,0.60391243)" />
    <radialGradient
       cx="61.518883"
       cy="132.28575"
       r="29.036913"
       fx="61.518883"
       fy="132.28575"
       id="radialGradient1480"
       xlink:href="#linearGradient2795"
       gradientUnits="userSpaceOnUse"
       gradientTransform="matrix(0,-0.11878334,0.52210282,1.8769667e-7,-35.843871,76.921441)" />
  </defs>
  <g
     id="g371"
     transform="matrix(1.1982424,0,0,1.1982424,-6.3357121,-7.6652218)"
     style="stroke-width:0.834556">
    <path
       id="path1948"
       style="fill:url(#linearGradient1478);fill-opacity:1;stroke-width:0.834556"
       d="m 32.778365,6.3975087 c -2.269092,0.010543 -4.436023,0.2040643 -6.3427,0.54145 -5.616831,0.9923095 -6.636629,3.0692983 -6.63663,6.8996193 v 5.05869 h 13.273259 v 1.68623 H 19.799035 14.817696 c -3.857579,0 -7.2353854,2.318627 -8.29192,6.729449 -1.2186993,5.055827 -1.2727552,8.210745 0,13.48984 0.9435107,3.929554 3.196742,6.729448 7.05432,6.729449 h 4.563649 v -6.064239 c 0,-4.381056 3.790593,-8.245509 8.29192,-8.24551 h 13.257789 c 3.690499,0 6.636631,-3.038636 6.63663,-6.744919 v -12.63899 c 0,-3.597128 -3.034585,-6.2992732 -6.63663,-6.8996193 -2.280148,-0.3795597 -4.645998,-0.5519935 -6.915089,-0.54145 z m -7.17808,4.0686103 c 1.371036,0 2.49067,1.137921 2.49067,2.537079 -1e-6,1.394199 -1.119634,2.52161 -2.49067,2.52161 -1.375952,0 -2.49067,-1.127411 -2.49067,-2.52161 0,-1.399157 1.114718,-2.537079 2.49067,-2.537079 z" />
    <path
       id="path1950"
       style="fill:url(#linearGradient1475);fill-opacity:1;stroke-width:0.834556"
       d="m 47.985374,20.583498 v 5.89407 c 0,4.569592 -3.874131,8.415679 -8.29192,8.415679 H 26.435665 c -3.631531,0 -6.636629,3.1081 -6.63663,6.74492 v 12.638987 c 0,3.597129 3.127954,5.71292 6.63663,6.74492 4.201568,1.235427 8.230652,1.4587 13.257789,0 3.341597,-0.967501 6.636631,-2.914602 6.63663,-6.74492 v -5.058688 h -13.25779 v -1.68623 h 13.25779 6.636631 c 3.857579,0 5.295072,-2.690744 6.636625,-6.729449 1.38578,-4.157785 1.326816,-8.156168 0,-13.48984 -0.953338,-3.840243 -2.77414,-6.729449 -6.636625,-6.729449 z m -7.45654,32.007428 c 1.375953,10e-7 2.49067,1.127412 2.49067,2.521608 -10e-7,1.399157 -1.114719,2.53708 -2.49067,2.53708 -1.371038,0 -2.49067,-1.137923 -2.49067,-2.53708 10e-7,-1.394196 1.119631,-2.521608 2.49067,-2.521608 z" />
  </g>
</svg>
