<?xml version="1.0" encoding="UTF-8" standalone="no"?>
<svg
   fill="none"
   height="45"
   viewBox="0 0 45 45"
   width="45"
   version="1.1"
   id="svg1"
   sodipodi:docname="typescript.svg"
   inkscape:version="1.3.2 (1:1.3.2+202311252150+091e20ef0f)"
   xmlns:inkscape="http://www.inkscape.org/namespaces/inkscape"
   xmlns:sodipodi="http://sodipodi.sourceforge.net/DTD/sodipodi-0.dtd"
   xmlns="http://www.w3.org/2000/svg"
   xmlns:svg="http://www.w3.org/2000/svg">
  <defs
     id="defs1" />
  <sodipodi:namedview
     id="namedview1"
     pagecolor="#505050"
     bordercolor="#ffffff"
     borderopacity="1"
     inkscape:showpageshadow="0"
     inkscape:pageopacity="0"
     inkscape:pagecheckerboard="1"
     inkscape:deskcolor="#505050"
     inkscape:zoom="3.8890873"
     inkscape:cx="49.36891"
     inkscape:cy="45.640529"
     inkscape:window-width="1920"
     inkscape:window-height="1043"
     inkscape:window-x="0"
     inkscape:window-y="0"
     inkscape:window-maximized="1"
     inkscape:current-layer="svg1" />
  <g
     id="g1"
     transform="scale(0.3515625)"
     style="stroke-width:2.84444">
    <rect
       fill="#3178c6"
       height="128"
       rx="6"
       width="128"
       id="rect1"
       x="0"
       y="0"
       style="stroke-width:2.84444" />
    <path
       clip-rule="evenodd"
       d="m 74.2622,99.468 v 14.026 c 2.2724,1.168 4.9598,2.045 8.0625,2.629 3.1027,0.585 6.3728,0.877 9.8105,0.877 3.3503,0 6.533,-0.321 9.5478,-0.964 3.016,-0.643 5.659,-1.702 7.932,-3.178 2.272,-1.476 4.071,-3.404 5.397,-5.786 1.325,-2.381 1.988,-5.325 1.988,-8.8313 0,-2.5421 -0.379,-4.7701 -1.136,-6.6841 -0.758,-1.9139 -1.85,-3.6159 -3.278,-5.1062 -1.427,-1.4902 -3.139,-2.827 -5.134,-4.0104 -1.996,-1.1834 -4.246,-2.3011 -6.752,-3.353 -1.8352,-0.7597 -3.4812,-1.4975 -4.9378,-2.2134 -1.4567,-0.7159 -2.6948,-1.4464 -3.7144,-2.1915 -1.0197,-0.7452 -1.8063,-1.5341 -2.3598,-2.3669 -0.5535,-0.8327 -0.8303,-1.7751 -0.8303,-2.827 0,-0.9643 0.2476,-1.8336 0.7429,-2.6079 0.4953,-0.7743 1.1945,-1.4391 2.0976,-1.9943 0.9031,-0.5551 2.0101,-0.9861 3.3211,-1.2929 1.311,-0.3069 2.7676,-0.4603 4.3699,-0.4603 1.1658,0 2.3958,0.0877 3.6928,0.263 1.296,0.1753 2.6,0.4456 3.911,0.8109 1.311,0.3652 2.585,0.8254 3.824,1.3806 1.238,0.5552 2.381,1.198 3.43,1.9285 V 54.4107 c -2.127,-0.8182 -4.45,-1.4245 -6.97,-1.819 C 104.757,52.1972 101.866,52 98.6026,52 c -3.3211,0 -6.4674,0.3579 -9.439,1.0738 -2.9715,0.7159 -5.5862,1.8336 -7.844,3.353 -2.2578,1.5195 -4.0422,3.4553 -5.3531,5.8075 C 74.6555,64.5865 74,67.3989 74,70.6716 c 0,4.1785 1.2017,7.7433 3.6052,10.6945 2.4035,2.9513 6.0523,5.4496 10.9466,7.495 1.9228,0.7889 3.7145,1.5633 5.375,2.323 1.6606,0.7597 3.0954,1.5486 4.3044,2.3668 1.209,0.8182 2.1628,1.7094 2.8618,2.6736 0.7,0.9643 1.049,2.06 1.049,3.2873 0,0.9062 -0.218,1.7462 -0.655,2.5202 -0.437,0.774 -1.1,1.446 -1.9885,2.016 -0.8886,0.57 -1.9956,1.016 -3.3212,1.337 -1.3255,0.321 -2.8768,0.482 -4.6539,0.482 -3.0299,0 -6.0305,-0.533 -9.0021,-1.6 -2.9715,-1.066 -5.7245,-2.666 -8.2591,-4.799 z M 50.7026,64.5544 H 69 V 53 H 18 V 64.5544 H 36.2079 V 116 h 14.4947 z"
       fill="#ffffff"
       fill-rule="evenodd"
       id="path1"
       style="stroke-width:8.09086" />
  </g>
</svg>
